<svg width="414" height="96" viewBox="0 0 414 96" fill="none" xmlns="http://www.w3.org/2000/svg">
<path d="M40.2199 50.584C42.9999 50.794 45.4699 51.104 47.9399 51.144C54.4599 51.264 60.9899 51.214 67.5099 51.354C70.3699 51.414 73.2199 51.704 76.0699 52.004C76.8599 52.084 77.6599 52.484 78.3799 52.884C80.4399 54.024 81.7399 55.764 81.7599 58.164C81.7799 60.534 80.4099 62.224 78.3699 63.114C76.5799 63.894 74.5899 64.564 72.6699 64.634C67.4399 64.834 62.1799 64.494 56.9599 64.744C47.5099 65.194 38.4399 67.234 30.3599 72.444C28.5999 73.584 26.9699 74.984 25.4799 76.474C23.7999 78.154 24.4499 80.094 26.8199 80.544C27.8799 80.744 29.1399 80.744 30.1099 80.344C32.4699 79.344 34.7399 78.134 36.9699 76.874C39.3499 75.534 41.5499 73.864 44.3199 73.304C46.7699 72.804 49.1799 74.334 49.1199 76.814C49.0599 78.964 48.6199 81.184 47.8899 83.224C46.5599 86.964 44.9099 90.584 43.3799 94.254C43.0399 95.064 42.6399 95.814 41.5399 95.234C40.4699 94.674 40.1399 93.814 40.6399 92.784C42.7599 88.464 44.7099 84.084 45.9099 79.404C46.0399 78.884 46.1599 78.354 46.2099 77.824C46.3499 76.504 45.8999 76.064 44.6299 76.534C43.1999 77.064 41.8499 77.804 40.4899 78.504C37.5199 80.054 34.6499 81.844 31.5799 83.154C29.2499 84.144 26.6899 84.054 24.3099 82.874C21.7599 81.604 20.6599 78.934 21.9199 76.404C22.6199 75.004 23.7199 73.704 24.9199 72.684C29.8099 68.534 35.5699 65.984 41.6899 64.224C50.0799 61.814 58.6499 61.124 67.3599 61.574C69.9899 61.714 72.6499 61.444 75.2799 61.174C76.1599 61.084 77.0999 60.534 77.8099 59.944C79.2099 58.784 79.1599 57.244 77.6899 56.174C76.9499 55.634 76.0199 55.204 75.1199 55.034C73.5799 54.734 71.9899 54.534 70.4199 54.524C64.0999 54.474 57.7699 54.634 51.4499 54.474C47.6399 54.374 43.8299 53.874 40.0399 53.444C38.9499 53.324 38.3699 53.754 37.7099 54.464C32.4199 60.134 26.7799 65.384 19.6899 68.804C16.7499 70.224 13.6899 71.344 10.3299 70.814C4.99992 69.974 0.649918 65.464 0.449918 59.974C-0.100082 45.134 3.25992 31.364 12.5499 19.414C18.9599 11.164 27.3899 5.92402 37.3799 3.03402C46.5899 0.364021 55.9699 -0.435978 65.5099 0.214022C73.9999 0.794022 82.0699 2.84402 89.5299 6.98402C96.0799 10.624 101.63 15.354 105.05 22.164C107.38 26.814 109.01 31.704 108.21 36.994C107.3 43.084 104.63 48.174 99.1399 51.434C93.0299 55.074 86.3899 53.664 82.4599 47.754C81.4199 46.194 80.4399 45.664 78.4999 45.804C74.1399 46.124 69.9499 44.884 65.7899 43.674C62.2399 42.644 58.7099 41.534 55.1199 40.714C50.9199 39.754 46.6199 39.784 42.3399 40.124C42.0699 40.144 41.5999 40.644 41.6299 40.864C42.0699 44.104 41.5699 47.214 40.2199 50.584ZM84.4399 45.274C85.0199 45.954 85.4899 46.534 85.9799 47.074C88.9399 50.294 92.8099 51.074 96.7299 49.134C102.29 46.394 104.49 41.484 104.94 35.694C105.53 28.174 102.55 21.884 97.2799 16.724C89.1299 8.74402 79.0299 4.76402 67.8399 3.52402C58.1699 2.45402 48.5699 3.10402 39.1799 5.75402C27.5299 9.03402 18.3699 15.684 11.9599 25.964C7.33992 33.374 4.71992 41.474 3.93992 50.134C3.64992 53.294 3.46992 56.514 3.69992 59.674C4.00992 64.144 7.14992 67.384 11.0999 67.824C13.3299 68.074 15.3799 67.364 17.3499 66.454C24.1299 63.304 29.5699 58.364 34.8899 53.284C35.0399 53.134 35.0699 52.864 35.1699 52.604C34.1999 52.284 33.2799 52.014 32.3899 51.694C27.1299 49.794 22.8299 46.714 20.1599 41.694C17.5099 36.724 18.1399 30.864 21.6899 26.964C25.5999 22.674 32.0499 22.454 36.2899 26.414C38.9999 28.944 40.2299 32.214 41.0099 35.674C41.2899 36.914 41.7799 37.154 42.9399 37.064C48.0199 36.664 53.0799 36.694 58.0399 38.114C61.1899 39.014 64.3199 39.994 67.4699 40.904C71.0299 41.934 74.6099 42.854 78.3499 42.794C78.8099 42.794 79.2699 42.644 79.3899 42.624C79.1799 39.834 78.8099 37.244 78.8499 34.664C78.8899 31.874 80.0299 29.464 82.6799 28.144C85.1399 26.914 87.5799 27.314 89.7599 28.824C92.1699 30.494 92.9999 32.994 92.6499 35.814C92.1199 40.024 89.5299 42.724 85.8399 44.524C85.4099 44.734 84.9999 44.974 84.4699 45.264L84.4399 45.274ZM38.8199 43.444C38.5599 38.864 38.0799 35.094 36.3399 31.614C35.1399 29.204 33.3599 27.384 30.6099 26.884C26.5999 26.164 22.7799 28.914 21.8799 33.224C21.0399 37.284 22.6599 40.644 25.3799 43.494C28.1999 46.444 31.7699 48.184 35.6399 49.364C36.9799 49.774 37.4199 49.734 37.7799 48.424C38.2899 46.554 38.5799 44.634 38.8199 43.444ZM89.5299 34.984C89.5499 32.834 87.9799 30.854 86.0599 30.604C84.1799 30.364 82.4199 31.714 82.1099 34.074C81.8799 35.844 81.9699 37.704 82.2199 39.484C82.6299 42.424 82.9999 42.544 85.5399 40.984C87.7899 39.614 89.5699 37.884 89.5199 34.984H89.5299Z" fill="white"/>
<path d="M60.7699 73.414C59.0899 77.544 57.4499 81.564 55.8099 85.584C54.7299 88.224 53.6399 90.864 52.5499 93.504C52.3599 93.964 52.1499 94.414 51.8899 94.834C51.5499 95.374 51.2499 96.134 50.3799 95.754C49.5399 95.394 48.8699 94.814 49.0799 93.754C49.1699 93.314 49.3499 92.884 49.5199 92.464C52.3199 85.784 55.1299 79.114 57.9399 72.434C58.0699 72.124 58.1899 71.824 58.3399 71.524C59.4299 69.304 59.6199 69.284 61.8899 70.304C67.5099 72.814 73.2099 72.614 78.8699 70.524C83.2499 68.914 87.2399 66.644 90.1099 62.824C90.7499 61.964 91.2299 60.984 91.8399 60.094C92.2099 59.544 92.5299 58.774 93.4799 59.254C94.4899 59.764 95.0099 60.684 94.5299 61.564C93.8499 62.834 93.1599 64.154 92.1999 65.204C84.7799 73.274 75.6099 76.454 64.7599 74.614C63.4699 74.394 62.2399 73.854 60.7799 73.404L60.7699 73.414Z" fill="white"/>
<path d="M145.264 66.4282C144.112 66.4282 143.152 65.7562 142.672 64.7962L130.096 36.7162C129.472 35.3242 130.096 33.6922 131.536 33.0202C132.928 32.4442 134.56 33.0202 135.184 34.4602L145.216 56.7802L155.152 34.4602C155.776 33.0202 157.456 32.4442 158.848 33.0202C160.288 33.6922 160.912 35.3242 160.288 36.7162L147.808 64.7962C147.328 65.7562 146.32 66.4282 145.264 66.4282ZM180.795 66.8122C171.291 66.8122 163.563 59.0842 163.563 49.6282C163.563 40.0762 171.291 32.3962 180.795 32.3962C190.251 32.3962 197.979 40.0762 197.979 49.6282C197.979 59.0842 190.251 66.8122 180.795 66.8122ZM180.795 61.1482C187.131 61.1482 192.315 55.9162 192.315 49.6282C192.315 43.2442 187.131 38.0602 180.795 38.0602C174.459 38.0602 169.227 43.2442 169.227 49.6282C169.227 55.9162 174.459 61.1482 180.795 61.1482ZM213.684 60.8122C215.22 60.8122 216.468 62.0602 216.468 63.6442C216.468 65.1802 215.22 66.4282 213.684 66.4282H204.468C202.884 66.4282 201.636 65.1802 201.636 63.6442C201.636 62.0602 202.884 60.8122 204.468 60.8122H206.244V38.3962H204.468C202.884 38.3962 201.636 37.1482 201.636 35.6122C201.636 34.0282 202.884 32.7802 204.468 32.7802H213.684C215.22 32.7802 216.468 34.0282 216.468 35.6122C216.468 37.1482 215.22 38.3962 213.684 38.3962H211.908V60.8122H213.684ZM237.134 49.5802L246.734 62.0122C247.598 63.2122 247.406 64.8922 246.206 65.9002C245.726 66.2842 245.102 66.4762 244.526 66.4762C243.662 66.4762 242.846 66.0922 242.318 65.3722L233.63 54.1402L224.894 65.3722C224.366 66.0922 223.55 66.4762 222.734 66.4762C222.11 66.4762 221.534 66.2842 221.006 65.9002C219.806 64.8922 219.566 63.2122 220.526 62.0122L230.078 49.5802L220.526 37.1482C219.566 35.9962 219.806 34.2202 221.006 33.3082C222.254 32.3002 223.982 32.5882 224.894 33.7882L233.63 45.0202L242.318 33.7882C243.23 32.5882 245.006 32.3002 246.206 33.3082C247.406 34.2202 247.598 35.9962 246.734 37.1482L237.134 49.5802ZM255.129 64.7962C253.545 68.1562 248.409 65.9002 249.945 62.4442L262.569 34.4122C263.577 32.2042 266.697 32.1562 267.753 34.4122L280.425 62.4442C281.961 65.8522 276.777 68.2042 275.289 64.7962L272.793 59.1802H257.577L255.129 64.7962ZM260.121 53.5642H270.249L265.161 42.4282L260.121 53.5642ZM299.794 32.7802C306.082 32.7802 311.218 37.9162 311.218 44.2042C311.218 50.4922 306.082 55.6282 299.794 55.6282H290.002V63.6442C290.002 65.1802 288.706 66.4282 287.17 66.4282C285.634 66.4282 284.338 65.1802 284.338 63.6442V35.6122C284.338 34.0762 285.634 32.7802 287.17 32.7802H299.794ZM299.794 50.0122C303.01 50.0122 305.602 47.4202 305.602 44.2042C305.602 40.9882 303.01 38.3962 299.794 38.3962H290.002V50.0122H299.794ZM330.966 32.7802C337.254 32.7802 342.39 37.9162 342.39 44.2042C342.39 50.4922 337.254 55.6282 330.966 55.6282H321.174V63.6442C321.174 65.1802 319.878 66.4282 318.342 66.4282C316.806 66.4282 315.51 65.1802 315.51 63.6442V35.6122C315.51 34.0762 316.806 32.7802 318.342 32.7802H330.966ZM330.966 50.0122C334.182 50.0122 336.774 47.4202 336.774 44.2042C336.774 40.9882 334.182 38.3962 330.966 38.3962H321.174V50.0122H330.966ZM367.817 64.7962C366.233 68.1562 361.097 65.9002 362.633 62.4442L375.257 34.4122C376.265 32.2042 379.385 32.1562 380.441 34.4122L393.113 62.4442C394.649 65.8522 389.465 68.2042 387.977 64.7962L385.481 59.1802H370.265L367.817 64.7962ZM372.809 53.5642H382.937L377.849 42.4282L372.809 53.5642ZM407.794 60.8122C409.33 60.8122 410.578 62.0602 410.578 63.6442C410.578 65.1802 409.33 66.4282 407.794 66.4282H398.578C396.994 66.4282 395.746 65.1802 395.746 63.6442C395.746 62.0602 396.994 60.8122 398.578 60.8122H400.354V38.3962H398.578C396.994 38.3962 395.746 37.1482 395.746 35.6122C395.746 34.0282 396.994 32.7802 398.578 32.7802H407.794C409.33 32.7802 410.578 34.0282 410.578 35.6122C410.578 37.1482 409.33 38.3962 407.794 38.3962H406.018V60.8122H407.794Z" fill="#FF61C6"/>
<path d="M145.264 64.4282C144.112 64.4282 143.152 63.7562 142.672 62.7962L130.096 34.7162C129.472 33.3242 130.096 31.6922 131.536 31.0202C132.928 30.4442 134.56 31.0202 135.184 32.4602L145.216 54.7802L155.152 32.4602C155.776 31.0202 157.456 30.4442 158.848 31.0202C160.288 31.6922 160.912 33.3242 160.288 34.7162L147.808 62.7962C147.328 63.7562 146.32 64.4282 145.264 64.4282ZM180.795 64.8122C171.291 64.8122 163.563 57.0842 163.563 47.6282C163.563 38.0762 171.291 30.3962 180.795 30.3962C190.251 30.3962 197.979 38.0762 197.979 47.6282C197.979 57.0842 190.251 64.8122 180.795 64.8122ZM180.795 59.1482C187.131 59.1482 192.315 53.9162 192.315 47.6282C192.315 41.2442 187.131 36.0602 180.795 36.0602C174.459 36.0602 169.227 41.2442 169.227 47.6282C169.227 53.9162 174.459 59.1482 180.795 59.1482ZM213.684 58.8122C215.22 58.8122 216.468 60.0602 216.468 61.6442C216.468 63.1802 215.22 64.4282 213.684 64.4282H204.468C202.884 64.4282 201.636 63.1802 201.636 61.6442C201.636 60.0602 202.884 58.8122 204.468 58.8122H206.244V36.3962H204.468C202.884 36.3962 201.636 35.1482 201.636 33.6122C201.636 32.0282 202.884 30.7802 204.468 30.7802H213.684C215.22 30.7802 216.468 32.0282 216.468 33.6122C216.468 35.1482 215.22 36.3962 213.684 36.3962H211.908V58.8122H213.684ZM237.134 47.5802L246.734 60.0122C247.598 61.2122 247.406 62.8922 246.206 63.9002C245.726 64.2842 245.102 64.4762 244.526 64.4762C243.662 64.4762 242.846 64.0922 242.318 63.3722L233.63 52.1402L224.894 63.3722C224.366 64.0922 223.55 64.4762 222.734 64.4762C222.11 64.4762 221.534 64.2842 221.006 63.9002C219.806 62.8922 219.566 61.2122 220.526 60.0122L230.078 47.5802L220.526 35.1482C219.566 33.9962 219.806 32.2202 221.006 31.3082C222.254 30.3002 223.982 30.5882 224.894 31.7882L233.63 43.0202L242.318 31.7882C243.23 30.5882 245.006 30.3002 246.206 31.3082C247.406 32.2202 247.598 33.9962 246.734 35.1482L237.134 47.5802ZM255.129 62.7962C253.545 66.1562 248.409 63.9002 249.945 60.4442L262.569 32.4122C263.577 30.2042 266.697 30.1562 267.753 32.4122L280.425 60.4442C281.961 63.8522 276.777 66.2042 275.289 62.7962L272.793 57.1802H257.577L255.129 62.7962ZM260.121 51.5642H270.249L265.161 40.4282L260.121 51.5642ZM299.794 30.7802C306.082 30.7802 311.218 35.9162 311.218 42.2042C311.218 48.4922 306.082 53.6282 299.794 53.6282H290.002V61.6442C290.002 63.1802 288.706 64.4282 287.17 64.4282C285.634 64.4282 284.338 63.1802 284.338 61.6442V33.6122C284.338 32.0762 285.634 30.7802 287.17 30.7802H299.794ZM299.794 48.0122C303.01 48.0122 305.602 45.4202 305.602 42.2042C305.602 38.9882 303.01 36.3962 299.794 36.3962H290.002V48.0122H299.794ZM330.966 30.7802C337.254 30.7802 342.39 35.9162 342.39 42.2042C342.39 48.4922 337.254 53.6282 330.966 53.6282H321.174V61.6442C321.174 63.1802 319.878 64.4282 318.342 64.4282C316.806 64.4282 315.51 63.1802 315.51 61.6442V33.6122C315.51 32.0762 316.806 30.7802 318.342 30.7802H330.966ZM330.966 48.0122C334.182 48.0122 336.774 45.4202 336.774 42.2042C336.774 38.9882 334.182 36.3962 330.966 36.3962H321.174V48.0122H330.966ZM367.817 62.7962C366.233 66.1562 361.097 63.9002 362.633 60.4442L375.257 32.4122C376.265 30.2042 379.385 30.1562 380.441 32.4122L393.113 60.4442C394.649 63.8522 389.465 66.2042 387.977 62.7962L385.481 57.1802H370.265L367.817 62.7962ZM372.809 51.5642H382.937L377.849 40.4282L372.809 51.5642ZM407.794 58.8122C409.33 58.8122 410.578 60.0602 410.578 61.6442C410.578 63.1802 409.33 64.4282 407.794 64.4282H398.578C396.994 64.4282 395.746 63.1802 395.746 61.6442C395.746 60.0602 396.994 58.8122 398.578 58.8122H400.354V36.3962H398.578C396.994 36.3962 395.746 35.1482 395.746 33.6122C395.746 32.0282 396.994 30.7802 398.578 30.7802H407.794C409.33 30.7802 410.578 32.0282 410.578 33.6122C410.578 35.1482 409.33 36.3962 407.794 36.3962H406.018V58.8122H407.794Z" fill="white"/>
</svg>
