<svg width="55" height="56" viewBox="0 0 55 56" fill="none" xmlns="http://www.w3.org/2000/svg">
<path d="M34.8571 18.7832H20.4286C19.1341 18.7846 18.0854 19.8527 18.084 21.1705V35.8613C18.0854 37.1791 19.1341 38.2472 20.4286 38.2486H34.8571C36.1513 38.2472 37.2004 37.1791 37.2018 35.8613V21.1705C37.2004 19.8527 36.1513 18.7846 34.8571 18.7832ZM36.1196 35.8613C36.1186 36.5708 35.5539 37.1461 34.8571 37.1468H20.4286C19.7315 37.1461 19.1668 36.5708 19.1661 35.8613V21.1705C19.1668 20.4607 19.7315 19.8857 20.4286 19.885H34.8571C35.5539 19.8857 36.1189 20.4607 36.1196 21.1705V35.8613Z" fill="#1C75BA"/>
<path d="M36.66 16.0293H18.6243C16.8321 16.0314 15.3797 17.5099 15.3779 19.3347V37.6983C15.3797 39.5228 16.8321 41.0016 18.6243 41.0038H36.66C38.4519 41.0016 39.9043 39.5228 39.9064 37.6983V19.3347C39.9043 17.5099 38.4519 16.0314 36.66 16.0293ZM38.8243 37.6983C38.8229 38.9149 37.8545 39.9005 36.66 39.9019H18.6243C17.4295 39.9005 16.4615 38.9149 16.4601 37.6983V19.3347C16.4611 18.1182 17.4295 17.1325 18.6243 17.1311H36.66C37.8545 17.1325 38.8229 18.1182 38.8243 19.3347V37.6983Z" fill="#1C75BA"/>
<path d="M29.592 42.8066C29.2929 42.8066 29.0509 43.0534 29.0509 43.3575V47.9484C29.0509 48.2529 29.2929 48.4994 29.592 48.4994C29.8907 48.4994 30.133 48.2529 30.133 47.9484V43.3575C30.133 43.0534 29.8907 42.8066 29.592 42.8066Z" fill="#1C75BA"/>
<path d="M25.6944 42.8066C25.3953 42.8066 25.1533 43.0534 25.1533 43.3575V47.9484C25.1533 48.2529 25.3953 48.4994 25.6944 48.4994C25.9931 48.4994 26.2355 48.2529 26.2355 47.9484V43.3575C26.2355 43.0534 25.9931 42.8066 25.6944 42.8066Z" fill="#1C75BA"/>
<path d="M21.7962 42.8066C21.4975 42.8066 21.2551 43.0534 21.2551 43.3575V47.9484C21.2551 48.2529 21.4975 48.4994 21.7962 48.4994C22.0949 48.4994 22.3373 48.2529 22.3373 47.9484V43.3575C22.3373 43.0534 22.0949 42.8066 21.7962 42.8066Z" fill="#1C75BA"/>
<path d="M33.4903 42.8066C33.1912 42.8066 32.9492 43.0534 32.9492 43.3575V47.9484C32.9492 48.2529 33.1912 48.4994 33.4903 48.4994C33.789 48.4994 34.0314 48.2529 34.0314 47.9484V43.3575C34.0314 43.0534 33.789 42.8066 33.4903 42.8066Z" fill="#1C75BA"/>
<path d="M26.2355 13.6418V9.05091C26.2355 8.74676 25.9931 8.5 25.6944 8.5C25.3953 8.5 25.1533 8.74676 25.1533 9.05091V13.6418C25.1533 13.9459 25.3953 14.1927 25.6944 14.1927C25.9931 14.1927 26.2355 13.9459 26.2355 13.6418Z" fill="#1C75BA"/>
<path d="M30.133 13.6418V9.05091C30.133 8.74676 29.8907 8.5 29.592 8.5C29.2929 8.5 29.0509 8.74676 29.0509 9.05091V13.6418C29.0509 13.9459 29.2929 14.1927 29.592 14.1927C29.8907 14.1927 30.133 13.9459 30.133 13.6418Z" fill="#1C75BA"/>
<path d="M34.0314 13.6418V9.05091C34.0314 8.74676 33.789 8.5 33.4903 8.5C33.1912 8.5 32.9492 8.74676 32.9492 9.05091V13.6418C32.9492 13.9459 33.1912 14.1927 33.4903 14.1927C33.789 14.1927 34.0314 13.9459 34.0314 13.6418Z" fill="#1C75BA"/>
<path d="M22.3373 13.6418V9.05091C22.3373 8.74676 22.0949 8.5 21.7962 8.5C21.4975 8.5 21.2551 8.74676 21.2551 9.05091V13.6418C21.2551 13.9459 21.4975 14.1927 21.7962 14.1927C22.0949 14.1927 22.3373 13.9459 22.3373 13.6418Z" fill="#1C75BA"/>
<path d="M46.7463 25.9648H42.2374C41.9386 25.9648 41.6963 26.2112 41.6963 26.5158C41.6963 26.8199 41.9386 27.0667 42.2374 27.0667H46.7463C47.0453 27.0667 47.2873 26.8199 47.2873 26.5158C47.2873 26.2112 47.0453 25.9648 46.7463 25.9648Z" fill="#1C75BA"/>
<path d="M46.7463 29.9346H42.2374C41.9386 29.9346 41.6963 30.181 41.6963 30.4855C41.6963 30.7896 41.9386 31.0364 42.2374 31.0364H46.7463C47.0453 31.0364 47.2873 30.7896 47.2873 30.4855C47.2873 30.181 47.0453 29.9346 46.7463 29.9346Z" fill="#1C75BA"/>
<path d="M46.7463 33.9043H42.2374C41.9386 33.9043 41.6963 34.1507 41.6963 34.4552C41.6963 34.7594 41.9386 35.0061 42.2374 35.0061H46.7463C47.0453 35.0061 47.2873 34.7594 47.2873 34.4552C47.2873 34.1507 47.0453 33.9043 46.7463 33.9043Z" fill="#1C75BA"/>
<path d="M46.7463 21.9951H42.2374C41.9386 21.9951 41.6963 22.2419 41.6963 22.546C41.6963 22.8502 41.9386 23.0969 42.2374 23.0969H46.7463C47.0453 23.0969 47.2873 22.8502 47.2873 22.546C47.2873 22.2419 47.0453 21.9951 46.7463 21.9951Z" fill="#1C75BA"/>
<path d="M13.05 29.9346H8.54107C8.24235 29.9346 8 30.181 8 30.4855C8 30.7896 8.24235 31.0364 8.54107 31.0364H13.05C13.3487 31.0364 13.5911 30.7896 13.5911 30.4855C13.5911 30.181 13.3487 29.9346 13.05 29.9346Z" fill="#1C75BA"/>
<path d="M13.05 25.9648H8.54107C8.24235 25.9648 8 26.2112 8 26.5158C8 26.8199 8.24235 27.0667 8.54107 27.0667H13.05C13.3487 27.0667 13.5911 26.8199 13.5911 26.5158C13.5911 26.2112 13.3487 25.9648 13.05 25.9648Z" fill="#1C75BA"/>
<path d="M13.05 21.9951H8.54107C8.24235 21.9951 8 22.2419 8 22.546C8 22.8502 8.24235 23.0969 8.54107 23.0969H13.05C13.3487 23.0969 13.5911 22.8502 13.5911 22.546C13.5911 22.2419 13.3487 21.9951 13.05 21.9951Z" fill="#1C75BA"/>
<path d="M13.05 33.9043H8.54107C8.24235 33.9043 8 34.1507 8 34.4552C8 34.7594 8.24235 35.0061 8.54107 35.0061H13.05C13.3487 35.0061 13.5911 34.7594 13.5911 34.4552C13.5911 34.1507 13.3487 33.9043 13.05 33.9043Z" fill="#1C75BA"/>
<path d="M27.138 24.5942C27.0584 24.3517 26.7611 24.2305 26.4634 24.2305C26.1658 24.2305 25.878 24.3517 25.7987 24.5942L23.8246 31.1387C23.8165 31.1685 23.8134 31.1993 23.8148 31.2298C23.8148 31.4923 24.1818 31.6742 24.4696 31.6742C24.6482 31.6742 24.787 31.6136 24.8367 31.4518L25.2432 30.0179H27.6935L28.1 31.4518C28.1497 31.6136 28.2885 31.6742 28.4572 31.6742C28.7549 31.6742 29.1219 31.4823 29.1219 31.2298C29.1201 31.1986 29.1135 31.1677 29.1018 31.1387L27.138 24.5942ZM25.4715 29.1592L26.4634 25.6949L27.4554 29.1592H25.4715Z" fill="#1C75BA"/>
<path d="M30.4303 24.291C30.1725 24.291 29.9044 24.3918 29.9044 24.6343V31.3205C29.9044 31.5529 30.1725 31.6741 30.4303 31.6741C30.6981 31.6741 30.9559 31.5529 30.9559 31.3205V24.6346C30.9559 24.3918 30.6981 24.291 30.4303 24.291Z" fill="#1C75BA"/>
</svg>
