<svg width="55" height="56" viewBox="0 0 55 56" fill="none" xmlns="http://www.w3.org/2000/svg">
<path d="M35.17 34.8508L27.7775 31.6772C27.657 31.6254 27.5202 31.5981 27.3809 31.5981C27.2417 31.5981 27.1049 31.6254 26.9844 31.6772L19.5919 34.8508C19.4713 34.9025 19.3712 34.9768 19.3016 35.0664C19.232 35.156 19.1953 35.2576 19.1953 35.3611V41.6919C19.1953 41.7954 19.232 41.8972 19.3016 41.9869C19.3712 42.0766 19.4713 42.1511 19.5919 42.203L26.9844 45.3758C27.1048 45.4278 27.2416 45.4552 27.3809 45.4552C27.5202 45.4552 27.6571 45.4278 27.7775 45.3758L35.17 42.203C35.2906 42.1511 35.3907 42.0766 35.4603 41.9869C35.5299 41.8972 35.5666 41.7954 35.5666 41.6919V35.3611C35.5666 35.2576 35.5299 35.156 35.4603 35.0664C35.3907 34.9768 35.2905 34.9025 35.17 34.8508ZM27.3809 32.8692L33.187 35.3611L27.3809 37.8538L21.5749 35.3611L27.3809 32.8692ZM20.7817 36.3826L26.5878 38.8752V43.8441L20.7817 41.3514V36.3826ZM33.9802 41.3514L28.1741 43.8441V38.8752L33.9802 36.3826V41.3514Z" fill="#1C75BA"/>
<path d="M16.2346 22.8033C16.3735 22.8037 16.51 22.7766 16.6301 22.7247L19.9985 21.2794L26.9859 24.2816C27.1064 24.3336 27.2432 24.361 27.3825 24.361C27.5218 24.361 27.6586 24.3336 27.7791 24.2816L34.7665 21.2826L38.1348 22.7278C38.2549 22.7797 38.3915 22.8069 38.5304 22.8065C38.7052 22.8068 38.8753 22.7641 39.0142 22.6851C39.1531 22.6062 39.253 22.4953 39.2983 22.3697C39.3437 22.2441 39.332 22.1109 39.265 21.9908C39.198 21.8707 39.0796 21.7705 38.928 21.7056L35.5681 20.2611V14.263C35.5681 14.1594 35.5314 14.0577 35.4618 13.9679C35.3922 13.8782 35.2921 13.8037 35.1715 13.7519L27.7791 10.579C27.6585 10.5273 27.5217 10.5 27.3825 10.5C27.2432 10.5 27.1065 10.5273 26.9859 10.579L19.5934 13.7519C19.4729 13.8037 19.3727 13.8782 19.3031 13.9679C19.2335 14.0577 19.1969 14.1594 19.1968 14.263V20.2611L15.8369 21.7032C15.6854 21.7681 15.5669 21.8684 15.4999 21.9885C15.433 22.1086 15.4212 22.2418 15.4666 22.3673C15.512 22.4929 15.6118 22.6038 15.7507 22.6828C15.8896 22.7618 16.0597 22.8036 16.2346 22.8033ZM31.6752 18.5878C31.5849 18.5491 31.4852 18.5239 31.3819 18.5139C31.2786 18.5038 31.1736 18.5089 31.0729 18.529C30.9723 18.5491 30.8779 18.5837 30.7953 18.6309C30.7126 18.6781 30.6432 18.7369 30.5912 18.804C30.5391 18.8712 30.5053 18.9452 30.4917 19.0221C30.4781 19.0989 30.4851 19.177 30.5121 19.2518C30.5391 19.3267 30.5856 19.3968 30.6491 19.4583C30.7126 19.5197 30.7917 19.5713 30.882 19.61L33.1833 20.5984L28.1757 22.7459V17.7763L32.2875 16.0118L33.9796 15.2836V19.5794L31.6752 18.5878ZM27.3825 11.7703L33.1886 14.263L27.3825 16.7549L21.5764 14.263L27.3825 11.7703ZM20.7832 15.2836L22.4753 16.0118L26.5872 17.7763V22.7459L21.5827 20.5977L23.884 19.6092C23.9743 19.5705 24.0534 19.519 24.1169 19.4575C24.1804 19.396 24.2269 19.3259 24.2539 19.251C24.2809 19.1762 24.2879 19.0981 24.2743 19.0213C24.2607 18.9445 24.2269 18.8704 24.1749 18.8033C24.1228 18.7361 24.0534 18.6773 23.9708 18.6301C23.8881 18.5829 23.7937 18.5483 23.6931 18.5282C23.5924 18.5081 23.4874 18.503 23.3841 18.5131C23.2808 18.5232 23.1811 18.5483 23.0908 18.587L20.7832 19.5794V15.2836Z" fill="#1C75BA"/>
<path d="M20.5932 33.2864C20.7133 33.3383 20.8499 33.3655 20.9888 33.3651C21.1636 33.3654 21.3337 33.3227 21.4726 33.2437C21.6115 33.1647 21.7114 33.0538 21.7567 32.9283C21.8021 32.8027 21.7904 32.6695 21.7234 32.5494C21.6564 32.4293 21.538 32.329 21.3864 32.2642L18.3713 30.9715V24.9898C18.3713 24.8863 18.3346 24.7845 18.265 24.6948C18.1954 24.6051 18.0953 24.5306 17.9747 24.4787L10.5822 21.3051C10.4617 21.2533 10.3249 21.2261 10.1856 21.2261C10.0464 21.2261 9.90963 21.2533 9.78905 21.3051L2.39661 24.4748C2.27525 24.527 2.17463 24.6021 2.10497 24.6926C2.03531 24.783 1.9991 24.8856 2.00002 24.9898V31.3206C2.00001 31.4241 2.03666 31.5257 2.10628 31.6153C2.1759 31.7049 2.27604 31.7793 2.39661 31.8309L9.78905 35.0046C9.90953 35.0565 10.0463 35.0839 10.1856 35.0839C10.3249 35.0839 10.4618 35.0565 10.5822 35.0046L17.5834 31.9992L20.5932 33.2864ZM10.1856 22.4932L15.9917 24.9859L10.1856 27.4778L4.37956 24.9898L10.1856 22.4932ZM3.58638 26.0073L5.2785 26.7347L9.39246 28.5V33.4681L3.58638 30.9754V26.0073ZM10.9788 33.4681V28.5L15.0907 26.7347L16.7828 26.0073V30.2905L14.0765 29.1291C13.8941 29.0509 13.6775 29.0297 13.4742 29.0703C13.2709 29.1108 13.0976 29.2098 12.9924 29.3453C12.8873 29.4809 12.8588 29.642 12.9134 29.7931C12.9679 29.9443 13.101 30.0731 13.2833 30.1513L15.9949 31.3151L10.9788 33.4681Z" fill="#1C75BA"/>
<path d="M52.3664 24.4733L44.9739 21.2997C44.8533 21.248 44.7166 21.2207 44.5773 21.2207C44.4381 21.2207 44.3013 21.248 44.1807 21.2997L36.7936 24.4733C36.673 24.5252 36.5729 24.5997 36.5033 24.6894C36.4337 24.7791 36.397 24.8809 36.397 24.9845V30.97L33.3819 32.2643C33.2303 32.3292 33.1118 32.4295 33.0449 32.5496C32.9779 32.6697 32.9662 32.8028 33.0115 32.9284C33.0569 33.054 33.1568 33.1649 33.2957 33.2439C33.4345 33.3229 33.6046 33.3655 33.7795 33.3652C33.9184 33.3656 34.0549 33.3385 34.175 33.2866L37.1849 31.9954L44.186 35.0008C44.3065 35.0527 44.4433 35.0801 44.5826 35.0801C44.7219 35.0801 44.8587 35.0527 44.9792 35.0008L52.3717 31.8271C52.4916 31.7748 52.5908 31.7 52.6595 31.6101C52.7282 31.5203 52.7639 31.4186 52.763 31.3152V24.9884C52.7639 24.8842 52.7277 24.7816 52.658 24.6911C52.5884 24.6007 52.4877 24.5255 52.3664 24.4733ZM44.5773 22.4918L50.3834 24.9845L44.5773 27.4763L38.7713 24.9884L44.5773 22.4918ZM41.7642 29.3431C41.7122 29.276 41.6429 29.2173 41.5603 29.1701C41.4777 29.123 41.3834 29.0884 41.2828 29.0684C41.1822 29.0484 41.0773 29.0434 40.9741 29.0535C40.8709 29.0637 40.7713 29.0889 40.6812 29.1276L37.9781 30.2891V26.0059L39.6702 26.7333L43.782 28.4986V33.4666L38.7639 31.3129L41.4755 30.1491C41.5656 30.1103 41.6446 30.0586 41.7079 29.9971C41.7712 29.9356 41.8175 29.8654 41.8444 29.7906C41.8712 29.7157 41.8779 29.6377 41.8641 29.5609C41.8504 29.4841 41.8164 29.4101 41.7642 29.3431ZM45.3673 33.4666V28.4986L49.4845 26.7333L51.1766 26.0059V30.974L45.3673 33.4666Z" fill="#1C75BA"/>
</svg>
