<svg width="55" height="56" viewBox="0 0 55 56" fill="none" xmlns="http://www.w3.org/2000/svg">
<path d="M21.6596 46.7909C19.1557 46.7907 16.708 46.026 14.6261 44.5934C12.5443 43.1608 10.9217 41.1246 9.96354 38.7423C9.00541 36.3601 8.75478 33.7387 9.24334 31.2098C9.7319 28.6808 10.9377 26.3579 12.7083 24.5346C14.4789 22.7114 16.7347 21.4698 19.1905 20.9668C21.6463 20.4638 24.1919 20.722 26.5052 21.7088C28.8185 22.6956 30.7957 24.3666 32.1868 26.5105C33.5779 28.6545 34.3204 31.1751 34.3204 33.7536C34.3165 37.2102 32.9814 40.524 30.6078 42.9682C28.2343 45.4123 25.0162 46.7871 21.6596 46.7909ZM21.6596 22.3581C19.4708 22.3581 17.3312 23.0265 15.5113 24.2787C13.6915 25.531 12.273 27.3108 11.4355 29.3932C10.5979 31.4756 10.3788 33.767 10.8058 35.9777C11.2329 38.1883 12.2869 40.2189 13.8346 41.8126C15.3824 43.4064 17.3543 44.4917 19.501 44.9314C21.6477 45.371 23.8728 45.1453 25.895 44.2826C27.9171 43.42 29.6454 41.9592 30.8613 40.0851C32.0773 38.2109 32.7262 36.0075 32.7261 33.7536C32.7227 30.7323 31.5557 27.8357 29.481 25.6994C27.4064 23.5631 24.5935 22.3614 21.6596 22.3581Z" fill="#1C75BA"/>
<path d="M35.8953 29.6887C35.6839 29.6887 35.4812 29.6022 35.3317 29.4483C35.1822 29.2943 35.0982 29.0855 35.0982 28.8678C35.0982 28.6501 35.1822 28.4413 35.3317 28.2874C35.4812 28.1334 35.6839 28.0469 35.8953 28.0469C37.6148 28.0469 39.2957 27.5219 40.7253 26.5381C42.155 25.5544 43.2693 24.1561 43.9273 22.5202C44.5853 20.8843 44.7574 19.0842 44.4219 17.3476C44.0864 15.6109 43.2584 14.0157 42.0425 12.7637C40.8266 11.5117 39.2775 10.6591 37.591 10.3137C35.9046 9.96836 34.1566 10.1457 32.568 10.8234C30.9795 11.5011 29.6218 12.6487 28.6666 14.121C27.7114 15.5933 27.2016 17.3243 27.2017 19.095C27.2017 19.3127 27.1177 19.5215 26.9682 19.6754C26.8187 19.8294 26.616 19.9158 26.4046 19.9158C26.1932 19.9158 25.9904 19.8294 25.8409 19.6754C25.6914 19.5215 25.6074 19.3127 25.6074 19.095C25.6073 16.9996 26.2106 14.9512 27.341 13.2089C28.4713 11.4666 30.0781 10.1086 31.9579 9.30662C33.8378 8.50467 35.9064 8.29478 37.9021 8.7035C39.8978 9.11222 41.731 10.1212 43.1698 11.6028C44.6087 13.0844 45.5885 14.9722 45.9855 17.0273C46.3826 19.0824 46.1789 21.2126 45.4002 23.1485C44.6216 25.0844 43.3029 26.739 41.6111 27.9032C39.9192 29.0673 37.9301 29.6887 35.8953 29.6887Z" fill="#1C75BA"/>
<path d="M22.8449 41.9042C22.6336 41.9039 22.431 41.8173 22.2816 41.6634C22.1322 41.5095 22.0481 41.3009 22.0478 41.0833V39.8616C22.0478 39.7552 22.0068 39.6533 21.9337 39.5781C21.8607 39.5029 21.7617 39.4607 21.6585 39.4607H20.4727C20.4215 39.4606 20.3708 39.4709 20.3235 39.491C20.2762 39.5111 20.2332 39.5407 20.197 39.5779C20.1608 39.6151 20.1321 39.6593 20.1125 39.708C20.0929 39.7567 20.0828 39.8089 20.0828 39.8616V41.0833C20.0857 41.1929 20.0672 41.3021 20.0284 41.4042C19.9897 41.5063 19.9314 41.5995 19.8572 41.678C19.7829 41.7566 19.6941 41.8191 19.596 41.8617C19.4978 41.9044 19.3924 41.9264 19.2859 41.9264C19.1794 41.9264 19.074 41.9044 18.9759 41.8617C18.8778 41.8191 18.789 41.7566 18.7147 41.678C18.6404 41.5995 18.5822 41.5063 18.5434 41.4042C18.5047 41.3021 18.4862 41.1929 18.4891 41.0833V39.8616C18.4891 39.7552 18.4481 39.6533 18.3751 39.5781C18.3021 39.5029 18.2031 39.4607 18.0998 39.4607H16.9134C16.8069 39.4637 16.701 39.4446 16.6018 39.4047C16.5026 39.3648 16.4122 39.3048 16.3359 39.2283C16.2596 39.1519 16.1989 39.0604 16.1575 38.9594C16.1161 38.8583 16.0947 38.7498 16.0947 38.6401C16.0947 38.5304 16.1161 38.4219 16.1575 38.3209C16.1989 38.2198 16.2596 38.1284 16.3359 38.0519C16.4122 37.9754 16.5026 37.9154 16.6018 37.8755C16.701 37.8356 16.8069 37.8166 16.9134 37.8195H18.0998C18.2031 37.8195 18.3021 37.7773 18.3751 37.7021C18.4481 37.6269 18.4891 37.525 18.4891 37.4186V30.0887C18.4891 29.9824 18.4481 29.8804 18.3751 29.8052C18.3021 29.7301 18.2031 29.6878 18.0998 29.6878H16.9134C16.702 29.6878 16.4992 29.6013 16.3497 29.4474C16.2002 29.2934 16.1162 29.0847 16.1162 28.8669C16.1162 28.6492 16.2002 28.4404 16.3497 28.2865C16.4992 28.1325 16.702 28.0461 16.9134 28.0461H18.0998C18.1509 28.0461 18.2016 28.0357 18.2488 28.0155C18.296 27.9954 18.3389 27.9659 18.3751 27.9286C18.4112 27.8914 18.4399 27.8472 18.4595 27.7986C18.479 27.75 18.4891 27.6978 18.4891 27.6452V26.4234C18.4947 26.2096 18.5811 26.0065 18.7299 25.8573C18.8788 25.7082 19.0782 25.6247 19.2859 25.6247C19.4936 25.6247 19.6931 25.7082 19.8419 25.8573C19.9908 26.0065 20.0772 26.2096 20.0828 26.4234V27.6446C20.0828 27.6973 20.0929 27.7495 20.1125 27.7981C20.1321 27.8468 20.1608 27.891 20.197 27.9283C20.2332 27.9655 20.2762 27.995 20.3235 28.0151C20.3708 28.0352 20.4215 28.0455 20.4727 28.0455H21.6585C21.7617 28.0455 21.8607 28.0032 21.9337 27.928C22.0068 27.8529 22.0478 27.7509 22.0478 27.6446V26.4234C22.0478 26.2057 22.1317 25.9969 22.2812 25.843C22.4307 25.689 22.6335 25.6025 22.8449 25.6025C23.0563 25.6025 23.2591 25.689 23.4086 25.843C23.5581 25.9969 23.6421 26.2057 23.6421 26.4234V27.8707C23.6421 27.9535 23.6669 28.0341 23.7132 28.1017C23.7595 28.1693 23.825 28.2205 23.9006 28.2483C24.3367 28.4039 24.734 28.6568 25.0641 28.9889C25.3943 29.321 25.6491 29.724 25.8105 30.1693C25.9718 30.6146 26.0357 31.091 25.9975 31.5647C25.9593 32.0383 25.82 32.4974 25.5896 32.9092C25.5393 32.9987 25.5247 33.1049 25.5489 33.2053C25.573 33.3057 25.6341 33.3926 25.7192 33.4476C26.2981 33.8253 26.7425 34.3862 26.9855 35.0462C27.2285 35.7061 27.257 36.4294 27.0667 37.1074C26.8765 37.7855 26.4778 38.3816 25.9304 38.8064C25.3831 39.2312 24.7167 39.4616 24.0313 39.4631C23.9281 39.4631 23.8291 39.5053 23.7561 39.5805C23.6831 39.6557 23.6421 39.7576 23.6421 39.864V41.0857C23.6411 41.3029 23.5568 41.5109 23.4074 41.6643C23.2581 41.8176 23.0558 41.9039 22.8449 41.9042ZM20.4727 34.5743C20.4215 34.5742 20.3708 34.5845 20.3235 34.6046C20.2762 34.6247 20.2332 34.6542 20.197 34.6915C20.1608 34.7287 20.1321 34.7729 20.1125 34.8216C20.0929 34.8703 20.0828 34.9224 20.0828 34.9751V37.4186C20.0828 37.4713 20.0929 37.5235 20.1125 37.5722C20.1321 37.6209 20.1608 37.6651 20.197 37.7023C20.2332 37.7395 20.2762 37.7691 20.3235 37.7892C20.3708 37.8093 20.4215 37.8196 20.4727 37.8195H24.0313C26.1166 37.8195 26.1142 34.5743 24.0313 34.5743H20.4727ZM20.4727 29.6878C20.4215 29.6878 20.3708 29.6981 20.3235 29.7182C20.2762 29.7383 20.2332 29.7678 20.197 29.805C20.1608 29.8423 20.1321 29.8865 20.1125 29.9352C20.0929 29.9838 20.0828 30.036 20.0828 30.0887V32.5316C20.0828 32.5843 20.0929 32.6365 20.1125 32.6852C20.1321 32.7338 20.1608 32.7781 20.197 32.8153C20.2332 32.8525 20.2762 32.882 20.3235 32.9021C20.3708 32.9223 20.4215 32.9326 20.4727 32.9325H22.8449C24.9307 32.9325 24.9278 29.6878 22.8449 29.6878H20.4727Z" fill="#1C75BA"/>
<path d="M35.099 25.2038C35.0856 25.1439 35.1646 24.7544 34.8253 24.6455C34.3641 24.502 33.9403 24.2529 33.5857 23.9169C33.2312 23.5809 32.955 23.1667 32.7778 22.7052C32.7033 22.5016 32.7103 22.2759 32.7973 22.0776C32.8844 21.8793 33.0444 21.7248 33.2421 21.648C33.4398 21.5712 33.659 21.5784 33.8515 21.6681C34.0441 21.7577 34.1941 21.9225 34.2687 22.126C34.4072 22.439 34.6337 22.702 34.919 22.8808C35.2044 23.0596 35.5352 23.146 35.8688 23.1288C37.3614 23.1288 38.6914 21.1095 35.6039 19.859C31.6181 18.2436 32.1759 14.5663 34.8398 13.5965C35.1844 13.4702 35.0827 13.0753 35.099 12.9874C35.099 12.7697 35.183 12.5609 35.3324 12.4069C35.4819 12.253 35.6847 12.1665 35.8961 12.1665C36.1075 12.1665 36.3103 12.253 36.4598 12.4069C36.6093 12.5609 36.6933 12.7697 36.6933 12.9874C36.7066 13.0472 36.6276 13.4367 36.9669 13.5456C37.4281 13.6891 37.8518 13.9381 38.2064 14.274C38.561 14.6099 38.8372 15.024 39.0144 15.4854C39.0891 15.689 39.0822 15.9149 38.9952 16.1134C38.9082 16.3118 38.7482 16.4665 38.5505 16.5435C38.3527 16.6204 38.1333 16.6133 37.9406 16.5237C37.7479 16.4341 37.5977 16.2694 37.5229 16.0657C36.9756 14.5699 34.3204 14.7638 34.3204 16.5545C34.3204 18.4691 39.0655 18.3854 39.0655 21.6366C39.0602 22.2959 38.8531 22.9367 38.4738 23.4678C38.0944 23.9988 37.562 24.3932 36.9524 24.5947C36.6073 24.7203 36.7095 25.1158 36.6933 25.2038C36.6933 25.4215 36.6093 25.6303 36.4598 25.7842C36.3103 25.9382 36.1075 26.0247 35.8961 26.0247C35.6847 26.0247 35.4819 25.9382 35.3324 25.7842C35.183 25.6303 35.099 25.4215 35.099 25.2038Z" fill="#1C75BA"/>
<path d="M33.466 44.5414C39.8896 44.0627 44.9734 37.7439 44.5667 30.7496C44.5599 30.5359 44.6344 30.3279 44.7742 30.1699C44.914 30.0118 45.1082 29.9162 45.3155 29.9033C45.5227 29.8905 45.7267 29.9614 45.8839 30.101C46.0412 30.2406 46.1393 30.4379 46.1575 30.6509C46.6223 38.6581 40.9825 45.6237 33.5816 46.179C33.3707 46.1947 33.1624 46.1236 33.0024 45.9812C32.8425 45.8388 32.744 45.6369 32.7287 45.4197C32.7133 45.2025 32.7824 44.988 32.9207 44.8233C33.0589 44.6586 33.2551 44.5572 33.466 44.5414Z" fill="#1C75BA"/>
<path d="M9.59644 21.4537C9.95046 17.8973 11.5697 14.6014 14.1423 12.2008C15.5572 10.8671 17.2284 9.85445 19.0476 9.2283C20.8668 8.60216 22.7934 8.37653 24.7027 8.56603C24.9099 8.59078 25.0995 8.6982 25.2307 8.86526C25.3619 9.03231 25.4243 9.24568 25.4044 9.45955C25.3846 9.67343 25.2841 9.87077 25.1245 10.0092C24.965 10.1476 24.7591 10.2162 24.551 10.2C21.308 9.89208 18.0788 10.9218 15.5723 13.0633C13.0658 15.2047 11.4869 18.2828 11.182 21.6218C11.1564 21.835 11.0507 22.0294 10.8875 22.1632C10.7244 22.2971 10.5167 22.3597 10.3092 22.3377C10.1017 22.3157 9.91089 22.2108 9.77762 22.0455C9.64436 21.8803 9.57932 21.6678 9.59644 21.4537Z" fill="#1C75BA"/>
</svg>
