<svg width="55" height="56" viewBox="0 0 55 56" fill="none" xmlns="http://www.w3.org/2000/svg">
<path fill-rule="evenodd" clip-rule="evenodd" d="M14.424 26.1833C15.1453 26.1833 15.7323 26.7708 15.7323 27.492C15.7323 28.2132 15.1453 28.8002 14.424 28.8002C13.7028 28.8002 13.1163 28.2133 13.1163 27.492C13.1163 26.7707 13.7028 26.1833 14.424 26.1833ZM22.8577 17.8577C23.5789 17.8577 24.1654 18.4447 24.1654 19.1658C24.1654 19.8871 23.579 20.4746 22.8577 20.4746C22.136 20.4746 21.5495 19.8871 21.5495 19.1658C21.5495 18.4447 22.136 17.8577 22.8577 17.8577ZM31.3014 26.1833C32.0226 26.1833 32.6095 26.7708 32.6095 27.492C32.6095 28.2132 32.0226 28.8002 31.3014 28.8002C30.5801 28.8002 29.9931 28.2133 29.9931 27.492C29.9931 26.7707 30.5801 26.1833 31.3014 26.1833ZM39.734 17.8577C40.4552 17.8577 41.0422 18.4447 41.0422 19.1658C41.0422 19.8871 40.4552 20.4746 39.734 20.4746C39.0128 20.4746 38.4257 19.8871 38.4257 19.1658C38.4258 18.4447 39.0128 17.8577 39.734 17.8577ZM14.424 30.0092C16.3851 30.0092 17.5773 27.8623 16.5871 26.2057L21.5437 21.3117C22.3497 21.8076 23.3664 21.8081 24.1722 21.3112L29.1372 26.2073C28.1492 27.8678 29.344 30.0092 31.3014 30.0092C33.2565 30.0092 34.4568 27.8705 33.464 26.2057L38.4201 21.3117C40.0851 22.3347 42.2507 21.1352 42.2507 19.1658C42.2507 17.7782 41.1216 16.6491 39.734 16.6491C37.7793 16.6491 36.5784 18.7871 37.5714 20.4521L32.6148 25.346C31.809 24.8495 30.7916 24.8503 29.9858 25.3466L25.0209 20.4505C26.0109 18.7904 24.815 16.6491 22.8578 16.6491C20.9039 16.6491 19.7025 18.7846 20.6946 20.4521L15.738 25.346C14.077 24.324 11.9074 25.5196 11.9074 27.4919C11.9073 28.8796 13.0364 30.0092 14.424 30.0092ZM37.7672 42.2443V25.5085H41.7336V42.2443H37.7672ZM29.3294 42.2443V33.2153H33.2952V42.2444L29.3294 42.2443ZM20.891 42.2443V26.9713H24.8579V42.2443H20.891ZM12.4536 42.2443V35.0154H16.4195V42.2443H12.4536ZM17.6285 39.7705H19.6819V42.2443H17.6285V39.7705ZM26.0669 39.7705H28.1203V42.2443H26.0669V39.7705ZM34.5043 39.7705H36.5583V42.2443H34.5043V39.7705ZM10.3265 38.5615H11.2445V34.4112C11.2445 34.0775 11.5156 33.8064 11.8488 33.8064H17.0242C17.3574 33.8064 17.6285 34.0775 17.6285 34.4112V38.5615H19.6819V26.367C19.6819 26.0322 19.953 25.7623 20.2867 25.7623H25.4622C25.7959 25.7623 26.067 26.0322 26.067 26.367V38.5614H28.1204V32.6104C28.1204 32.2767 28.3909 32.0062 28.7247 32.0062H33.8996C34.2344 32.0062 34.5044 32.2767 34.5044 32.6104V38.5614H36.5583V24.9042C36.5583 24.5705 36.8294 24.3 37.1631 24.3H42.3381C42.6718 24.3 42.9428 24.5705 42.9428 24.9042V38.5614H43.8605C44.7221 38.5614 45.4235 37.8606 45.4235 36.9984V14.2719C45.4235 13.4107 44.7221 12.7088 43.8605 12.7088H10.3265C9.46524 12.7088 8.7629 13.4107 8.7629 14.2719V36.9984C8.7629 37.8606 9.46524 38.5615 10.3265 38.5615ZM46.4365 42.2443H42.9427V39.7705H43.8603C45.3884 39.7705 46.6324 38.527 46.6324 36.9984V14.2719C46.6324 12.7433 45.3884 11.4998 43.8603 11.4998H10.3265C8.7984 11.4998 7.55439 12.7433 7.55439 14.2719V36.9984C7.55439 38.527 8.7984 39.7705 10.3265 39.7705H11.2445V42.2443H7.75074C7.41701 42.2443 7.14648 42.5148 7.14648 42.8485C7.14648 43.1828 7.41701 43.4533 7.75074 43.4533H46.4365C46.7696 43.4533 47.0407 43.1828 47.0407 42.8485C47.0408 42.5148 46.7697 42.2443 46.4365 42.2443Z" fill="#1C75BA"/>
<path fill-rule="evenodd" clip-rule="evenodd" d="M14.2775 26.5124C14.9988 26.5124 15.5858 27.0999 15.5858 27.8211C15.5858 28.5423 14.9988 29.1294 14.2775 29.1294C13.5563 29.1294 12.9699 28.5424 12.9699 27.8211C12.9699 27.0998 13.5563 26.5124 14.2775 26.5124ZM22.7112 18.1868C23.4324 18.1868 24.0189 18.7738 24.0189 19.4949C24.0189 20.2162 23.4325 20.8037 22.7112 20.8037C21.9895 20.8037 21.403 20.2162 21.403 19.4949C21.403 18.7738 21.9895 18.1868 22.7112 18.1868ZM31.1549 26.5124C31.8761 26.5124 32.4631 27.0999 32.4631 27.8211C32.4631 28.5423 31.8761 29.1294 31.1549 29.1294C30.4336 29.1294 29.8466 28.5424 29.8466 27.8211C29.8466 27.0998 30.4336 26.5124 31.1549 26.5124ZM39.5875 18.1868C40.3087 18.1868 40.8957 18.7738 40.8957 19.4949C40.8957 20.2162 40.3087 20.8037 39.5875 20.8037C38.8663 20.8037 38.2792 20.2162 38.2792 19.4949C38.2793 18.7738 38.8663 18.1868 39.5875 18.1868ZM14.2775 30.3383C16.2386 30.3383 17.4308 28.1914 16.4406 26.5348L21.3973 21.6408C22.2032 22.1367 23.2199 22.1372 24.0257 21.6403L28.9907 26.5364C28.0027 28.1969 29.1975 30.3383 31.1549 30.3383C33.11 30.3383 34.3103 28.1996 33.3175 26.5348L38.2736 21.6408C39.9386 22.6638 42.1042 21.4643 42.1042 19.4949C42.1042 18.1073 40.9751 16.9782 39.5875 16.9782C37.6329 16.9782 36.4319 19.1162 37.4249 20.7812L32.4683 25.6751C31.6625 25.1786 30.6451 25.1794 29.8394 25.6757L24.8744 20.7796C25.8644 19.1195 24.6685 16.9782 22.7113 16.9782C20.7574 16.9782 19.556 19.1137 20.5482 20.7812L15.5915 25.6751C13.9305 24.6531 11.7609 25.8487 11.7609 27.821C11.7608 29.2087 12.8899 30.3383 14.2775 30.3383ZM37.6207 42.5734V25.8376H41.5871V42.5734H37.6207ZM29.1829 42.5734V33.5444H33.1488V42.5735L29.1829 42.5734ZM20.7445 42.5734V27.3004H24.7114V42.5734H20.7445ZM12.3071 42.5734V35.3445H16.273V42.5734H12.3071ZM17.482 40.0996H19.5355V42.5734H17.482V40.0996ZM25.9204 40.0996H27.9738V42.5734H25.9204V40.0996ZM34.3578 40.0996H36.4118V42.5734H34.3578V40.0996ZM10.18 38.8906H11.098V34.7403C11.098 34.4066 11.3691 34.1355 11.7023 34.1355H16.8778C17.2109 34.1355 17.482 34.4066 17.482 34.7403V38.8906H19.5355V26.6961C19.5355 26.3613 19.8065 26.0914 20.1402 26.0914H25.3157C25.6494 26.0914 25.9205 26.3613 25.9205 26.6961V38.8905H27.9739V32.9395C27.9739 32.6058 28.2444 32.3353 28.5782 32.3353H33.7531C34.0879 32.3353 34.3579 32.6058 34.3579 32.9395V38.8905H36.4119V25.2333C36.4119 24.8996 36.6829 24.6291 37.0166 24.6291H42.1916C42.5253 24.6291 42.7964 24.8996 42.7964 25.2333V38.8905H43.714C44.5756 38.8905 45.277 38.1897 45.277 37.3275V14.601C45.277 13.7398 44.5756 13.0379 43.714 13.0379H10.18C9.31875 13.0379 8.61642 13.7398 8.61642 14.601V37.3275C8.61642 38.1897 9.31875 38.8906 10.18 38.8906ZM46.2901 42.5734H42.7962V40.0996H43.7138C45.2419 40.0996 46.4859 38.8561 46.4859 37.3275V14.601C46.4859 13.0724 45.2419 11.8289 43.7138 11.8289H10.18C8.65191 11.8289 7.40791 13.0724 7.40791 14.601V37.3275C7.40791 38.8561 8.65191 40.0996 10.18 40.0996H11.098V42.5734H7.60425C7.27052 42.5734 7 42.8439 7 43.1777C7 43.5119 7.27052 43.7824 7.60425 43.7824H46.29C46.6232 43.7824 46.8942 43.5119 46.8942 43.1777C46.8943 42.8439 46.6232 42.5734 46.2901 42.5734Z" fill="#1C75BA"/>
</svg>
