<svg width="55" height="56" viewBox="0 0 55 56" fill="none" xmlns="http://www.w3.org/2000/svg">
<path d="M41.9452 27.6272H43.4348C43.5984 27.6246 43.7544 27.5578 43.8692 27.4412C43.984 27.3245 44.0483 27.1674 44.0483 27.0038C44.0483 26.8402 43.984 26.6831 43.8692 26.5664C43.7544 26.4498 43.5984 26.383 43.4347 26.3804H40.4469C40.2815 26.3804 40.123 26.4461 40.0061 26.563C39.8892 26.6799 39.8235 26.8385 39.8235 27.0038V29.9917C39.8261 30.1553 39.8929 30.3114 40.0095 30.4262C40.1262 30.541 40.2832 30.6053 40.4469 30.6053C40.6105 30.6053 40.7676 30.5409 40.8842 30.4261C41.0009 30.3113 41.0677 30.1553 41.0703 29.9917V28.516C42.7685 30.2551 43.7136 32.593 43.7008 35.0237C43.6881 37.4544 42.7185 39.7823 41.0021 41.5034C31.9759 49.8105 19.6357 37.4588 27.9392 28.4405C29.9024 26.4729 31.0049 23.807 31.0049 21.0275C31.0049 18.2481 29.9024 15.5822 27.9392 13.6146C17.7483 4.22447 3.74654 18.0981 13.0517 28.3724L11.5621 28.3724C11.3985 28.375 11.2424 28.4418 11.1276 28.5584C11.0129 28.675 10.9485 28.8321 10.9485 28.9958C10.9485 29.1594 11.0129 29.3165 11.1277 29.4331C11.2425 29.5497 11.3985 29.6166 11.5622 29.6191H14.55C14.7154 29.6191 14.8739 29.5534 14.9908 29.4365C15.1077 29.3196 15.1734 29.1611 15.1734 28.9957V26.0079C15.1708 25.8442 15.104 25.6882 14.9874 25.5734C14.8707 25.4586 14.7136 25.3943 14.55 25.3943C14.3864 25.3943 14.2293 25.4586 14.1126 25.5734C13.996 25.6882 13.9292 25.8443 13.9266 26.0079V27.4835C5.75876 18.4298 18.0828 6.22754 27.0578 14.4962C28.7874 16.2298 29.7587 18.5787 29.7586 21.0276C29.7586 23.4765 28.7873 25.8254 27.0577 27.559C25.0945 29.5266 23.992 32.1925 23.992 34.972C23.992 37.7514 25.0945 40.4174 27.0577 42.3849C37.2492 51.7765 51.25 37.9004 41.9452 27.6272Z" fill="#1C75BA"/>
<path d="M25.0944 26.3038L25.7963 25.6018C26.0053 25.3924 26.1228 25.1086 26.1228 24.8127C26.1228 24.5168 26.0053 24.233 25.7963 24.0236L25.4195 23.6464C25.8187 22.8963 26.0417 22.0651 26.0715 21.2159L26.5898 21.0762C26.8751 20.9991 27.1182 20.8121 27.2659 20.5562C27.4136 20.3002 27.4538 19.9962 27.3779 19.7107L27.1216 18.7504C27.0438 18.4652 26.8567 18.2222 26.6007 18.0742C26.3448 17.9263 26.0409 17.8853 25.7549 17.9602L25.2399 18.0981C24.7909 17.3764 24.1825 16.7673 23.4613 16.3174L23.6001 15.7999C23.6755 15.514 23.6348 15.21 23.487 14.9539C23.3393 14.6978 23.0964 14.5105 22.8112 14.4326L21.8502 14.1754C21.5643 14.0992 21.26 14.1395 21.0038 14.2874C20.7476 14.4353 20.5605 14.6787 20.4835 14.9643L20.345 15.4812C19.4954 15.5087 18.6634 15.7305 17.9129 16.1296L17.5342 15.7509C17.3247 15.5418 17.0409 15.4244 16.7449 15.4244C16.449 15.4244 16.1651 15.5418 15.9557 15.7509L15.2538 16.4528C15.0447 16.6622 14.9273 16.946 14.9273 17.2419C14.9273 17.5378 15.0447 17.8216 15.2538 18.0311L15.6309 18.4082C15.2314 19.1582 15.0083 19.9895 14.9786 20.8387L14.4599 20.9787C14.1748 21.056 13.932 21.243 13.7844 21.4988C13.6367 21.7546 13.5964 22.0585 13.6721 22.3439L13.9285 23.3043C14.0062 23.5895 14.1934 23.8325 14.4493 23.9804C14.7052 24.1284 15.0092 24.1694 15.2952 24.0945L15.8102 23.9566C16.2592 24.6783 16.8676 25.2875 17.5887 25.7376L17.4499 26.2548C17.3746 26.5407 17.4153 26.8448 17.5631 27.1009C17.711 27.3569 17.9539 27.5443 18.2392 27.6221C18.7511 27.7179 19.5542 28.1241 20.0464 27.7681C20.4848 27.5539 20.5996 27.0031 20.7053 26.5737C21.5548 26.5462 22.3867 26.3243 23.1371 25.9251L23.5161 26.3038C23.7255 26.5128 24.0093 26.6302 24.3052 26.6302C24.6011 26.6302 24.885 26.5128 25.0944 26.3038ZM22.8915 24.622C22.1158 25.1326 21.1955 25.378 20.2686 25.3212C19.5721 25.2627 19.5536 26.182 19.3962 26.6413L18.6879 26.4517C18.7844 25.9698 19.2215 25.1738 18.5948 24.8734C17.7646 24.457 17.0916 23.7829 16.6765 22.9521C16.378 22.323 15.5759 22.7615 15.0994 22.8562L14.9104 22.1485C15.3792 21.9873 16.279 21.9735 16.2296 21.2774C16.1759 20.3498 16.4229 19.4297 16.934 18.6538C17.3292 18.0858 16.5456 17.6028 16.2278 17.2418L16.745 16.7246L17.3738 17.3535C17.4755 17.4551 17.6091 17.5184 17.7521 17.5328C17.8951 17.5472 18.0386 17.5118 18.1585 17.4326C18.9339 16.921 19.8547 16.6757 20.7818 16.7337C21.4855 16.7823 21.4927 15.8794 21.6539 15.4133L22.3622 15.6029C22.2657 16.0849 21.8288 16.8802 22.455 17.1812C23.2853 17.5975 23.9585 18.2716 24.3736 19.1025C24.6745 19.733 25.4729 19.2927 25.9506 19.1984L26.1396 19.9061C25.671 20.0672 24.771 20.0812 24.8204 20.7773C24.8741 21.7047 24.6272 22.6248 24.1164 23.4008C23.7215 23.9686 24.5045 24.4517 24.8222 24.8126L24.3051 25.3297C23.9413 25.0076 23.4575 24.228 22.8915 24.622Z" fill="#1C75BA"/>
<path d="M18.341 18.844C15.5375 21.7998 19.7544 26.0154 22.7088 23.2116C25.5127 20.2565 21.2958 16.0406 18.341 18.844ZM21.8272 22.3302C21.4806 22.6697 21.014 22.8588 20.5288 22.8562C20.0436 22.8537 19.579 22.6599 19.2359 22.3168C18.8928 21.9737 18.699 21.5091 18.6965 21.0239C18.694 20.5387 18.883 20.0721 19.2226 19.7255C19.5692 19.3861 20.0357 19.1972 20.5209 19.1997C21.006 19.2023 21.4705 19.3962 21.8135 19.7392C22.1566 20.0822 22.3504 20.5468 22.353 21.0319C22.3555 21.517 22.1666 21.9836 21.8272 22.3302Z" fill="#1C75BA"/>
<path d="M29.9011 29.6077L29.1992 30.3097C28.9902 30.5191 28.8728 30.8029 28.8728 31.0988C28.8728 31.3947 28.9902 31.6785 29.1992 31.8879L29.576 32.2651C29.1768 33.0152 28.9538 33.8464 28.924 34.6956L28.4057 34.8353C28.1204 34.9124 27.8773 35.0994 27.7297 35.3553C27.582 35.6113 27.5417 35.9153 27.6176 36.2008L27.8739 37.1612C27.9517 37.4464 28.1389 37.6893 28.3948 37.8373C28.6507 37.9852 28.9547 38.0262 29.2406 37.9513L29.7556 37.8135C30.2046 38.5351 30.8131 39.1443 31.5342 39.5942L31.3954 40.1116C31.3201 40.3975 31.3607 40.7016 31.5085 40.9576C31.6562 41.2137 31.8991 41.4011 32.1843 41.4789L33.1453 41.7362C33.4311 41.8117 33.7352 41.7712 33.9913 41.6234C34.2473 41.4756 34.4345 41.2325 34.512 40.9472L34.6505 40.4303C35.5001 40.4029 36.3321 40.1811 37.0826 39.782L37.4613 40.1606C37.6708 40.3697 37.9546 40.4871 38.2506 40.4871C38.5465 40.4871 38.8304 40.3697 39.0399 40.1606L39.7418 39.4587C39.9508 39.2493 40.0682 38.9655 40.0682 38.6696C40.0682 38.3737 39.9508 38.0899 39.7418 37.8804L39.3646 37.5033C39.7641 36.7533 39.9872 35.922 40.017 35.0728L40.5356 34.9328C40.8207 34.8555 41.0636 34.6685 41.2112 34.4127C41.3588 34.1569 41.3991 33.853 41.3234 33.5676L41.0671 32.6072C40.9893 32.322 40.8021 32.079 40.5462 31.931C40.2903 31.7831 39.9863 31.7421 39.7004 31.817L39.1854 31.9549C38.7363 31.2332 38.1279 30.624 37.4068 30.1739C37.5086 29.9616 37.5638 29.73 37.5685 29.4946C37.5732 29.2592 37.5274 29.0255 37.4342 28.8093C37.3612 28.6821 37.2637 28.5707 37.1474 28.4814C37.031 28.3922 36.8981 28.3269 36.7563 28.2894C36.245 28.1939 35.4402 27.7878 34.9492 28.1434C34.5107 28.3575 34.3959 28.9085 34.2902 29.3377C33.4407 29.3653 32.6088 29.5872 31.8584 29.9864L31.4794 29.6077C31.27 29.3987 30.9862 29.2813 30.6903 29.2813C30.3944 29.2813 30.1106 29.3987 29.9011 29.6077ZM32.104 31.2895C32.8794 30.7783 33.8 30.5329 34.7269 30.5903C35.4238 30.6485 35.4417 29.7296 35.5993 29.2702L36.3076 29.4598C36.2111 29.9417 35.774 30.7378 36.4008 31.0381C37.2309 31.4545 37.9039 32.1286 38.319 32.9594C38.6187 33.5901 39.4186 33.1496 39.8961 33.0553L40.0851 33.763C39.6163 33.9242 38.7165 33.9379 38.7659 34.6342C38.8196 35.5617 38.5726 36.4818 38.0615 37.2577C37.6664 37.8257 38.4499 38.3087 38.7677 38.6698L38.2505 39.1869L37.6217 38.558C37.5202 38.4562 37.3865 38.3927 37.2435 38.3783C37.1004 38.3639 36.9568 38.3994 36.837 38.4789C36.061 38.989 35.1407 39.2342 34.2137 39.1778C33.5169 39.1148 33.4992 40.0407 33.3417 40.4982L32.6333 40.3086C32.7298 39.8266 33.1667 39.0313 32.5405 38.7303C31.7102 38.314 31.037 37.6399 30.6219 36.809C30.3231 36.1804 29.5214 36.6182 29.0449 36.7131L28.8559 36.0054C29.3245 35.8443 30.2246 35.8303 30.1751 35.1342C30.1214 34.2068 30.3683 33.2867 30.8791 32.5107C31.274 31.9429 30.491 31.4598 30.1733 31.099L30.6904 30.5818C31.0547 30.904 31.5372 31.6836 32.104 31.2895Z" fill="#1C75BA"/>
<path d="M34.4703 38.0582C34.9781 38.0582 35.478 37.933 35.9259 37.6936C36.3737 37.4542 36.7556 37.1081 37.0377 36.6858C37.3198 36.2636 37.4934 35.7783 37.5432 35.2729C37.5929 34.7676 37.5173 34.2578 37.3229 33.7886C37.1285 33.3195 36.8214 32.9055 36.4289 32.5834C36.0363 32.2613 35.5703 32.041 35.0723 31.942C34.5742 31.8431 34.0594 31.8684 33.5735 32.0159C33.0876 32.1634 32.6456 32.4285 32.2866 32.7876C31.8624 33.2223 31.5751 33.772 31.4603 34.3684C31.3454 34.9648 31.4082 35.5818 31.6406 36.1429C31.8731 36.704 32.2651 37.1846 32.7681 37.525C33.2711 37.8655 33.8629 38.0508 34.4703 38.0582ZM33.1681 33.6692C33.5147 33.3297 33.9813 33.1407 34.4664 33.1433C34.9516 33.1458 35.4161 33.3397 35.7592 33.6827C36.1023 34.0258 36.2961 34.4904 36.2986 34.9755C36.3012 35.4607 36.1122 35.9272 35.7727 36.2739C35.4261 36.6133 34.9595 36.8023 34.4743 36.7998C33.9892 36.7972 33.5246 36.6034 33.1816 36.2603C32.8385 35.9172 32.6447 35.4527 32.6421 34.9675C32.6396 34.4824 32.8286 34.0158 33.1681 33.6692Z" fill="#1C75BA"/>
</svg>
