<svg width="55" height="55" viewBox="0 0 55 55" fill="none" xmlns="http://www.w3.org/2000/svg">
<g clip-path="url(#clip0_160_7026)">
<path d="M33.654 20.7205C29.7504 14.9775 24.5367 11.9252 21.8063 13.7954C21.5057 14.0071 21.2444 14.2699 21.0344 14.5717C21.0344 14.5938 14.7136 27.3854 14.7136 27.3854L11.1849 29.7761C10.6432 30.1438 10.1792 30.6147 9.81954 31.1618C9.45984 31.7088 9.21146 32.3214 9.08858 32.9645C8.96569 33.6076 8.97071 34.2686 9.10335 34.9098C9.236 35.5509 9.49366 36.1597 9.86162 36.7012L10.0204 36.935C10.7642 38.0184 11.9051 38.765 13.1957 39.0127C14.4864 39.2604 15.8226 38.9893 16.9147 38.2583L22.5827 46.6081C23.4163 47.6358 25.0175 48.6592 26.9936 47.455C27.3436 47.228 27.6423 46.9302 27.8702 46.5807C28.0981 46.2312 28.2503 45.8379 28.3168 45.426C28.3967 45.0163 28.3945 44.5949 28.3105 44.186C28.2264 43.7772 28.0622 43.3891 27.8272 43.0441L22.8341 35.6779C22.8341 35.6779 34.6377 34.7384 34.6818 34.7207C35.0503 34.6436 35.3997 34.4936 35.7095 34.2796C37.1122 33.3269 37.615 31.3287 37.1298 28.6513C36.6931 26.1856 35.4537 23.3935 33.654 20.7205ZM11.304 36.066L11.1452 35.8323C10.8913 35.4585 10.7136 35.0384 10.6224 34.5959C10.5311 34.1534 10.5279 33.6972 10.6131 33.2535C10.6984 32.8098 10.8703 32.3872 11.119 32.01C11.3677 31.6328 11.6884 31.3084 12.0627 31.0553L15.1106 28.9821L19.1333 34.906L16.0854 36.9791C15.7116 37.2333 15.2913 37.4113 14.8486 37.503C14.4059 37.5947 13.9495 37.5983 13.5055 37.5135C13.0614 37.4287 12.6384 37.2572 12.2607 37.0088C11.8829 36.7605 11.5578 36.4401 11.304 36.066ZM26.5569 43.913C26.798 44.2717 26.8869 44.7114 26.8042 45.1356C26.7215 45.5598 26.474 45.9339 26.1158 46.1758C25.7564 46.4171 25.316 46.5062 24.8911 46.4235C24.4662 46.3409 24.0913 46.0932 23.8486 45.7347L18.1982 37.4114L20.4698 35.8676L21.0697 35.819L26.5569 43.913ZM20.5933 34.3061L16.2089 27.8485L20.3904 19.3223C20.7962 21.7174 21.9828 24.5624 23.8795 27.3545C25.7762 30.1466 27.9816 32.2991 30.0547 33.5606L20.5933 34.3061ZM33.6055 33.2784C31.4971 33.1416 28.0654 30.7641 25.1586 26.4811C22.2518 22.1982 21.3079 18.1445 21.9563 16.1288C22.0734 15.7504 22.3071 15.4187 22.6239 15.181C22.9408 14.9434 23.3247 14.812 23.7207 14.8055C25.8114 14.8055 29.371 17.1962 32.3616 21.6027C34.0466 24.0816 35.2728 26.6752 35.6081 28.9424C36.2653 33.2784 33.6055 33.2784 33.6055 33.2784Z" fill="#1C75BA"/>
<path d="M28.1404 20.8841C27.6001 20.778 27.044 20.7807 26.5048 20.8921C25.9655 21.0034 25.4539 21.2211 24.9998 21.5325C24.9161 21.5905 24.8446 21.6643 24.7895 21.7499C24.7343 21.8354 24.6965 21.931 24.6783 22.0311C24.6601 22.1313 24.6617 22.234 24.6832 22.3335C24.7047 22.433 24.7456 22.5273 24.8035 22.611C24.8614 22.6947 24.9353 22.7662 25.0208 22.8213C25.1064 22.8765 25.2019 22.9143 25.3021 22.9325C25.4022 22.9507 25.505 22.9491 25.6045 22.9276C25.704 22.9061 25.7983 22.8652 25.882 22.8073C26.1696 22.6121 26.4928 22.4754 26.8332 22.4052C27.1736 22.3349 27.5245 22.3323 27.8659 22.3976C28.2073 22.463 28.5325 22.5949 28.8229 22.7859C29.1133 22.9769 29.3633 23.2232 29.5585 23.5108C29.7537 23.7984 29.8903 24.1217 29.9606 24.4621C30.0309 24.8025 30.0335 25.1534 29.9681 25.4948C29.9028 25.8362 29.7709 26.1614 29.5799 26.4518C29.3889 26.7422 29.1425 26.9921 28.8549 27.1873C28.7193 27.281 28.6172 27.4156 28.5636 27.5714C28.51 27.7272 28.5077 27.8961 28.557 28.0534C28.6063 28.2107 28.7046 28.348 28.8376 28.4453C28.9706 28.5427 29.1312 28.5949 29.296 28.5944C29.4532 28.5974 29.6075 28.5511 29.7371 28.4621C30.4232 27.9973 30.9559 27.3394 31.2677 26.5717C31.5795 25.8039 31.6565 24.9609 31.4888 24.1494C31.3211 23.3378 30.9163 22.5944 30.3257 22.0131C29.7351 21.4318 28.9853 21.0389 28.1712 20.8841H28.1404Z" fill="#1C75BA"/>
<path d="M34.6072 15.3529H34.6822C34.8731 15.3528 35.0572 15.282 35.199 15.1541C35.3407 15.0262 35.4301 14.8503 35.4497 14.6603L36.0452 8.87324C36.0587 8.77091 36.0516 8.6669 36.0242 8.56737C35.9969 8.46783 35.9499 8.37479 35.8859 8.29376C35.822 8.21272 35.7424 8.14533 35.652 8.09558C35.5615 8.04583 35.462 8.01472 35.3594 8.0041C35.2567 7.99348 35.1529 8.00356 35.0542 8.03374C34.9555 8.06393 34.8638 8.1136 34.7847 8.17984C34.7055 8.24607 34.6404 8.3275 34.5933 8.41933C34.5461 8.51116 34.5179 8.61151 34.5102 8.71445L33.9191 14.506C33.8981 14.7095 33.9588 14.913 34.0879 15.0718C34.2169 15.2306 34.4037 15.3317 34.6072 15.3529Z" fill="#1C75BA"/>
<path d="M44.5844 14.1616C44.471 13.9908 44.2947 13.8717 44.0939 13.8304C43.8931 13.7891 43.6841 13.8289 43.5125 13.9411L38.1356 17.4698C37.996 17.562 37.8901 17.6971 37.8339 17.8546C37.7777 18.0122 37.7742 18.1838 37.824 18.3435C37.8738 18.5033 37.9741 18.6425 38.1098 18.7403C38.2456 18.8381 38.4095 18.8891 38.5767 18.8857C38.7328 18.8893 38.8863 18.8463 39.0178 18.7622L44.3947 15.2335C44.5615 15.1161 44.6751 14.9375 44.7106 14.7367C44.7462 14.5358 44.7008 14.3291 44.5844 14.1616Z" fill="#1C75BA"/>
<path d="M46.2289 23.5833L39.9743 22.4585C39.7725 22.4222 39.5645 22.4676 39.3962 22.5846C39.2279 22.7017 39.1129 22.8808 39.0766 23.0826C39.0404 23.2844 39.0858 23.4924 39.2028 23.6607C39.3199 23.829 39.499 23.944 39.7008 23.9802L45.951 25.105H46.0878C46.2845 25.1108 46.4759 25.0412 46.623 24.9105C46.7701 24.7798 46.8617 24.5979 46.8792 24.4019C46.8967 24.206 46.8386 24.0107 46.7169 23.8561C46.5952 23.7015 46.4191 23.5991 46.2245 23.57L46.2289 23.5833Z" fill="#1C75BA"/>
</g>
<defs>
<clipPath id="clip0_160_7026">
<rect width="55" height="55" fill="white"/>
</clipPath>
</defs>
</svg>
