<svg width="55" height="55" viewBox="0 0 55 55" fill="none" xmlns="http://www.w3.org/2000/svg">
<path d="M6.27416 29.6137C5.40037 29.4719 4.72443 28.7714 4.61407 27.893C4.46735 26.5627 4.46587 25.2203 4.60978 23.8896C4.71008 22.9976 5.39017 22.2806 6.27557 22.1333L8.54267 21.7622C8.97792 19.9083 9.71266 18.1378 10.7178 16.5205L9.38341 14.6566C8.85166 13.9356 8.86453 12.949 9.41478 12.242C9.83947 11.7224 10.2914 11.2256 10.7685 10.7536C11.206 10.3154 11.6897 9.87509 12.2704 9.38709C12.9717 8.84775 13.9449 8.83649 14.6586 9.35931L16.5317 10.703C18.1474 9.69798 19.9162 8.96303 21.7684 8.52715L22.1403 6.25647C22.2817 5.38239 22.9824 4.7061 23.861 4.59567C24.2671 4.55009 24.6797 4.51802 25.095 4.50093H25.1556C25.5269 4.50121 25.884 4.64406 26.153 4.89995C26.4327 5.16723 26.5906 5.53756 26.5897 5.92448V11.6343C26.5855 12.3972 25.9833 13.0227 25.221 13.0557C18.4017 13.4117 13.0549 19.0448 13.0549 25.8735C13.0549 32.7022 18.4017 38.3353 25.221 38.6914C25.9845 38.7248 26.587 39.3521 26.5897 40.1163V45.8232C26.5908 46.2106 26.4327 46.5813 26.1522 46.8485C25.8723 47.1231 25.4901 47.2681 25.0984 47.2482C24.6838 47.2318 24.2727 47.2019 23.8509 47.1591C22.9728 47.046 22.2755 46.3655 22.1409 45.4905L21.7697 43.222C19.9175 42.7858 18.1487 42.0506 16.533 41.0454L14.6599 42.3863C13.9396 42.913 12.957 42.8974 12.2539 42.3478C11.7374 41.925 11.243 41.4758 10.7727 41.0019C10.288 40.5281 9.83174 40.0261 9.4062 39.4986C8.86256 38.7964 8.84864 37.8193 9.37201 37.1018L10.715 35.2266C9.71069 33.6094 8.97693 31.8391 8.54267 29.9855L6.27416 29.6137ZM9.8316 29.2161C10.2458 31.2285 11.0405 33.1432 12.1728 34.8575C12.3351 35.104 12.3286 35.425 12.1564 35.6648L10.5313 37.934C10.3811 38.1322 10.3767 38.405 10.5206 38.608C10.9111 39.092 11.3301 39.5523 11.7753 39.9867C12.2077 40.4235 12.6619 40.8382 13.1361 41.2292C13.3402 41.3848 13.6231 41.3848 13.8272 41.2292L16.0929 39.6033C16.3329 39.4316 16.6539 39.4257 16.9002 39.5884C18.613 40.7211 20.5267 41.5161 22.538 41.9303C22.8272 41.9899 23.0497 42.2217 23.0974 42.5131L23.5455 45.2569C23.5777 45.503 23.7667 45.6992 24.0115 45.7407C24.3883 45.7798 24.7702 45.8076 25.165 45.8233L25.1493 40.1157C17.5639 39.7283 11.6137 33.4629 11.6179 25.8676C11.622 18.2723 17.5792 12.0135 25.165 11.6344L25.155 5.92462C24.7724 5.9403 24.3934 5.9702 24.0193 6.01226C23.7734 6.0482 23.5807 6.24205 23.5462 6.48823L23.0974 9.23341C23.0497 9.52481 22.8273 9.75658 22.538 9.81622C20.5267 10.2308 18.613 11.0259 16.9002 12.1589C16.6538 12.3213 16.3328 12.3151 16.0929 12.1432L13.8251 10.5159C13.6317 10.3655 13.363 10.3582 13.1618 10.4981C12.6381 10.9391 12.1842 11.353 11.7753 11.7613C11.3384 12.193 10.9239 12.6466 10.5334 13.1207C10.3797 13.326 10.3797 13.6079 10.5334 13.8133L12.1571 16.0804C12.329 16.3202 12.3353 16.6412 12.1728 16.8876C11.0404 18.6016 10.2457 20.5162 9.8316 22.5283C9.77209 22.8172 9.54061 23.0396 9.24949 23.0876L6.50642 23.5372C6.25109 23.5794 6.05507 23.7865 6.02693 24.0438C5.8935 25.2692 5.89491 26.5057 6.03122 27.7308C6.06667 27.9769 6.26024 28.1702 6.50642 28.2053L9.24871 28.6542C9.54096 28.702 9.77301 28.9258 9.8316 29.2161Z" fill="#1C75BA"/>
<path d="M45.1147 28.0103C44.2121 28.0065 43.4092 27.4363 43.1083 26.5853H26.5902V28.7228H37.9899C39.1703 28.7228 40.1273 29.6797 40.1273 30.8602V34.5537C41.1088 34.9006 41.6975 35.9043 41.5214 36.9303C41.3454 37.9563 40.4557 38.7063 39.4148 38.7063C38.3738 38.7063 37.4842 37.9563 37.3081 36.9303C37.132 35.9043 37.7208 34.9006 38.7022 34.5537V30.8602C38.7022 30.4667 38.3833 30.1477 37.9897 30.1477H26.5902V32.2851H34.4275C34.8209 32.2851 35.1399 32.6041 35.1399 32.9977C35.1399 33.3912 34.8209 33.7102 34.4275 33.7102H26.5902V35.1351H30.8651C32.0456 35.1351 33.0026 36.0921 33.0026 37.2726V41.6784C33.984 42.0254 34.5728 43.029 34.3967 44.055C34.2207 45.0811 33.331 45.8311 32.2901 45.8311C31.2491 45.8311 30.3594 45.0811 30.1834 44.055C30.0073 43.029 30.5961 42.0254 31.5775 41.6784V37.2725C31.5775 36.879 31.2586 36.5599 30.865 36.5599H26.4021C26.157 37.0155 25.6678 37.2853 25.1517 37.2496C19.1477 36.8693 14.4727 31.8888 14.4727 25.8727C14.4727 19.8567 19.1477 14.8762 25.1517 14.4959H25.235C25.7218 14.4918 26.1709 14.7573 26.4021 15.1855H30.865C31.2585 15.1855 31.5775 14.8666 31.5775 14.473V10.067C30.5961 9.72008 30.0073 8.71644 30.1834 7.69043C30.3594 6.66443 31.2491 5.91442 32.2901 5.91442C33.331 5.91442 34.2207 6.66443 34.3967 7.69043C34.5728 8.71644 33.984 9.72008 33.0026 10.067V14.473C33.0026 15.6535 32.0456 16.6105 30.8651 16.6105H26.5902V18.0354H34.4275C34.8209 18.0354 35.1399 18.3544 35.1399 18.7479C35.1399 19.1414 34.8209 19.4604 34.4275 19.4604H26.5902V21.5978H37.9899C38.3833 21.5978 38.7024 21.2788 38.7024 20.8854V17.1919C37.7209 16.8449 37.1322 15.8413 37.3082 14.8153C37.4843 13.7893 38.3739 13.0393 39.4149 13.0393C40.4559 13.0393 41.3455 13.7893 41.5216 14.8153C41.6976 15.8413 41.1089 16.8449 40.1274 17.1919V20.8854C40.1274 22.0658 39.1705 23.0228 37.99 23.0228H26.5902V25.1604H43.1083C43.4724 24.1382 44.5455 23.5521 45.6023 23.7982C46.659 24.0442 47.363 25.044 47.2382 26.1219C47.1133 27.1996 46.1996 28.0122 45.1147 28.0103ZM39.4148 37.2725C39.8083 37.2725 40.1273 36.9535 40.1273 36.5599C40.1273 36.1664 39.8083 35.8474 39.4148 35.8474C39.0214 35.8474 38.7024 36.1664 38.7024 36.5599C38.7024 36.9535 39.0213 37.2725 39.4148 37.2725ZM32.2901 44.3972C32.6835 44.3972 33.0026 44.0783 33.0026 43.6847C33.0026 43.2912 32.6836 42.9723 32.2901 42.9723C31.8965 42.9723 31.5776 43.2913 31.5776 43.6847C31.5776 44.0782 31.8965 44.3972 32.2901 44.3972ZM32.2901 7.34838C31.8966 7.34838 31.5776 7.66736 31.5776 8.06089C31.5776 8.45443 31.8966 8.77341 32.2901 8.77341C32.6835 8.77341 33.0026 8.45443 33.0026 8.06089C33.0026 7.66736 32.6835 7.34838 32.2901 7.34838ZM39.4148 14.4732C39.0214 14.4732 38.7024 14.7921 38.7024 15.1857C38.7024 15.5792 39.0214 15.8981 39.4148 15.8981C39.8083 15.8981 40.1273 15.5791 40.1273 15.1857C40.1273 14.7922 39.8083 14.4732 39.4148 14.4732ZM15.903 25.8728C15.909 31.1029 19.949 35.4424 25.1653 35.8218V15.9237C19.949 16.3033 15.909 20.6428 15.903 25.8728ZM45.1147 25.1604C44.7212 25.1604 44.4021 25.4793 44.4021 25.8729C44.4021 26.2664 44.7211 26.5853 45.1147 26.5853C45.5082 26.5853 45.8272 26.2663 45.8272 25.8729C45.8272 25.4794 45.5081 25.1604 45.1147 25.1604Z" fill="#1C75BA"/>
</svg>
