<svg width="55" height="57" viewBox="0 0 55 57" fill="none" xmlns="http://www.w3.org/2000/svg">
<path d="M17.9987 11.8333H18.6654C19.0335 11.8333 19.332 11.5348 19.332 11.1667C19.332 10.7985 19.0335 10.5 18.6654 10.5H17.9987C17.6305 10.5 17.332 10.7985 17.332 11.1667C17.332 11.5348 17.6305 11.8333 17.9987 11.8333Z" fill="#1C75BA"/>
<path d="M21.3346 11.8333H22.0013C22.3695 11.8333 22.668 11.5348 22.668 11.1667C22.668 10.7985 22.3695 10.5 22.0013 10.5H21.3346C20.9665 10.5 20.668 10.7985 20.668 11.1667C20.668 11.5348 20.9665 11.8333 21.3346 11.8333Z" fill="#1C75BA"/>
<path d="M47.3333 15.1667H32V11.8333C32 9.99242 30.5076 8.5 28.6667 8.5H11.3333C9.49242 8.5 8 9.99242 8 11.8333V41.8333C8 43.6743 9.49242 45.1667 11.3333 45.1667H24V47.8333C24 48.2015 24.2985 48.5 24.6667 48.5H38C38.3682 48.5 38.6667 48.2015 38.6667 47.8333V43.8333C38.6667 43.4652 38.3682 43.1667 38 43.1667H37.3333V42.9067C37.3339 42.7738 37.3733 42.6441 37.4467 42.5333L37.88 41.88C38.393 41.1124 38.6668 40.2099 38.6667 39.2867V32.5H47.3333C47.7015 32.5 48 32.2015 48 31.8333V15.8333C48 15.4652 47.7015 15.1667 47.3333 15.1667ZM9.33333 11.8333C9.33667 10.7302 10.2302 9.83667 11.3333 9.83333H28.6667C29.7698 9.83667 30.6633 10.7302 30.6667 11.8333V12.5H9.33333V11.8333ZM9.33333 13.8333H30.6667V15.1667H28.6667C28.2985 15.1667 28 15.4652 28 15.8333V23.2933C27.1953 23.6034 26.665 24.3776 26.6667 25.24V31.1667H26C24.8968 31.17 24.0033 32.0635 24 33.1667V38.5H9.33333V13.8333ZM24 43.8333H11.3333C10.2302 43.83 9.33667 42.9365 9.33333 41.8333V39.8333H24.04C24.1241 40.5648 24.3799 41.2662 24.7867 41.88L25.22 42.5333C25.2933 42.6441 25.3328 42.7738 25.3333 42.9067V43.1667H24.6667C24.2985 43.1667 24 43.4652 24 43.8333ZM37.3333 47.1667H25.3333V44.5H37.3333V47.1667ZM37.3333 39.2867C37.3335 39.9462 37.1387 40.5909 36.7733 41.14L36.3333 41.7933C36.1145 42.1232 35.9985 42.5107 36 42.9067V43.1667H26.6667V42.9067C26.6682 42.5107 26.5522 42.1232 26.3333 41.7933L25.8933 41.14C25.528 40.5909 25.3332 39.9462 25.3333 39.2867V33.1667C25.3333 32.7985 25.6318 32.5 26 32.5H26.6667V35.8333C26.6667 36.2015 26.9652 36.5 27.3333 36.5C27.7015 36.5 28 36.2015 28 35.8333V25.24C27.9889 24.8764 28.248 24.5605 28.6067 24.5C28.8067 24.4838 29.0032 24.5599 29.14 24.7067C29.2662 24.8261 29.3363 24.993 29.3333 25.1667V33.1667C29.3333 33.5348 29.6318 33.8333 30 33.8333C30.3682 33.8333 30.6667 33.5348 30.6667 33.1667V29.8333C30.6667 29.4652 30.9652 29.1667 31.3333 29.1667C31.5133 29.1651 31.6855 29.2402 31.8067 29.3733C31.9328 29.4928 32.003 29.6597 32 29.8333V33.1667C32 33.5348 32.2985 33.8333 32.6667 33.8333C33.0348 33.8333 33.3333 33.5348 33.3333 33.1667V30.5C33.3333 30.1318 33.6318 29.8333 34 29.8333C34.18 29.8318 34.3522 29.9069 34.4733 30.04C34.5995 30.1594 34.6697 30.3263 34.6667 30.5V33.1667C34.6667 33.5348 34.9652 33.8333 35.3333 33.8333C35.7015 33.8333 36 33.5348 36 33.1667V31.8333C36 31.4652 36.2985 31.1667 36.6667 31.1667C36.8467 31.1651 37.0188 31.2403 37.14 31.3733C37.2662 31.4928 37.3363 31.6597 37.3333 31.8333V39.2867ZM46.6667 31.1667H38.5467C38.4502 30.8889 38.293 30.6362 38.0867 30.4267C37.5188 29.8683 36.6781 29.6913 35.9333 29.9733C35.8428 29.6399 35.6657 29.3363 35.42 29.0933C34.7773 28.4727 33.8075 28.338 33.02 28.76C32.9444 28.6388 32.8549 28.527 32.7533 28.4267C32.2039 27.886 31.3971 27.7004 30.6667 27.9467V25.1667C30.6696 24.639 30.4607 24.1322 30.0867 23.76C29.8736 23.5485 29.6163 23.3868 29.3333 23.2867V16.5H46.6667V31.1667Z" fill="#1C75BA"/>
<path d="M13.3333 29.167H12.6667C12.2985 29.167 12 29.4655 12 29.8337C12 30.2018 12.2985 30.5003 12.6667 30.5003H13.3333C13.7015 30.5003 14 30.2018 14 29.8337C14 29.4655 13.7015 29.167 13.3333 29.167Z" fill="#1C75BA"/>
<path d="M22.6673 29.167H16.0007C15.6325 29.167 15.334 29.4655 15.334 29.8337C15.334 30.2018 15.6325 30.5003 16.0007 30.5003H22.6673C23.0355 30.5003 23.334 30.2018 23.334 29.8337C23.334 29.4655 23.0355 29.167 22.6673 29.167Z" fill="#1C75BA"/>
<path d="M13.3333 31.833H12.6667C12.2985 31.833 12 32.1315 12 32.4997C12 32.8678 12.2985 33.1663 12.6667 33.1663H13.3333C13.7015 33.1663 14 32.8678 14 32.4997C14 32.1315 13.7015 31.833 13.3333 31.833Z" fill="#1C75BA"/>
<path d="M21.334 31.833H16.0007C15.6325 31.833 15.334 32.1315 15.334 32.4997C15.334 32.8678 15.6325 33.1663 16.0007 33.1663H21.334C21.7022 33.1663 22.0007 32.8678 22.0007 32.4997C22.0007 32.1315 21.7022 31.833 21.334 31.833Z" fill="#1C75BA"/>
<path d="M13.3333 34.5H12.6667C12.2985 34.5 12 34.7985 12 35.1667C12 35.5348 12.2985 35.8333 12.6667 35.8333H13.3333C13.7015 35.8333 14 35.5348 14 35.1667C14 34.7985 13.7015 34.5 13.3333 34.5Z" fill="#1C75BA"/>
<path d="M21.332 34.5H15.9987C15.6305 34.5 15.332 34.7985 15.332 35.1667C15.332 35.5348 15.6305 35.8333 15.9987 35.8333H21.332C21.7002 35.8333 21.9987 35.5348 21.9987 35.1667C21.9987 34.7985 21.7002 34.5 21.332 34.5Z" fill="#1C75BA"/>
<path d="M36.6673 27.8337C37.4037 27.8337 38.0007 27.2367 38.0007 26.5003C38.0007 25.7639 37.4037 25.167 36.6673 25.167C35.9309 25.167 35.334 25.7639 35.334 26.5003C35.334 27.2367 35.9309 27.8337 36.6673 27.8337Z" fill="#1C75BA"/>
<path d="M39.9993 27.8337C40.7357 27.8337 41.3327 27.2367 41.3327 26.5003C41.3327 25.7639 40.7357 25.167 39.9993 25.167C39.263 25.167 38.666 25.7639 38.666 26.5003C38.666 27.2367 39.263 27.8337 39.9993 27.8337Z" fill="#1C75BA"/>
<path d="M33.9987 19.8333H34.7434L34.836 20.574V20.5933L35.3347 24.5827C35.3765 24.9173 35.6615 25.1679 35.9987 25.1667H40.6654C40.9524 25.1668 41.2073 24.983 41.298 24.7107L42.6314 20.7107C42.7477 20.3613 42.5589 19.9838 42.2095 19.8675C42.1415 19.8448 42.0704 19.8333 41.9987 19.8333H36.0874L35.9934 19.084C35.9517 18.7504 35.6682 18.5001 35.332 18.5H33.9987C33.6305 18.5 33.332 18.7985 33.332 19.1667C33.332 19.5348 33.6305 19.8333 33.9987 19.8333ZM41.074 21.1667L40.1847 23.8333H36.5847L36.2514 21.1667H41.074Z" fill="#1C75BA"/>
<path d="M21.3333 41.167H18.6667C18.2985 41.167 18 41.4655 18 41.8337C18 42.2018 18.2985 42.5003 18.6667 42.5003H21.3333C21.7015 42.5003 22 42.2018 22 41.8337C22 41.4655 21.7015 41.167 21.3333 41.167Z" fill="#1C75BA"/>
<path d="M26.1614 17.1867L23.506 16.52C23.453 16.5067 23.3986 16.4999 23.344 16.5H21.9987C21.6305 16.5 21.332 16.7985 21.332 17.1667C21.332 17.9031 20.7351 18.5 19.9987 18.5C19.2623 18.5 18.6654 17.9031 18.6654 17.1667C18.6654 16.7985 18.3669 16.5 17.9987 16.5H16.6487C16.5939 16.5 16.5392 16.5067 16.486 16.52L13.836 17.1867C13.5397 17.2613 13.3319 17.5278 13.332 17.8333V20.5C13.332 20.8682 13.6305 21.1667 13.9987 21.1667C14.0533 21.1667 14.1077 21.1599 14.1607 21.1467L15.9987 20.6873V26.5C15.9987 26.8682 16.2972 27.1667 16.6654 27.1667H23.332C23.7002 27.1667 23.9987 26.8682 23.9987 26.5V20.6873L25.8367 21.1467C26.1939 21.2362 26.5559 21.0192 26.6454 20.662C26.6586 20.609 26.6654 20.5547 26.6654 20.5V17.8333C26.6654 17.5278 26.4577 17.2613 26.1614 17.1867ZM25.332 19.646L23.494 19.1867C23.2949 19.1378 23.0842 19.1825 22.922 19.308C22.7601 19.4343 22.6654 19.6281 22.6654 19.8333V25.8333H17.332V19.8333C17.332 19.4652 17.0335 19.1667 16.6654 19.1667C16.6108 19.1667 16.5564 19.1734 16.5034 19.1867L14.6654 19.646V18.3533L16.732 17.8333H17.4167C17.7834 19.2597 19.237 20.1187 20.6634 19.752C21.6049 19.5099 22.3399 18.7748 22.582 17.8333H23.262L25.332 18.3533V19.646Z" fill="#1C75BA"/>
</svg>
