<svg width="55" height="56" viewBox="0 0 55 56" fill="none" xmlns="http://www.w3.org/2000/svg">
<path d="M16.8398 28.8746H15.1591C14.0869 28.8746 13.2146 28.0078 13.2146 26.9424C13.2146 26.6187 12.9523 26.3564 12.6287 26.3564C12.305 26.3564 12.0427 26.6187 12.0427 26.9424C12.0427 28.6539 13.4408 30.0464 15.1592 30.0464H16.8398C17.1635 30.0464 17.4258 29.7842 17.4258 29.4605C17.4258 29.1368 17.1635 28.8746 16.8398 28.8746Z" fill="#1C75BA"/>
<path d="M22.3455 33.2119H17.3399C15.6866 33.2119 14.3416 34.5515 14.3416 36.1983C14.3416 36.522 14.6038 36.7843 14.9275 36.7843C15.2512 36.7843 15.5134 36.5219 15.5134 36.1983C15.5134 35.1978 16.3327 34.3838 17.3399 34.3838H22.3455C22.6692 34.3838 22.9315 34.1215 22.9315 33.7979C22.9315 33.4742 22.6692 33.2119 22.3455 33.2119Z" fill="#1C75BA"/>
<path d="M27.1196 33.2119H24.6892C24.3655 33.2119 24.1033 33.4742 24.1033 33.7979C24.1033 34.1215 24.3655 34.3838 24.6892 34.3838H27.1196C27.4433 34.3838 27.7055 34.1215 27.7055 33.7979C27.7055 33.4742 27.4432 33.2119 27.1196 33.2119Z" fill="#1C75BA"/>
<path d="M22.9995 21.8262C22.6758 21.8262 22.4136 22.0885 22.4136 22.4121C22.4136 24.0876 21.0425 25.4506 19.3572 25.4506C19.0335 25.4506 18.7712 25.7129 18.7712 26.0366C18.7712 26.3602 19.0335 26.6225 19.3572 26.6225C21.6887 26.6225 23.5855 24.7338 23.5855 22.4121C23.5855 22.0885 23.3232 21.8262 22.9995 21.8262Z" fill="#1C75BA"/>
<path d="M21.9199 12.9682C20.5202 12.8784 19.3066 13.9395 19.2159 15.3345C19.1948 15.6575 19.4396 15.9362 19.7625 15.9573C19.7755 15.9582 19.7884 15.9586 19.8012 15.9586C20.1074 15.9586 20.3651 15.7206 20.3853 15.4107C20.4341 14.6601 21.0887 14.09 21.8446 14.1377C22.1678 14.1593 22.4462 13.9136 22.467 13.5906C22.4878 13.2677 22.2429 12.9891 21.9199 12.9682Z" fill="#1C75BA"/>
<path d="M19.949 35.8203C19.6253 35.8203 19.363 36.0826 19.363 36.4062C19.363 36.7299 19.6253 36.9922 19.949 36.9922C20.9166 36.9922 21.7037 37.7741 21.7037 38.7352C21.7037 39.6966 20.9166 40.4785 19.949 40.4785C19.6253 40.4785 19.363 40.7408 19.363 41.0645C19.363 41.3881 19.6253 41.6504 19.949 41.6504C21.5627 41.6504 22.8756 40.3427 22.8756 38.7352C22.8756 37.128 21.5627 35.8203 19.949 35.8203Z" fill="#1C75BA"/>
<path d="M25.9451 22.0225C25.6214 22.0225 25.3591 22.2847 25.3591 22.6084C25.3591 22.9321 25.6214 23.1943 25.9451 23.1943C26.7223 23.1943 27.3548 23.8222 27.3548 24.5941C27.3548 25.3661 26.7223 25.994 25.9451 25.994C25.6214 25.994 25.3591 26.2563 25.3591 26.58C25.3591 26.9036 25.6214 27.1659 25.9451 27.1659C27.3686 27.1659 28.5266 26.0121 28.5266 24.5941C28.5266 23.1761 27.3686 22.0225 25.9451 22.0225Z" fill="#1C75BA"/>
<path d="M15.6228 18.2979C15.2991 18.2979 15.0369 18.5601 15.0369 18.8838C15.0369 19.2075 15.2991 19.4697 15.6228 19.4697C16.9583 19.4697 18.0447 20.5494 18.0447 21.8766C18.0447 23.2039 16.9583 24.2836 15.6228 24.2836C15.2991 24.2836 15.0369 24.5459 15.0369 24.8696C15.0369 25.1932 15.2991 25.4555 15.6228 25.4555C17.6044 25.4555 19.2166 23.85 19.2166 21.8766C19.2166 19.9032 17.6044 18.2979 15.6228 18.2979Z" fill="#1C75BA"/>
<path d="M43.169 18.2705C42.0676 18.2705 41.1716 19.1634 41.1716 20.2609C41.1716 21.3585 42.0676 22.2514 43.169 22.2514C44.2703 22.2514 45.1663 21.3585 45.1663 20.2609C45.1663 19.1634 44.2703 18.2705 43.169 18.2705ZM43.1691 21.0796C42.7139 21.0796 42.3436 20.7124 42.3436 20.261C42.3435 19.8096 42.7138 19.4425 43.1691 19.4425C43.6242 19.4425 43.9945 19.8096 43.9945 20.261C43.9945 20.7123 43.6242 21.0796 43.1691 21.0796Z" fill="#1C75BA"/>
<path d="M45.126 33.2666C44.0246 33.2666 43.1287 34.1595 43.1287 35.2571C43.1287 36.3546 44.0247 37.2475 45.126 37.2475C46.2273 37.2475 47.1233 36.3546 47.1233 35.2571C47.1233 34.1596 46.2273 33.2666 45.126 33.2666ZM45.126 36.0756C44.6709 36.0756 44.3005 35.7084 44.3005 35.2571C44.3005 34.8057 44.6709 34.4385 45.126 34.4385C45.5812 34.4385 45.9514 34.8057 45.9514 35.2571C45.9515 35.7084 45.5812 36.0756 45.126 36.0756Z" fill="#1C75BA"/>
<path d="M43.8972 26.2443C43.5593 26.2443 43.2408 26.3287 42.9615 26.4771L41.8193 25.3405C41.5897 25.1122 41.2189 25.1132 40.9907 25.3425C40.7624 25.5719 40.7633 25.9428 40.9927 26.1711L42.132 27.3048C41.9841 27.5826 41.8999 27.8989 41.8999 28.2346C41.8999 29.3322 42.7959 30.2251 43.8972 30.2251C44.9986 30.2251 45.8946 29.3322 45.8946 28.2346C45.8946 27.1371 44.9986 26.2443 43.8972 26.2443ZM43.8973 29.0533C43.4422 29.0533 43.0718 28.6861 43.0718 28.2347C43.0718 27.7835 43.4422 27.4162 43.8973 27.4162C44.3525 27.4162 44.7228 27.7834 44.7228 28.2347C44.7228 28.686 44.3525 29.0533 43.8973 29.0533Z" fill="#1C75BA"/>
<path d="M42.5772 39.3828C41.4758 39.3828 40.5798 40.2757 40.5798 41.3733C40.5798 42.4709 41.4758 43.3637 42.5772 43.3637C43.6786 43.3637 44.5745 42.4709 44.5745 41.3733C44.5745 40.2757 43.6786 39.3828 42.5772 39.3828ZM42.5772 42.1918C42.122 42.1918 41.7517 41.8246 41.7517 41.3732C41.7517 40.9219 42.122 40.5546 42.5772 40.5546C43.0323 40.5546 43.4026 40.9218 43.4026 41.3732C43.4027 41.8246 43.0324 42.1918 42.5772 42.1918Z" fill="#1C75BA"/>
<path d="M35.7219 19.0113C36.0943 19.0113 36.5387 18.8279 36.8026 18.5652L39.0662 16.3127C39.2937 16.4027 39.5412 16.4527 39.8004 16.4527C40.9018 16.4527 41.7977 15.5598 41.7977 14.4622C41.7977 13.3647 40.9017 12.4719 39.8004 12.4719C38.6991 12.4719 37.8031 13.3648 37.8031 14.4622C37.8031 14.8743 37.9294 15.2577 38.1457 15.5756L35.9762 17.7344C35.9304 17.7784 35.7852 17.8384 35.7219 17.8395H30.8855V13.9608H32.2459C32.4975 14.7732 33.258 15.3653 34.1548 15.3653C35.2562 15.3653 36.1521 14.4724 36.1521 13.3748C36.1521 12.2773 35.2561 11.3845 34.1548 11.3845C33.258 11.3845 32.4975 11.9765 32.2459 12.7889H30.8855V12.7002C30.8855 10.1084 28.7679 8 26.1649 8C24.3041 8 22.6349 9.08453 21.8732 10.7428C21.7561 10.7345 21.6393 10.7303 21.5234 10.7303C18.8181 10.7303 16.6099 12.8902 16.5472 15.5691C16.3136 15.5358 16.0773 15.519 15.8401 15.519C13.0954 15.519 10.8625 17.7423 10.8625 20.475C10.8625 21.0748 10.9677 21.6552 11.1758 22.2073C9.1271 23.423 7.87671 25.5945 7.87671 28C7.87671 29.2916 8.2446 30.547 8.94054 31.6305C9.51382 32.523 10.2862 33.2659 11.1946 33.8036C10.9763 34.3693 10.8625 34.9751 10.8625 35.5834C10.8625 36.7898 11.303 37.9523 12.1027 38.857C12.317 39.0994 12.6873 39.1222 12.9298 38.9078C13.1723 38.6934 13.1951 38.3232 12.9807 38.0807C12.3704 37.3905 12.0344 36.5035 12.0344 35.5833C12.0344 34.9642 12.1807 34.3738 12.4688 33.8281C12.8127 33.1749 13.347 32.6234 14.0229 32.2574C14.3075 32.1033 14.4132 31.7477 14.2591 31.4632C14.105 31.1785 13.7493 31.0727 13.4648 31.227C12.7649 31.6062 12.1814 32.1378 11.7451 32.7672C10.0696 31.7593 9.04858 29.9772 9.04858 28C9.04858 25.8859 10.2195 23.9908 12.11 23.0316C12.11 23.0316 13.2039 22.423 14.6561 22.423C14.9798 22.423 15.242 22.1607 15.242 21.837C15.242 21.5134 14.9798 21.2511 14.6561 21.2511C13.8048 21.2511 12.99 21.4085 12.2387 21.695C12.1041 21.3044 12.0345 20.8962 12.0345 20.4751C12.0345 18.3884 13.7417 16.6909 15.8402 16.6909C16.2347 16.6909 16.6249 16.7513 17.0001 16.8705C17.1923 16.9315 17.4024 16.8894 17.5562 16.7589C17.7101 16.6284 17.7861 16.4281 17.7573 16.2284C17.7311 16.0466 17.7178 15.8642 17.7178 15.6864C17.7178 13.5998 19.4251 11.9023 21.5236 11.9023C21.7297 11.9023 21.9403 11.9199 22.1499 11.9544C23.9513 12.2523 25.3293 13.812 25.3293 15.6864C25.3293 16.0101 25.5916 16.2723 25.9152 16.2723C26.2389 16.2723 26.5012 16.0101 26.5012 15.6864C26.5012 13.4909 25.0594 11.6255 23.0692 10.9766C23.6879 9.87648 24.8637 9.17188 26.1649 9.17188C28.1216 9.17188 29.7136 10.7547 29.7136 12.7002V12.7652H28.5866C28.263 12.7652 28.0007 13.0275 28.0007 13.3512C28.0007 13.6748 28.263 13.9371 28.5866 13.9371H29.7136V17.8394H24.9745C23.9023 17.8394 23.0299 16.9727 23.0299 15.9073C23.0299 15.5837 22.7676 15.3214 22.444 15.3214C22.1203 15.3214 21.858 15.5837 21.858 15.9073C21.858 17.6188 23.2561 19.0112 24.9745 19.0112H29.7136V28.875H20.2091C19.8854 28.875 19.6231 29.1373 19.6231 29.4609C19.6231 29.7846 19.8854 30.0469 20.2091 30.0469H29.7136V38.0919H27.903C26.2497 38.0919 24.9047 39.4315 24.9047 41.0782C24.9047 41.4019 25.1669 41.6641 25.4906 41.6641C25.8143 41.6641 26.0766 41.4019 26.0766 41.0782C26.0766 40.0777 26.8958 39.2638 27.903 39.2638H29.7136V43.2998C29.7136 43.3919 29.7089 43.4828 29.7019 43.573H28.5866C28.263 43.573 28.0007 43.8353 28.0007 44.159C28.0007 44.4827 28.263 44.7449 28.5866 44.7449H29.401C28.8447 45.9716 27.6039 46.8281 26.1649 46.8281C24.8724 46.8281 23.7009 46.1308 23.0791 45.0412C23.7869 44.81 24.4382 44.4214 24.9869 43.892C25.2198 43.6673 25.2265 43.2964 25.0018 43.0636C24.7771 42.8305 24.4062 42.824 24.1733 43.0487C23.6138 43.5885 22.9144 43.937 22.1591 44.063C21.9461 44.0986 21.7323 44.1167 21.5234 44.1167C19.4249 44.1167 17.7176 42.4191 17.7176 40.3325C17.7176 40.2791 17.7208 40.2238 17.7234 40.1689C18.1964 39.9764 18.6407 39.713 19.0369 39.3822C19.2854 39.1748 19.3186 38.8053 19.1112 38.5569C18.9037 38.3084 18.5403 38.2827 18.2858 38.4827C17.1101 39.4062 15.9729 39.3919 15.518 39.3541C15.1945 39.3267 14.9123 39.5671 14.8855 39.8895C14.8587 40.212 15.0984 40.4952 15.4209 40.522C15.7955 40.553 16.1772 40.5421 16.5483 40.4892C16.6316 43.1498 18.8314 45.2886 21.5235 45.2886C21.6421 45.2886 21.7617 45.2841 21.8817 45.2754C22.6475 46.9227 24.3133 48 26.1649 48C28.7678 48 30.8855 45.8916 30.8855 43.2998V42.005H33.9916C34.0551 42.0061 34.2003 42.066 34.246 42.1099L35.643 43.5C35.454 43.804 35.3445 44.162 35.3445 44.5452C35.3445 45.6427 36.2405 46.5356 37.3419 46.5356C38.4433 46.5356 39.3392 45.6427 39.3392 44.5452C39.3392 43.4476 38.4432 42.5547 37.3419 42.5547C37.0523 42.5547 36.7772 42.617 36.5284 42.7279L35.0726 41.2792C34.8086 41.0166 34.3642 40.8331 33.9918 40.8331H30.8855V37.7009H35.9792C36.2309 38.5134 36.9913 39.1055 37.8882 39.1055C38.9896 39.1055 39.8855 38.2126 39.8855 37.115C39.8855 36.0174 38.9895 35.1245 37.8882 35.1245C36.9914 35.1245 36.2309 35.7166 35.9792 36.5291H30.8855V32.6041H36.9809C37.2326 33.4165 37.993 34.0086 38.8899 34.0086C39.9913 34.0086 40.8873 33.1157 40.8873 32.0181C40.8873 30.9205 39.9912 30.0277 38.8899 30.0277C37.993 30.0277 37.2326 30.6197 36.9809 31.4322H30.8855V27.1674H32.3369C32.5886 27.9798 33.3491 28.5719 34.2459 28.5719C35.3473 28.5719 36.2432 27.679 36.2432 26.5815C36.2432 25.4839 35.3472 24.591 34.2459 24.591C33.3491 24.591 32.5885 25.183 32.3369 25.9955H30.8855V22.6142H37.2697C37.3332 22.6154 37.4784 22.6752 37.5241 22.7191L38.7277 23.917C38.842 24.0307 38.9915 24.0876 39.141 24.0876C39.2914 24.0876 39.4419 24.03 39.5563 23.9149C39.7846 23.6855 39.7837 23.3145 39.5543 23.0863L38.3507 21.8884C38.0867 21.6258 37.6423 21.4423 37.2699 21.4423H30.8855V19.0113H35.7219ZM39.8004 13.6437C40.2555 13.6437 40.6259 14.0109 40.6259 14.4621C40.6259 14.9134 40.2555 15.2807 39.8004 15.2807C39.3452 15.2807 38.975 14.9135 38.975 14.4621C38.975 14.0109 39.3452 13.6437 39.8004 13.6437ZM34.1548 12.5563C34.6099 12.5563 34.9802 12.9235 34.9802 13.3748C34.9802 13.8262 34.6099 14.1934 34.1548 14.1934C33.6996 14.1934 33.3294 13.8262 33.3294 13.3748C33.3293 12.9235 33.6996 12.5563 34.1548 12.5563ZM37.3419 43.7265C37.797 43.7265 38.1673 44.0938 38.1673 44.5451C38.1673 44.9964 37.797 45.3637 37.3419 45.3637C36.8867 45.3637 36.5164 44.9965 36.5164 44.5451C36.5164 44.0938 36.8867 43.7265 37.3419 43.7265ZM37.8882 36.2964C38.3433 36.2964 38.7137 36.6636 38.7137 37.115C38.7137 37.5663 38.3433 37.9336 37.8882 37.9336C37.433 37.9336 37.0627 37.5664 37.0627 37.115C37.0627 36.6637 37.433 36.2964 37.8882 36.2964ZM38.8898 31.1995C39.345 31.1995 39.7153 31.5667 39.7153 32.0181C39.7153 32.4695 39.345 32.8367 38.8898 32.8367C38.4347 32.8367 38.0644 32.4695 38.0644 32.0181C38.0644 31.5667 38.4347 31.1995 38.8898 31.1995ZM34.2459 25.7629C34.701 25.7629 35.0713 26.1301 35.0713 26.5815C35.0713 27.0327 34.701 27.4 34.2459 27.4C33.7907 27.4 33.4204 27.0328 33.4204 26.5815C33.4204 26.1301 33.7907 25.7629 34.2459 25.7629Z" fill="#1C75BA"/>
</svg>
