<svg width="55" height="56" viewBox="0 0 55 56" fill="none" xmlns="http://www.w3.org/2000/svg">
<path d="M46.125 26.25C45.3112 26.25 44.6244 26.7738 44.365 27.5H43V25.625C43 25.28 42.72 25 42.375 25H39.875C39.53 25 39.25 25.28 39.25 25.625V27.5H38V22.5H40.6156C40.8744 23.2262 41.5619 23.75 42.375 23.75C43.4087 23.75 44.25 22.9087 44.25 21.875C44.25 20.8413 43.4087 20 42.375 20C41.5612 20 40.8744 20.5238 40.615 21.25H38V20.625C38 18.9019 36.5981 17.5 34.875 17.5H34.25V14.885C34.9762 14.6256 35.5 13.9388 35.5 13.125C35.5 12.0912 34.6588 11.25 33.625 11.25C32.5912 11.25 31.75 12.0912 31.75 13.125C31.75 13.9388 32.2738 14.6256 33 14.8844V17.5H29.25V15.625C29.25 15.28 28.97 15 28.625 15H26.75V13.75H28.625C28.97 13.75 29.25 13.47 29.25 13.125V11.135C29.9762 10.8756 30.5 10.1888 30.5 9.375C30.5 8.34125 29.6588 7.5 28.625 7.5C27.5912 7.5 26.75 8.34125 26.75 9.375C26.75 10.1888 27.2738 10.8756 28 11.1344V12.5H26.125C25.78 12.5 25.5 12.78 25.5 13.125V15.625C25.5 15.97 25.78 16.25 26.125 16.25H28V17.5H23V14.885C23.7262 14.6256 24.25 13.9388 24.25 13.125C24.25 12.0912 23.4087 11.25 22.375 11.25C21.3413 11.25 20.5 12.0912 20.5 13.125C20.5 13.9388 21.0238 14.6256 21.75 14.8844V17.5H21.125C19.4019 17.5 18 18.9019 18 20.625V21.25H15.385C15.1256 20.5238 14.4388 20 13.625 20C12.5912 20 11.75 20.8413 11.75 21.875C11.75 22.9087 12.5912 23.75 13.625 23.75C14.4388 23.75 15.1256 23.2262 15.385 22.5H18V26.25H16.125C15.78 26.25 15.5 26.53 15.5 26.875V28.75H14.25V26.875C14.25 26.53 13.97 26.25 13.625 26.25H11.635C11.3756 25.5238 10.6888 25 9.875 25C8.84125 25 8 25.8412 8 26.875C8 27.9088 8.84125 28.75 9.875 28.75C10.6888 28.75 11.3756 28.2262 11.635 27.5H13V29.375C13 29.72 13.28 30 13.625 30H16.125C16.47 30 16.75 29.72 16.75 29.375V27.5H18V32.5H15.385C15.1256 31.7738 14.4388 31.25 13.625 31.25C12.5912 31.25 11.75 32.0912 11.75 33.125C11.75 34.1588 12.5912 35 13.625 35C14.4388 35 15.1256 34.4762 15.385 33.75H18V34.375C18 36.0981 19.4019 37.5 21.125 37.5H21.75V40.115C21.0238 40.3737 20.5 41.0612 20.5 41.875C20.5 42.9087 21.3413 43.75 22.375 43.75C23.4087 43.75 24.25 42.9087 24.25 41.875C24.25 41.0612 23.7262 40.3744 23 40.115V37.5H26.75V39.375C26.75 39.72 27.03 40 27.375 40H29.25V41.25H27.375C27.03 41.25 26.75 41.53 26.75 41.875V43.865C26.0238 44.1237 25.5 44.8112 25.5 45.625C25.5 46.6587 26.3412 47.5 27.375 47.5C28.4088 47.5 29.25 46.6587 29.25 45.625C29.25 44.8112 28.7262 44.1244 28 43.865V42.5H29.875C30.22 42.5 30.5 42.22 30.5 41.875V39.375C30.5 39.03 30.22 38.75 29.875 38.75H28V37.5H33V40.115C32.2738 40.3737 31.75 41.0612 31.75 41.875C31.75 42.9087 32.5912 43.75 33.625 43.75C34.6588 43.75 35.5 42.9087 35.5 41.875C35.5 41.0612 34.9762 40.3744 34.25 40.115V37.5H34.875C36.5981 37.5 38 36.0981 38 34.375V33.75H40.6156C40.8744 34.4762 41.5619 35 42.375 35C43.4087 35 44.25 34.1588 44.25 33.125C44.25 32.0912 43.4087 31.25 42.375 31.25C41.5612 31.25 40.8744 31.7738 40.615 32.5H38V28.75H39.875C40.22 28.75 40.5 28.47 40.5 28.125V26.25H41.75V28.125C41.75 28.47 42.03 28.75 42.375 28.75H44.3656C44.6244 29.4762 45.3119 30 46.125 30C47.1587 30 48 29.1588 48 28.125C48 27.0912 47.1587 26.25 46.125 26.25ZM42.375 21.25C42.7194 21.25 43 21.5306 43 21.875C43 22.2194 42.7194 22.5 42.375 22.5C42.0306 22.5 41.75 22.2194 41.75 21.875C41.75 21.5306 42.0306 21.25 42.375 21.25ZM33.625 12.5C33.9694 12.5 34.25 12.7806 34.25 13.125C34.25 13.4694 33.9694 13.75 33.625 13.75C33.2806 13.75 33 13.4694 33 13.125C33 12.7806 33.2806 12.5 33.625 12.5ZM28.625 8.75C28.9694 8.75 29.25 9.03062 29.25 9.375C29.25 9.71937 28.9694 10 28.625 10C28.2806 10 28 9.71937 28 9.375C28 9.03062 28.2806 8.75 28.625 8.75ZM22.375 12.5C22.7194 12.5 23 12.7806 23 13.125C23 13.4694 22.7194 13.75 22.375 13.75C22.0306 13.75 21.75 13.4694 21.75 13.125C21.75 12.7806 22.0306 12.5 22.375 12.5ZM13.625 22.5C13.2806 22.5 13 22.2194 13 21.875C13 21.5306 13.2806 21.25 13.625 21.25C13.9694 21.25 14.25 21.5306 14.25 21.875C14.25 22.2194 13.9694 22.5 13.625 22.5ZM9.875 27.5C9.53062 27.5 9.25 27.2194 9.25 26.875C9.25 26.5306 9.53062 26.25 9.875 26.25C10.2194 26.25 10.5 26.5306 10.5 26.875C10.5 27.2194 10.2194 27.5 9.875 27.5ZM13.625 33.75C13.2806 33.75 13 33.4694 13 33.125C13 32.7806 13.2806 32.5 13.625 32.5C13.9694 32.5 14.25 32.7806 14.25 33.125C14.25 33.4694 13.9694 33.75 13.625 33.75ZM22.375 42.5C22.0306 42.5 21.75 42.2194 21.75 41.875C21.75 41.5306 22.0306 41.25 22.375 41.25C22.7194 41.25 23 41.5306 23 41.875C23 42.2194 22.7194 42.5 22.375 42.5ZM27.375 46.25C27.0306 46.25 26.75 45.9694 26.75 45.625C26.75 45.2806 27.0306 45 27.375 45C27.7194 45 28 45.2806 28 45.625C28 45.9694 27.7194 46.25 27.375 46.25ZM33.625 42.5C33.2806 42.5 33 42.2194 33 41.875C33 41.5306 33.2806 41.25 33.625 41.25C33.9694 41.25 34.25 41.5306 34.25 41.875C34.25 42.2194 33.9694 42.5 33.625 42.5ZM42.375 32.5C42.7194 32.5 43 32.7806 43 33.125C43 33.4694 42.7194 33.75 42.375 33.75C42.0306 33.75 41.75 33.4694 41.75 33.125C41.75 32.7806 42.0306 32.5 42.375 32.5ZM36.75 34.375C36.75 35.4088 35.9088 36.25 34.875 36.25H21.125C20.0913 36.25 19.25 35.4088 19.25 34.375V20.625C19.25 19.5913 20.0913 18.75 21.125 18.75H34.875C35.9088 18.75 36.75 19.5913 36.75 20.625V34.375ZM46.125 28.75C45.7806 28.75 45.5 28.4694 45.5 28.125C45.5 27.7806 45.7806 27.5 46.125 27.5C46.4694 27.5 46.75 27.7806 46.75 28.125C46.75 28.4694 46.4694 28.75 46.125 28.75Z" fill="#1C75BA"/>
<path d="M34.875 20H21.125C20.78 20 20.5 20.28 20.5 20.625V34.375C20.5 34.72 20.78 35 21.125 35H34.875C35.22 35 35.5 34.72 35.5 34.375V20.625C35.5 20.28 35.22 20 34.875 20ZM34.25 33.75H21.75V21.25H34.25V33.75Z" fill="#1C75BA"/>
<path d="M27.375 28.125H28.625C28.9694 28.125 29.25 28.4056 29.25 28.75C29.25 29.0944 28.9694 29.375 28.625 29.375H26.75C26.405 29.375 26.125 29.655 26.125 30C26.125 30.345 26.405 30.625 26.75 30.625H27.375C27.375 30.97 27.655 31.25 28 31.25C28.345 31.25 28.625 30.97 28.625 30.625C29.6588 30.625 30.5 29.7838 30.5 28.75C30.5 27.7162 29.6588 26.875 28.625 26.875H27.375C27.0306 26.875 26.75 26.5944 26.75 26.25C26.75 25.9056 27.0306 25.625 27.375 25.625H29.25C29.595 25.625 29.875 25.345 29.875 25C29.875 24.655 29.595 24.375 29.25 24.375H28.625C28.625 24.03 28.345 23.75 28 23.75C27.655 23.75 27.375 24.03 27.375 24.375C26.3412 24.375 25.5 25.2162 25.5 26.25C25.5 27.2838 26.3412 28.125 27.375 28.125Z" fill="#1C75BA"/>
</svg>
