<svg width="55" height="55" viewBox="0 0 55 55" fill="none" xmlns="http://www.w3.org/2000/svg">
<path d="M46.3614 15.801H44.4851V14.2418C44.4851 13.0057 43.4795 12 42.2434 12H40.4552C39.219 12 38.2135 13.0057 38.2135 14.2418V20.6603H35.2168V18.937C35.2168 17.6864 34.1994 16.669 32.9488 16.669C32.4574 16.669 32.0026 16.8267 31.631 17.0933C31.2656 16.3297 30.4854 15.801 29.5839 15.801C28.7317 15.801 27.9879 16.2734 27.6005 16.9702C27.2176 16.6751 26.7387 16.4985 26.2189 16.4985C25.4301 16.4985 24.7347 16.9038 24.3283 17.5167C23.9315 17.1763 23.4165 16.97 22.854 16.97C21.6033 16.97 20.586 17.9874 20.586 19.238V20.6604H17.7868V19.0075C17.7868 18.684 17.5246 18.4219 17.2012 18.4219C16.8778 18.4219 16.6157 18.684 16.6157 19.0075V32.6102C16.6157 33.2006 16.1354 33.6808 15.5451 33.6808H13.7566C13.1662 33.6808 12.686 33.2006 12.686 32.6102V14.2418C12.686 13.6514 13.1663 13.1711 13.7566 13.1711H15.5448C16.1352 13.1711 16.6154 13.6514 16.6154 14.2418C16.6154 15.1283 16.6154 18.6254 16.6154 19.512C16.6154 19.8354 16.8776 20.0975 17.201 20.0975C17.5244 20.0975 17.7865 19.8354 17.7865 19.512V14.2418C17.7865 13.0057 16.7809 12 15.5448 12H13.7566C12.5205 12 11.5149 13.0057 11.5149 14.2418V15.801H9.63858C8.73505 15.801 8 16.536 8 17.4395V29.4123C8 30.3159 8.73505 31.0509 9.63858 31.0509H11.5149V32.6101C11.5149 33.8461 12.5205 34.8518 13.7566 34.8518H15.5448C16.781 34.8518 17.7865 33.8461 17.7865 32.6101V26.1916H19.7931V27.2608C19.7931 27.8103 19.9854 28.3466 20.3345 28.7711L22.153 30.982V41.5223C22.153 41.8458 22.4151 42.1078 22.7385 42.1078C23.0619 42.1078 23.324 41.8458 23.324 41.5223V30.7721C23.324 30.6364 23.2769 30.505 23.1907 30.4001L21.2389 28.0271C21.0617 27.8118 20.9642 27.5396 20.9642 27.2608V26.1916L32.0378 26.2593C32.3612 26.2593 32.6233 25.9972 32.6233 25.6738C32.6233 25.3503 32.3612 25.0882 32.0378 25.0882H29.3736C28.8239 25.0882 28.3767 24.641 28.3767 24.0915C28.3767 23.5418 28.8239 23.0946 29.3736 23.0946H34.4082C34.7542 23.0946 35.0356 23.376 35.0356 23.7219V27.2607C35.0356 27.5395 34.938 27.8118 34.7609 28.027L32.8091 30.4C32.7229 30.5049 32.6757 30.6363 32.6757 30.772V32.3164C32.6757 32.6398 32.9379 32.9019 33.2613 32.9019C33.5846 32.9019 33.8468 32.6398 33.8468 32.3164V30.9819L35.6653 28.771C36.0143 28.3466 36.2066 27.8102 36.2066 27.2607V26.1915H38.2132V32.61C38.2132 33.8461 39.2189 34.8517 40.4549 34.8517H42.2432C43.4793 34.8517 44.4849 33.8461 44.4849 32.61V31.0508H46.3612C47.2647 31.0508 47.9998 30.3158 47.9998 29.4123V17.4395C48 16.536 47.2649 15.801 46.3614 15.801ZM9.63858 29.8798C9.38079 29.8798 9.17109 29.67 9.17109 29.4123V17.4395C9.17109 17.1817 9.38079 16.972 9.63858 16.972H11.5149V29.8798H9.63858ZM32.9487 17.8401C33.5536 17.8401 34.0457 18.3322 34.0457 18.937V21.1171C34.0457 21.4262 33.9145 21.7171 33.69 21.9236H32.2074C31.9829 21.7171 31.8517 21.4262 31.8517 21.1171V18.937C31.8517 18.3322 32.3438 17.8401 32.9487 17.8401ZM28.4868 18.069C28.4868 17.4641 28.9789 16.972 29.5837 16.972C30.1886 16.972 30.6807 17.4641 30.6807 18.069V21.1171C30.6807 21.4262 30.5495 21.7171 30.325 21.9236H29.3736C29.212 21.9236 29.0546 21.942 28.903 21.9757C28.6423 21.7699 28.4867 21.4567 28.4867 21.1171L28.4868 18.069ZM25.1218 18.7665C25.1218 18.1616 25.6139 17.6695 26.2187 17.6695C26.8236 17.6695 27.3157 18.1616 27.3157 18.7665V21.117C27.3157 21.7219 26.8236 22.214 26.2187 22.214C25.6138 22.214 25.1218 21.7219 25.1218 21.117V18.7665ZM21.7568 19.2379C21.7568 18.6331 22.2489 18.141 22.8537 18.141C23.4586 18.141 23.9507 18.6331 23.9507 19.2379V21.1171C23.9507 21.722 23.4586 22.2141 22.8537 22.2141C22.2489 22.2141 21.7568 21.722 21.7568 21.1171V19.2379ZM17.7866 21.8313H20.7017C21.0017 22.7329 21.8528 23.3851 22.8538 23.3851C23.5207 23.3851 24.1212 23.0956 24.5366 22.6359C24.9519 23.0955 25.552 23.3851 26.2188 23.3851C26.7019 23.3851 27.149 23.2318 27.5172 22.9734C27.3197 23.3 27.2059 23.6827 27.2059 24.0915C27.2059 24.4237 27.2812 24.7388 27.4154 25.0204H17.7866V21.8313ZM36.2069 25.0205V23.722C36.2069 22.9463 35.7131 22.2838 35.0234 22.032C35.0523 21.9665 35.078 21.8995 35.1006 21.8313H38.2135V25.0205H36.2069ZM46.8289 29.4123C46.8289 29.6701 46.6192 29.8798 46.3614 29.8798H44.4851V28.1877C44.4851 27.8642 44.2229 27.6021 43.8996 27.6021C43.5762 27.6021 43.314 27.8642 43.314 28.1877V32.6101C43.314 33.2005 42.8337 33.6807 42.2434 33.6807H40.4552C39.8648 33.6807 39.3846 33.2005 39.3846 32.6101V14.2418C39.3846 13.6514 39.8649 13.1711 40.4552 13.1711H42.2434C42.8338 13.1711 43.314 13.6514 43.314 14.2418V28.6923C43.314 29.0157 43.5762 29.2778 43.8996 29.2778C44.2229 29.2778 44.4851 29.0157 44.4851 28.6923V16.972H46.3614C46.6192 16.972 46.8289 17.1817 46.8289 17.4395V29.4123Z" fill="#1C75BA"/>
<path d="M33.2613 31.2266C32.9379 31.2266 32.6758 31.4887 32.6758 31.8121V41.5225C32.6758 41.846 32.9379 42.108 33.2613 42.108C33.5847 42.108 33.8469 41.846 33.8469 41.5225V31.8121C33.8469 31.4887 33.5848 31.2266 33.2613 31.2266Z" fill="#1C75BA"/>
</svg>
