<svg width="55" height="55" viewBox="0 0 55 55" fill="none" xmlns="http://www.w3.org/2000/svg">
<path d="M22.3117 27.0557C20.0737 27.0557 18.2461 28.8755 18.2461 31.1213C18.2461 33.3671 20.0659 35.1869 22.3117 35.1869C24.5497 35.1869 26.3773 33.3671 26.3773 31.1213C26.3773 28.8755 24.5497 27.0557 22.3117 27.0557ZM22.3117 33.2819C21.1191 33.2819 20.1434 32.3139 20.1434 31.1135C20.1434 29.9132 21.1114 28.9452 22.3117 28.9452C23.5043 28.9452 24.48 29.9132 24.48 31.1135C24.48 32.3139 23.5043 33.2819 22.3117 33.2819Z" fill="#1C75BA"/>
<path d="M37.7758 31.1144C37.7758 28.8764 35.9559 27.0488 33.7102 27.0488C31.4721 27.0488 29.6445 28.8687 29.6445 31.1144C29.6445 33.3602 31.4644 35.1801 33.7102 35.1801C35.9559 35.1801 37.7758 33.3525 37.7758 31.1144ZM33.7102 33.2828C32.5176 33.2828 31.5418 32.3148 31.5418 31.1144C31.5418 29.9141 32.5098 28.9461 33.7102 28.9461C34.9027 28.9461 35.8785 29.9141 35.8785 31.1144C35.8785 32.3148 34.9105 33.2828 33.7102 33.2828Z" fill="#1C75BA"/>
<path d="M44.4135 21.0238C43.763 17.1518 40.5647 14.2865 36.623 14.0465L36.4604 14.0155C36.4062 14.0077 36.3519 14 36.2977 14H19.9191C15.7915 14 12.299 16.9505 11.6175 21.0006L9.11616 34.4055C9.03872 34.7695 9 35.1335 9 35.4975C9 38.4247 11.3774 40.8021 14.3047 40.8021C16.0703 40.8021 17.7198 39.927 18.6878 38.4867L19.8959 36.8139C20.2056 36.388 20.105 35.7995 19.679 35.4897C19.2531 35.1799 18.6646 35.2806 18.3548 35.7065L17.1312 37.4025C16.4962 38.3473 15.4353 38.9126 14.3047 38.9126C12.4229 38.9126 10.8973 37.3793 10.8973 35.5052C10.8973 35.2729 10.9205 35.0328 10.9747 34.7773L13.4761 21.3413C14.0026 18.1895 16.7131 15.905 19.9114 15.905H36.2203L36.3519 15.9283C36.3907 15.936 36.4216 15.936 36.4604 15.9438C39.4805 16.1064 42.0361 18.3831 42.5394 21.3568L45.0485 34.7927C45.095 35.0251 45.1182 35.2651 45.1182 35.4975C45.1182 37.3793 43.5849 38.9048 41.7108 38.9048C40.5724 38.9048 39.5193 38.3395 38.861 37.3715L37.56 35.5749C37.2503 35.149 36.6617 35.056 36.2358 35.3581C35.8099 35.6678 35.7169 36.2564 36.019 36.6823L37.2967 38.4557C38.288 39.9193 39.9297 40.7944 41.6953 40.7944C44.6226 40.7944 47 38.417 47 35.4897C47 35.1257 46.9613 34.754 46.8916 34.4133L44.4135 21.0238Z" fill="#1C75BA"/>
<path d="M32.9281 22.9441C33.6381 22.9441 34.2136 22.3685 34.2136 21.6586C34.2136 20.9486 33.6381 20.373 32.9281 20.373C32.2181 20.373 31.6426 20.9486 31.6426 21.6586C31.6426 22.3685 32.2181 22.9441 32.9281 22.9441Z" fill="#1C75BA"/>
<path d="M38.1879 22.9441C38.8978 22.9441 39.4734 22.3685 39.4734 21.6586C39.4734 20.9486 38.8978 20.373 38.1879 20.373C37.4779 20.373 36.9023 20.9486 36.9023 21.6586C36.9023 22.3685 37.4779 22.9441 38.1879 22.9441Z" fill="#1C75BA"/>
<path d="M20.554 17.8477C20.0274 17.8477 19.6014 18.2736 19.6014 18.8002V20.5116H17.89C17.3634 20.5116 16.9375 20.9375 16.9375 21.4641C16.9375 21.9907 17.3634 22.4166 17.89 22.4166H19.6014V24.1281C19.6014 24.6547 20.0274 25.0806 20.554 25.0806C21.0806 25.0806 21.5065 24.6547 21.5065 24.1281V22.4166H23.2179C23.7445 22.4166 24.1704 21.9907 24.1704 21.4641C24.1704 20.9375 23.7445 20.5116 23.2179 20.5116H21.5065V18.8002C21.5065 18.2736 21.0806 17.8477 20.554 17.8477Z" fill="#1C75BA"/>
<path d="M35.555 25.57C36.265 25.57 36.8406 24.9945 36.8406 24.2845C36.8406 23.5746 36.265 22.999 35.555 22.999C34.8451 22.999 34.2695 23.5746 34.2695 24.2845C34.2695 24.9945 34.8451 25.57 35.555 25.57Z" fill="#1C75BA"/>
<path d="M35.555 20.3113C36.265 20.3113 36.8406 19.7357 36.8406 19.0257C36.8406 18.3158 36.265 17.7402 35.555 17.7402C34.8451 17.7402 34.2695 18.3158 34.2695 19.0257C34.2695 19.7357 34.8451 20.3113 35.555 20.3113Z" fill="#1C75BA"/>
</svg>
