<svg width="55" height="56" viewBox="0 0 55 56" fill="none" xmlns="http://www.w3.org/2000/svg">
<path d="M31.3496 16.251H29.4746V14.376C29.4746 14.2102 29.4088 14.0512 29.2916 13.934C29.1743 13.8168 29.0154 13.751 28.8496 13.751H26.3496C26.1838 13.751 26.0249 13.8168 25.9077 13.934C25.7905 14.0512 25.7246 14.2102 25.7246 14.376V16.251H23.8496C23.6838 16.251 23.5249 16.3168 23.4077 16.434C23.2905 16.5512 23.2246 16.7102 23.2246 16.876V19.376C23.2246 19.5417 23.2905 19.7007 23.4077 19.8179C23.5249 19.9351 23.6838 20.001 23.8496 20.001H25.7246V21.876C25.7246 22.0417 25.7905 22.2007 25.9077 22.3179C26.0249 22.4351 26.1838 22.501 26.3496 22.501H28.8496C29.0154 22.501 29.1743 22.4351 29.2916 22.3179C29.4088 22.2007 29.4746 22.0417 29.4746 21.876V20.001H31.3496C31.5154 20.001 31.6743 19.9351 31.7916 19.8179C31.9088 19.7007 31.9746 19.5417 31.9746 19.376V16.876C31.9746 16.7102 31.9088 16.5512 31.7916 16.434C31.6743 16.3168 31.5154 16.251 31.3496 16.251ZM30.7246 18.751H28.8496C28.6838 18.751 28.5249 18.8168 28.4077 18.934C28.2905 19.0512 28.2246 19.2102 28.2246 19.376V21.251H26.9746V19.376C26.9746 19.2102 26.9088 19.0512 26.7916 18.934C26.6743 18.8168 26.5154 18.751 26.3496 18.751H24.4746V17.501H26.3496C26.5154 17.501 26.6743 17.4351 26.7916 17.3179C26.9088 17.2007 26.9746 17.0417 26.9746 16.876V15.001H28.2246V16.876C28.2246 17.0417 28.2905 17.2007 28.4077 17.3179C28.5249 17.4351 28.6838 17.501 28.8496 17.501H30.7246V18.751Z" fill="#1C75BA"/>
<path d="M44.9309 19.6011C44.9435 19.4912 44.9498 19.3806 44.9496 19.2699C44.9466 18.697 44.7478 18.1423 44.3864 17.6979C44.0249 17.2534 43.5224 16.9458 42.9621 16.8261C42.3284 16.7055 41.6725 16.8301 41.1271 17.1747C40.5818 17.5193 40.1877 18.0582 40.0246 18.6824L37.2746 26.5949C37.2339 26.6111 37.1942 26.6299 37.1559 26.6511L31.6309 29.8886C30.7854 30.3853 30.0842 31.0939 29.5964 31.9444C29.1086 32.795 28.8512 33.7581 28.8496 34.7386V40.6261C28.6838 40.6261 28.5249 40.692 28.4077 40.8092C28.2905 40.9264 28.2246 41.0854 28.2246 41.2511V46.2511C28.2246 46.4169 28.2905 46.5759 28.4077 46.6931C28.5249 46.8103 28.6838 46.8761 28.8496 46.8761H37.5996C37.7654 46.8761 37.9243 46.8103 38.0416 46.6931C38.1588 46.5759 38.2246 46.4169 38.2246 46.2511V41.2511C38.2246 41.0854 38.1588 40.9264 38.0416 40.8092C37.9243 40.692 37.7654 40.6261 37.5996 40.6261V39.2511C37.6008 38.9872 37.657 38.7263 37.7646 38.4853C37.8722 38.2442 38.0289 38.0282 38.2246 37.8511L42.4496 34.0949C42.9118 33.6905 43.2426 33.1573 43.3996 32.5636L46.1121 22.4199C46.17 22.2081 46.1994 21.9895 46.1996 21.7699C46.1972 21.3288 46.0786 20.8962 45.8559 20.5155C45.6332 20.1348 45.3141 19.8194 44.9309 19.6011ZM41.2184 19.0511C41.2951 18.7279 41.4908 18.4455 41.7665 18.2601C42.0422 18.0748 42.3776 18.0002 42.7059 18.0511C42.986 18.1098 43.2375 18.2628 43.4184 18.4847C43.5993 18.7065 43.6985 18.9837 43.6996 19.2699V19.2824C43.1413 19.2927 42.6017 19.4852 42.1629 19.8304C41.724 20.1756 41.4099 20.6548 41.2684 21.1949L39.5246 26.5761C39.2606 26.4509 38.9775 26.3706 38.6871 26.3386L41.2184 19.0511ZM36.9746 45.6261H29.4746V41.8761H36.9746V45.6261ZM44.9059 22.0949L42.1871 32.2449C42.093 32.5976 41.8975 32.9149 41.6246 33.1574L37.3934 36.9136C37.0659 37.2089 36.8039 37.5694 36.6242 37.972C36.4444 38.3745 36.3509 38.8103 36.3496 39.2511V40.6261H30.0996V34.7386C30.1027 33.9761 30.3036 33.2274 30.6826 32.5657C31.0617 31.9041 31.6059 31.352 32.2621 30.9636L37.7809 27.7324C37.9232 27.6495 38.0804 27.5955 38.2436 27.5736C38.4069 27.5516 38.5728 27.5622 38.7319 27.6046C38.8911 27.647 39.0403 27.7204 39.1709 27.8206C39.3016 27.9209 39.4112 28.0459 39.4934 28.1886C39.6557 28.4774 39.7005 28.8177 39.6184 29.1386C39.5749 29.2971 39.5007 29.4455 39.3999 29.5753C39.2991 29.705 39.1737 29.8136 39.0309 29.8949L35.4496 31.9636C35.3136 32.0501 35.2162 32.1858 35.1779 32.3424C35.1395 32.499 35.1631 32.6643 35.2438 32.8039C35.3245 32.9434 35.456 33.0464 35.6108 33.0913C35.7656 33.1362 35.9318 33.1196 36.0746 33.0449L39.6559 30.9761C39.9421 30.8137 40.193 30.5957 40.3937 30.3349C40.5944 30.074 40.7409 29.7757 40.8246 29.4574C40.9947 28.8179 40.9049 28.1371 40.5746 27.5636L40.5371 27.5074L42.4684 21.5511C42.5451 21.2279 42.7408 20.9455 43.0165 20.7601C43.2922 20.5748 43.6276 20.5002 43.9559 20.5511C44.236 20.6098 44.4875 20.7628 44.6684 20.9847C44.8493 21.2065 44.9485 21.4837 44.9496 21.7699C44.9517 21.8798 44.937 21.9894 44.9059 22.0949Z" fill="#1C75BA"/>
<path d="M26.35 40.6258V34.7383C26.3484 33.7578 26.091 32.7947 25.6032 31.9441C25.1154 31.0935 24.4142 30.3849 23.5687 29.8883L18.0437 26.6446C18.0062 26.6258 17.9625 26.6133 17.925 26.5946L15.1937 18.7258C15.035 18.0926 14.6409 17.5436 14.0917 17.1906C13.5425 16.8376 12.8795 16.7072 12.2375 16.8258C11.6772 16.9455 11.1747 17.2531 10.8132 17.6976C10.4518 18.142 10.253 18.6967 10.25 19.2696C10.2498 19.3803 10.2561 19.4909 10.2687 19.6008C9.88548 19.8191 9.56644 20.1344 9.34372 20.5152C9.121 20.8959 9.00245 21.3285 9 21.7696C9.00121 21.9887 9.02849 22.2069 9.08125 22.4196L11.8 32.5571C11.9554 33.1532 12.2864 33.6889 12.75 34.0946L16.9688 37.8508C17.1665 38.0267 17.3249 38.2423 17.4336 38.4835C17.5424 38.7248 17.5991 38.9862 17.6 39.2508V40.6258C17.4342 40.6258 17.2753 40.6917 17.1581 40.8089C17.0408 40.9261 16.975 41.0851 16.975 41.2508V46.2508C16.975 46.4166 17.0408 46.5756 17.1581 46.6928C17.2753 46.81 17.4342 46.8758 17.6 46.8758H26.35C26.5158 46.8758 26.6747 46.81 26.7919 46.6928C26.9092 46.5756 26.975 46.4166 26.975 46.2508V41.2508C26.975 41.0851 26.9092 40.9261 26.7919 40.8089C26.6747 40.6917 26.5158 40.6258 26.35 40.6258ZM11.5 19.2696C11.5008 18.9842 11.5991 18.7077 11.7788 18.486C11.9584 18.2643 12.2085 18.1107 12.4875 18.0508C12.8248 18.0019 13.1681 18.0822 13.4486 18.2758C13.7291 18.4694 13.9261 18.7619 14 19.0946L16.5125 26.3383C16.2221 26.3703 15.939 26.4506 15.675 26.5758L13.9437 21.2258C13.8029 20.6803 13.4881 20.1956 13.0472 19.8449C12.6063 19.4942 12.0632 19.2966 11.5 19.2821V19.2696ZM17.8 36.9133L13.575 33.1571C13.3007 32.9133 13.1049 32.5935 13.0125 32.2383L10.2875 22.0946C10.2616 21.9882 10.249 21.879 10.25 21.7696C10.2508 21.4842 10.3491 21.2077 10.5288 20.986C10.7084 20.7643 10.9585 20.6107 11.2375 20.5508C11.5724 20.5006 11.9139 20.579 12.1934 20.7703C12.4728 20.9616 12.6695 21.2517 12.7437 21.5821L14.6625 27.5071L14.625 27.5633C14.2947 28.1368 14.2049 28.8176 14.375 29.4571C14.4587 29.7754 14.6052 30.0737 14.8059 30.3345C15.0066 30.5954 15.2575 30.8134 15.5438 30.9758L19.125 33.0446C19.2678 33.1193 19.434 33.1359 19.5888 33.091C19.7437 33.0461 19.8751 32.9431 19.9558 32.8035C20.0365 32.664 20.0601 32.4986 20.0218 32.3421C19.9834 32.1855 19.886 32.0498 19.75 31.9633L16.1688 29.8946C16.0259 29.8133 15.9005 29.7047 15.7997 29.5749C15.6989 29.4452 15.6247 29.2968 15.5813 29.1383C15.4991 28.8174 15.5439 28.4771 15.7063 28.1883C15.7879 28.0459 15.8968 27.921 16.0268 27.8207C16.1567 27.7204 16.3051 27.6466 16.4636 27.6037C16.622 27.5607 16.7874 27.5494 16.9502 27.5704C17.113 27.5913 17.2701 27.6441 17.4125 27.7258L22.9375 30.9633C23.5937 31.3517 24.1379 31.9037 24.517 32.5654C24.896 33.2271 25.0969 33.9758 25.1 34.7383V40.6258H18.85V39.2508C18.8489 38.8093 18.7549 38.373 18.574 37.9702C18.3931 37.5675 18.1293 37.2074 17.8 36.9133ZM25.725 45.6258H18.225V41.8758H25.725V45.6258Z" fill="#1C75BA"/>
<path d="M36.4415 11.3333C35.8613 10.7521 35.1722 10.291 34.4135 9.97643C33.6549 9.66184 32.8417 9.49994 32.0204 9.5C31.1992 9.50006 30.386 9.66207 29.6274 9.97677C28.8688 10.2915 28.1798 10.7527 27.5996 11.334C27.0196 10.7526 26.3305 10.2914 25.572 9.97676C24.8134 9.66208 24.0003 9.50011 23.179 9.50011C22.3578 9.50011 21.5446 9.66208 20.7861 9.97676C20.0275 10.2914 19.3385 10.7526 18.7584 11.334C17.5886 12.5063 16.9316 14.0947 16.9316 15.7508C16.9316 17.407 17.5886 18.9954 18.7584 20.1677L27.1584 28.5677C27.2756 28.6849 27.4345 28.7507 27.6003 28.7507C27.766 28.7507 27.9249 28.6849 28.0421 28.5677L36.4421 20.1677C37.6119 18.9952 38.2688 17.4066 38.2686 15.7504C38.2685 14.0942 37.6114 12.5057 36.4415 11.3333ZM27.5996 27.2421L19.6415 19.284C18.9428 18.5844 18.4673 17.6933 18.275 16.7234C18.0826 15.7536 18.1822 14.7485 18.561 13.8352C18.9398 12.9219 19.5809 12.1414 20.4032 11.5924C21.2255 11.0434 22.1922 10.7506 23.1809 10.7508C23.8377 10.7486 24.4884 10.8771 25.095 11.129C25.7016 11.3808 26.252 11.7509 26.714 12.2177L27.1578 12.6615C27.275 12.7786 27.4339 12.8445 27.5996 12.8445C27.7654 12.8445 27.9243 12.7786 28.0415 12.6615L28.4865 12.2165C28.9505 11.7516 29.5016 11.3828 30.1083 11.1312C30.715 10.8796 31.3653 10.7501 32.0221 10.7501C32.6789 10.7501 33.3293 10.8796 33.936 11.1312C34.5427 11.3828 35.0938 11.7516 35.5578 12.2165C36.494 13.154 37.0198 14.4247 37.0198 15.7496C37.0198 17.0745 36.494 18.3452 35.5578 19.2827L27.5996 27.2421Z" fill="#1C75BA"/>
</svg>
