<svg width="55" height="55" viewBox="0 0 55 55" fill="none" xmlns="http://www.w3.org/2000/svg">
<path d="M47.367 33.2668H42.6072V20.8534H47.367C47.4498 20.8544 47.5319 20.8386 47.6087 20.8069C47.6854 20.7752 47.7553 20.7284 47.8142 20.669C47.873 20.6096 47.9198 20.5389 47.9517 20.4609C47.9836 20.383 48 20.2994 48 20.2149C48 20.1305 47.9836 20.0469 47.9517 19.9689C47.9198 19.891 47.873 19.8203 47.8142 19.7609C47.7553 19.7015 47.6854 19.6546 47.6087 19.623C47.5319 19.5913 47.4498 19.5755 47.367 19.5764H42.4493C42.1592 19.5767 41.8811 19.6944 41.676 19.9036C41.4709 20.1128 41.3555 20.3965 41.3552 20.6924V21.2197H38.4693C38.34 21.2198 38.2131 21.184 38.1022 21.1162L30.4467 16.4311C29.986 16.1491 29.4589 16 28.9216 16H23.8875C23.4362 16.0012 22.9913 16.1088 22.5876 16.3145C22.1838 16.5202 21.8322 16.8184 21.5602 17.1857L18.6248 21.1229H14.6448V20.6924C14.6445 20.3965 14.5291 20.1128 14.324 19.9036C14.1189 19.6944 13.8408 19.5767 13.5507 19.5764H8.63302C8.55023 19.5755 8.46807 19.5913 8.39131 19.623C8.31455 19.6546 8.24471 19.7015 8.18584 19.7609C8.12696 19.8203 8.08022 19.891 8.04832 19.9689C8.01643 20.0469 8 20.1305 8 20.2149C8 20.2994 8.01643 20.383 8.04832 20.4609C8.08022 20.5389 8.12696 20.6096 8.18584 20.669C8.24471 20.7284 8.31455 20.7752 8.39131 20.8069C8.46807 20.8386 8.55023 20.8544 8.63302 20.8534H13.3928V33.2668H8.63302C8.55023 33.2658 8.46807 33.2817 8.39131 33.3133C8.31455 33.345 8.24471 33.3919 8.18584 33.4513C8.12696 33.5106 8.08022 33.5814 8.04832 33.6593C8.01643 33.7372 8 33.8208 8 33.9053C8 33.9897 8.01643 34.0734 8.04832 34.1513C8.08022 34.2292 8.12696 34.2999 8.18584 34.3593C8.24471 34.4187 8.31455 34.4656 8.39131 34.4973C8.46807 34.5289 8.55023 34.5447 8.63302 34.5438H13.5507C13.8408 34.5435 14.1189 34.4258 14.324 34.2166C14.5291 34.0073 14.6445 33.7237 14.6448 33.4278V31.7761H15.6095C15.5484 32.1834 15.6031 32.6001 15.7671 32.9768C15.9311 33.3534 16.1975 33.6742 16.5348 33.901C16.6734 33.9942 16.8427 34.0274 17.0053 33.9932C17.1679 33.9591 17.3106 33.8605 17.4019 33.7191C17.4932 33.5777 17.5258 33.4051 17.4923 33.2392C17.4589 33.0733 17.3622 32.9278 17.2235 32.8346C17.0335 32.707 16.901 32.5075 16.8552 32.2802C16.8093 32.0528 16.8539 31.8162 16.979 31.6224L17.543 30.7491C17.6687 30.5565 17.8641 30.4225 18.0864 30.3765C18.3086 30.3304 18.5398 30.376 18.7292 30.5032C18.9186 30.6305 19.0509 30.8291 19.0972 31.0556C19.1434 31.2821 19.0999 31.518 18.976 31.7119L18.4119 32.5852C18.1047 33.0621 17.9955 33.6437 18.1083 34.2026C18.221 34.7615 18.5465 35.2519 19.0133 35.5663C19.1519 35.6595 19.3212 35.6926 19.4838 35.6585C19.6464 35.6244 19.7891 35.5258 19.8804 35.3844C19.9718 35.2429 20.0043 35.0703 19.9708 34.9044C19.9374 34.7386 19.8407 34.5931 19.702 34.4999C19.5123 34.372 19.3799 34.1726 19.3341 33.9454C19.2883 33.7181 19.3327 33.4816 19.4575 33.2877L20.0215 32.4144C20.1474 32.2223 20.3426 32.0887 20.5647 32.0429C20.7867 31.997 21.0175 32.0426 21.2067 32.1696C21.3959 32.2967 21.5282 32.4949 21.5747 32.7211C21.6212 32.9472 21.5781 33.1829 21.4548 33.3768L20.8908 34.2502C20.5836 34.727 20.4744 35.3087 20.5871 35.8676C20.6998 36.4265 21.0253 36.9169 21.4921 37.2313C21.5608 37.2781 21.6378 37.3106 21.7188 37.3269C21.7998 37.3432 21.8832 37.343 21.9641 37.3263C22.045 37.3096 22.1219 37.2768 22.1904 37.2297C22.2588 37.1825 22.3174 37.122 22.3628 37.0517C22.4082 36.9814 22.4396 36.9026 22.455 36.8199C22.4704 36.7371 22.4697 36.6521 22.4528 36.5697C22.4359 36.4872 22.4031 36.409 22.3565 36.3396C22.3098 36.2701 22.2501 36.2107 22.1809 36.1649C21.9911 36.037 21.8588 35.8375 21.813 35.6103C21.7672 35.3831 21.8115 35.1466 21.9364 34.9527L22.5004 34.0793C22.6256 33.8855 22.8211 33.7502 23.0439 33.7034C23.2668 33.6566 23.4988 33.702 23.6889 33.8296C23.8789 33.9572 24.0115 34.1566 24.0574 34.3839C24.1033 34.6113 24.0588 34.8479 23.9337 35.0417L23.3688 35.9159C23.0616 36.3928 22.9524 36.9744 23.0651 37.5333C23.1779 38.0922 23.5034 38.5826 23.9702 38.8971C24.1088 38.9889 24.2774 39.021 24.4392 38.9865C24.601 38.9519 24.7429 38.8535 24.8338 38.7127C24.9247 38.5719 24.9574 38.4001 24.9246 38.2349C24.8918 38.0696 24.7963 37.9243 24.6589 37.8306C24.4691 37.7027 24.3368 37.5033 24.291 37.276C24.2452 37.0488 24.2896 36.8123 24.4145 36.6184L24.9785 35.7451C25.1037 35.5512 25.2992 35.4161 25.5221 35.3693C25.745 35.3226 25.9769 35.368 26.167 35.4957C26.357 35.6234 26.4895 35.8229 26.5353 36.0502C26.5812 36.2775 26.5366 36.5141 26.4114 36.708C26.3583 36.7902 26.3248 36.8839 26.3134 36.9817C26.3111 36.9862 26.3085 36.9904 26.3064 36.9951C26.2357 37.1483 26.2276 37.3239 26.2839 37.4832C26.3402 37.6425 26.4562 37.7725 26.6064 37.8446C26.893 37.9821 27.1857 38.1191 27.4771 38.2521C27.8045 38.4506 28.1762 38.5608 28.5569 38.5724C28.9377 38.584 29.3151 38.4966 29.6536 38.3184C29.9921 38.1403 30.2807 37.8772 30.492 37.5539C30.7034 37.2306 30.8306 36.8578 30.8617 36.4706C31.125 36.5789 31.4063 36.6348 31.6902 36.6352C31.8654 36.6352 32.04 36.6143 32.2106 36.5732C32.6929 36.4576 33.1242 36.1827 33.4375 35.7911C33.7508 35.3996 33.9284 34.9135 33.9428 34.4083C34.1619 34.4805 34.3908 34.5174 34.6211 34.5177C34.7963 34.5176 34.9709 34.4968 35.1414 34.4557C35.6289 34.3388 36.0641 34.0593 36.3781 33.6614C36.6921 33.2635 36.8668 32.7701 36.8746 32.2594C37.0288 32.2935 37.186 32.3108 37.3438 32.3109C37.519 32.3108 37.6936 32.2899 37.864 32.2488C38.2971 32.1447 38.6903 31.912 38.9937 31.5801C39.2972 31.2482 39.4974 30.832 39.569 30.384C39.6406 29.9361 39.5804 29.4766 39.396 29.0635C39.2117 28.6505 38.9114 28.3024 38.5331 28.0634L26.8465 20.6496H26.846L26.8438 20.6482C26.8402 20.6459 26.8364 20.6442 26.8328 20.642C26.4485 20.3995 25.9898 20.3107 25.5452 20.3929C25.1005 20.4751 24.7015 20.7223 24.4252 21.087L22.0719 24.1642C21.9397 24.3379 21.775 24.4832 21.5875 24.5917C21.3999 24.7002 21.1932 24.7697 20.9792 24.7964C20.7651 24.823 20.5481 24.8062 20.3405 24.7468C20.1328 24.6875 19.9388 24.5869 19.7695 24.4507C19.6002 24.3145 19.459 24.1455 19.354 23.9534C19.249 23.7613 19.1823 23.55 19.1578 23.3315C19.1333 23.113 19.1514 22.8917 19.2111 22.6804C19.2708 22.469 19.3709 22.2719 19.5056 22.1002L22.561 17.9527C22.716 17.7433 22.9164 17.5733 23.1465 17.4561C23.3767 17.3389 23.6303 17.2775 23.8875 17.2769H28.9216C29.2318 17.2769 29.5362 17.3629 29.8022 17.5257L37.4578 22.2108C37.7633 22.3977 38.1128 22.4965 38.4691 22.4966H41.3549V33.4278C41.3553 33.7237 41.4707 34.0073 41.6758 34.2166C41.8809 34.4258 42.159 34.5435 42.4491 34.5438H47.3667C47.4495 34.5447 47.5317 34.5289 47.6085 34.4973C47.6852 34.4656 47.7551 34.4187 47.8139 34.3593C47.8728 34.2999 47.9195 34.2292 47.9514 34.1513C47.9833 34.0734 47.9998 33.9897 47.9998 33.9053C47.9998 33.8208 47.9833 33.7372 47.9514 33.6593C47.9195 33.5814 47.8728 33.5106 47.8139 33.4513C47.7551 33.3919 47.6852 33.345 47.6085 33.3133C47.5317 33.2817 47.4495 33.2658 47.3667 33.2668H47.367ZM20.7844 26.0865C21.2235 26.0866 21.6568 25.9842 22.0511 25.7871C22.4454 25.5901 22.7903 25.3036 23.0593 24.9496L25.4122 21.8716C25.4998 21.7548 25.6271 21.6756 25.769 21.6495C25.9109 21.6234 26.0572 21.6522 26.1794 21.7302L26.1811 21.7312L26.1821 21.7319L37.8733 29.1481C37.9849 29.2185 38.0817 29.3105 38.1583 29.4191C38.2349 29.5276 38.2899 29.6504 38.3199 29.7806C38.35 29.9108 38.3547 30.0457 38.3336 30.1777C38.3126 30.3097 38.2662 30.4362 38.1973 30.5499C38.1283 30.6637 38.038 30.7624 37.9316 30.8406C37.8252 30.9187 37.7048 30.9747 37.5772 31.0054C37.4496 31.0361 37.3173 31.0408 37.1879 31.0194C37.0584 30.9979 36.9344 30.9507 36.8229 30.8803L35.8086 30.2684L33.0727 28.4754C32.9358 28.3853 32.7699 28.3533 32.6102 28.386C32.4504 28.4188 32.3096 28.5138 32.2175 28.6509C32.1254 28.788 32.0894 28.9563 32.1171 29.12C32.1447 29.2837 32.234 29.43 32.3657 29.5277C32.3748 29.5349 32.3846 29.5424 32.396 29.5498L35.1416 31.3493L35.1507 31.3551C35.3752 31.4975 35.5352 31.7249 35.5956 31.9875C35.6559 32.25 35.6117 32.5263 35.4726 32.7556C35.3335 32.985 35.1109 33.1486 34.8536 33.2108C34.5964 33.2729 34.3254 33.2284 34.1003 33.0871L32.8742 32.3835L30.9327 31.0922C30.8639 31.0464 30.7868 31.0148 30.706 30.9994C30.6252 30.9839 30.5422 30.9848 30.4617 31.0021C30.2992 31.0369 30.1569 31.1362 30.0662 31.2781C29.9755 31.4199 29.9437 31.5927 29.9778 31.7585C30.012 31.9243 30.1094 32.0694 30.2484 32.1619L32.2071 33.4647L32.2197 33.4727C32.3312 33.5431 32.428 33.6351 32.5047 33.7437C32.5813 33.8522 32.6362 33.975 32.6663 34.1052C32.6963 34.2354 32.701 34.3703 32.6799 34.5023C32.6589 34.6343 32.6125 34.7608 32.5436 34.8745C32.4746 34.9883 32.3843 35.087 32.2779 35.1652C32.1715 35.2434 32.0511 35.2994 31.9235 35.33C31.6657 35.392 31.3944 35.347 31.1692 35.2049L29.8103 34.3477L28.8515 33.6766C28.7189 33.5839 28.5565 33.5469 28.3979 33.5731C28.2392 33.5992 28.0965 33.6866 27.9993 33.8172C27.9021 33.9477 27.8579 34.1113 27.8757 34.2742C27.8936 34.4371 27.9722 34.5868 28.0952 34.6922C28.1072 34.7027 28.1213 34.7135 28.1364 34.7241C28.1387 34.7257 28.1407 34.7276 28.1431 34.7292L29.1141 35.409L29.1282 35.4178L29.1527 35.4342C29.3737 35.574 29.5313 35.7975 29.591 36.0557C29.6506 36.3139 29.6074 36.5857 29.4709 36.8114C29.3314 37.041 29.1084 37.2047 28.8506 37.2667C28.5929 37.3286 28.3216 37.2836 28.0964 37.1417L28.0606 37.1192L28.0223 37.1017C27.9092 37.0503 27.7958 36.9977 27.6828 36.9451C27.8075 36.5865 27.8367 36.2005 27.7675 35.8266C27.6983 35.4526 27.533 35.1041 27.2887 34.8166C27.0443 34.529 26.7296 34.3127 26.3765 34.1897C26.0235 34.0667 25.6448 34.0413 25.279 34.1163C25.1647 33.5614 24.8402 33.075 24.3759 32.7631C23.9117 32.4511 23.3454 32.3389 22.8005 32.4509C22.6862 31.8962 22.3618 31.41 21.8978 31.0981C21.4338 30.7861 20.8678 30.6738 20.323 30.7854C20.237 30.3699 20.0324 29.9896 19.7349 29.6925C19.4375 29.3953 19.0605 29.1946 18.6514 29.1155C18.2423 29.0365 17.8194 29.0827 17.436 29.2483C17.0526 29.4139 16.7259 29.6915 16.4968 30.0462L16.2046 30.4987H14.6448V22.4H17.9879C17.878 22.8355 17.8671 23.2909 17.9562 23.7314C18.0452 24.1718 18.2317 24.5857 18.5015 24.9414C18.7713 25.297 19.1173 25.5851 19.5129 25.7836C19.9085 25.9821 20.3434 26.0857 20.7843 26.0865H20.7844Z" fill="#1C75BA"/>
</svg>
