<svg width="55" height="55" viewBox="0 0 55 55" fill="none" xmlns="http://www.w3.org/2000/svg">
<g clip-path="url(#clip0_160_7091)">
<path d="M22.1289 40.7266C20.675 40.7266 19.4922 41.9094 19.4922 43.3633C19.4922 44.8172 20.675 46 22.1289 46C23.5828 46 24.7656 44.8172 24.7656 43.3633C24.7656 41.9094 23.5828 40.7266 22.1289 40.7266ZM22.1289 44.9453C21.2566 44.9453 20.5469 44.2356 20.5469 43.3633C20.5469 42.491 21.2566 41.7812 22.1289 41.7812C23.0012 41.7812 23.7109 42.491 23.7109 43.3633C23.7109 44.2356 23.0012 44.9453 22.1289 44.9453Z" fill="#1C75BA"/>
<path d="M22.1289 43.8906C22.4202 43.8906 22.6562 43.6545 22.6562 43.3633C22.6562 43.072 22.4202 42.8359 22.1289 42.8359C21.8377 42.8359 21.6016 43.072 21.6016 43.3633C21.6016 43.6545 21.8377 43.8906 22.1289 43.8906Z" fill="#1C75BA"/>
<path d="M40.1992 43.8906C40.4905 43.8906 40.7266 43.6545 40.7266 43.3633C40.7266 43.072 40.4905 42.8359 40.1992 42.8359C39.908 42.8359 39.6719 43.072 39.6719 43.3633C39.6719 43.6545 39.908 43.8906 40.1992 43.8906Z" fill="#1C75BA"/>
<path d="M40.1992 40.7266C38.7453 40.7266 37.5625 41.9094 37.5625 43.3633C37.5625 44.8172 38.7453 46 40.1992 46C41.6531 46 42.8359 44.8172 42.8359 43.3633C42.8359 41.9094 41.6531 40.7266 40.1992 40.7266ZM40.1992 44.9453C39.3269 44.9453 38.6172 44.2356 38.6172 43.3633C38.6172 42.491 39.3269 41.7812 40.1992 41.7812C41.0715 41.7812 41.7812 42.491 41.7812 43.3633C41.7812 44.2356 41.0715 44.9453 40.1992 44.9453Z" fill="#1C75BA"/>
<path d="M18.7079 35.5202L22.5464 33.3438H31.1641C32.4374 33.3438 33.5028 32.4364 33.7478 31.2344H39.2399C40.9276 31.2344 42.3982 30.0925 42.8163 28.4575L45.9836 16.0721C46.0238 15.9143 45.989 15.7467 45.8891 15.618C45.7892 15.4894 45.6355 15.4141 45.4727 15.4141H19.5809L19.312 14.3625C18.656 11.794 16.3447 10 13.6914 10H11.582C10.7097 10 10 10.7097 10 11.582C10 12.4543 10.7097 13.1641 11.582 13.1641H13.6914C14.8978 13.1641 15.9484 13.979 16.2464 15.146L20.2967 30.9821L17.1481 32.7673C15.9918 33.4219 15.2734 34.6532 15.2734 35.9805C15.2734 38.0159 16.9294 39.6719 18.9648 39.6719H42.3086C43.1809 39.6719 43.8906 38.9621 43.8906 38.0898C43.8906 37.2175 43.1809 36.5078 42.3086 36.5078H18.9648C18.674 36.5078 18.4375 36.2713 18.4375 35.9805C18.4375 35.791 18.541 35.6147 18.7079 35.5202ZM38.2546 25.2578H35.014L35.2117 21.3906H38.8479L38.2546 25.2578ZM39.9149 21.3906H43.5348L42.5459 25.2578H39.3216L39.9149 21.3906ZM38.0927 26.3125L37.4994 30.1797H34.7623L34.96 26.3125H38.0927ZM33.9579 25.2578H30.7117L30.5139 21.3906H34.1556L33.9579 25.2578ZM35.2656 20.3359L35.4633 16.4688H39.603L39.0097 20.3359H35.2656ZM34.2095 20.3359H30.4599L30.262 16.4688H34.4072L34.2095 20.3359ZM29.4039 20.3359H25.3165C25.0252 20.3359 24.7892 20.572 24.7892 20.8633C24.7892 21.1546 25.0252 21.3906 25.3165 21.3906H29.4578L29.6557 25.2578H26.4151L25.0663 16.4688H29.2059L29.4039 20.3359ZM25.3481 25.2578H22.0985L21.1094 21.3906H24.7546L25.3481 25.2578ZM25.51 26.3125L26.1035 30.1797H23.3574L22.3683 26.3125H25.51ZM27.1705 30.1797L26.5769 26.3125H29.7097L29.9075 30.1797H27.1705ZM30.9636 30.1797L30.7657 26.3125H33.9039L33.7062 30.1797H30.9636ZM41.7945 28.1962C41.4959 29.364 40.4454 30.1797 39.2399 30.1797H38.5664L39.1597 26.3125H42.2761L41.7945 28.1962ZM43.8046 20.3359H40.0767L40.67 16.4688H44.7935L43.8046 20.3359ZM23.9993 16.4688L24.5928 20.3359H20.8398L19.8507 16.4688H23.9993ZM13.6914 12.1094H11.582C11.2912 12.1094 11.0547 11.8728 11.0547 11.582C11.0547 11.2912 11.2912 11.0547 11.582 11.0547H13.6914C14.7999 11.0547 15.8348 11.438 16.6542 12.0921L15.9024 12.844C15.2806 12.3794 14.512 12.1094 13.6914 12.1094ZM18.9648 37.5625H42.3086C42.5994 37.5625 42.8359 37.799 42.8359 38.0898C42.8359 38.3807 42.5994 38.6172 42.3086 38.6172H18.9648C17.5109 38.6172 16.3281 37.4344 16.3281 35.9805C16.3281 35.0324 16.8415 34.1529 17.6681 33.6849L21.1676 31.7007C21.3746 31.5833 21.4773 31.3418 21.4183 31.1113L17.2682 14.8848C17.1456 14.4049 16.9317 13.9679 16.6485 13.5895L17.4006 12.8375C17.811 13.3509 18.1194 13.955 18.2901 14.6237L22.4371 30.8377C22.4968 31.0711 22.707 31.2344 22.948 31.2344H32.6557C32.4381 31.8483 31.8516 32.2891 31.1641 32.2891H22.4073C22.3162 32.2891 22.2266 32.3128 22.1473 32.3578L18.188 34.6026C17.6914 34.8836 17.3828 35.4116 17.3828 35.9805C17.3828 36.8528 18.0925 37.5625 18.9648 37.5625Z" fill="#1C75BA"/>
</g>
<defs>
<clipPath id="clip0_160_7091">
<rect width="36" height="36" fill="white" transform="translate(10 10)"/>
</clipPath>
</defs>
</svg>
