<svg width="55" height="56" viewBox="0 0 55 56" fill="none" xmlns="http://www.w3.org/2000/svg">
<path d="M40.5878 23.9119C39.3614 21.7951 37.0746 20.3707 34.4516 20.3707C33.6445 20.3707 32.8719 20.5119 32.149 20.7601C30.4093 18.1896 27.4666 16.4998 24.129 16.4998C19.2213 16.4998 15.1769 20.1562 14.5467 24.8916C14.5147 24.8912 14.4837 24.8868 14.4516 24.8868C10.8884 24.8868 8 27.7753 8 31.3385C8 34.9015 10.8884 37.7901 14.4516 37.7901H42.1935C45.4003 37.7901 48 35.1904 48 31.9836C48 28.7768 45.4003 26.1772 42.1935 26.1772C41.9355 26.1772 41.6831 26.1998 41.434 26.2325" stroke="#1C75BA" stroke-width="1.5" stroke-miterlimit="10" stroke-linecap="round" stroke-linejoin="round"/>
<path d="M19.895 27.8409C19.895 27.8409 18.7845 26.9075 17.4751 27.3019C16.2726 27.6642 16.1044 29.0507 16.9743 29.6178C16.9743 29.6178 17.8279 29.9986 18.7747 30.3478C21.0537 31.1885 20.072 33.3934 18.2373 33.3934C17.3185 33.3934 16.5474 32.991 16.0807 32.476" stroke="#1C75BA" stroke-width="1.5" stroke-miterlimit="10" stroke-linecap="round" stroke-linejoin="round"/>
<path d="M38.5075 27.841C38.5075 27.841 37.397 26.9075 36.0875 27.302C34.8851 27.6642 34.7169 29.0507 35.5868 29.6179C35.5868 29.6179 36.4404 29.9986 37.3872 30.3478C39.6663 31.1885 38.6845 33.3934 36.8498 33.3934C35.9311 33.3934 35.16 32.9911 34.6932 32.4761" stroke="#1C75BA" stroke-width="1.5" stroke-miterlimit="10" stroke-linecap="round" stroke-linejoin="round"/>
<path d="M32.2756 31.2836C32.2756 32.3227 31.4332 33.165 30.3942 33.165C29.3552 33.165 28.5128 32.3227 28.5128 31.2836C28.5128 30.2446 29.3552 29.4022 30.3942 29.4022C31.4332 29.4022 32.2756 30.2446 32.2756 31.2836Z" stroke="#1C75BA" stroke-width="1.5" stroke-miterlimit="10" stroke-linecap="round" stroke-linejoin="round"/>
<path d="M32.2753 29.1528V33.4159" stroke="#1C75BA" stroke-width="1.5" stroke-miterlimit="10" stroke-linecap="round" stroke-linejoin="round"/>
<path d="M26.1698 31.2835C26.1698 32.3226 25.3275 33.1649 24.2885 33.1649C23.2494 33.1649 22.4071 32.3226 22.4071 31.2835C22.4071 30.2445 23.2494 29.4021 24.2885 29.4021C25.3275 29.4021 26.1698 30.2445 26.1698 31.2835Z" stroke="#1C75BA" stroke-width="1.5" stroke-miterlimit="10" stroke-linecap="round" stroke-linejoin="round"/>
<path d="M26.1688 29.1528V33.4159" stroke="#1C75BA" stroke-width="1.5" stroke-miterlimit="10" stroke-linecap="round" stroke-linejoin="round"/>
</svg>
