<svg width="55" height="55" viewBox="0 0 55 55" fill="none" xmlns="http://www.w3.org/2000/svg">
<path d="M24.4282 29.4006L24.4291 29.4003C24.9716 29.2387 25.5261 28.9746 25.9142 28.7775L25.917 28.776L25.917 28.776C26.0995 28.6848 26.2688 28.5915 26.4345 28.5002C26.4862 28.4718 26.5375 28.4435 26.5887 28.4155L26.8477 28.2743L27.0966 28.4327C27.3683 28.6056 27.6638 28.6982 27.9719 28.6982C28.28 28.6982 28.5755 28.6056 28.8472 28.4327L29.1007 28.2713L29.3621 28.4195C29.5427 28.5218 29.7675 28.6433 30.0303 28.7778C30.4167 28.9741 30.9782 29.2387 31.5156 29.4006H24.4282ZM24.4282 29.4006C23.5477 29.6647 23.1505 30.5008 22.9677 31.102C22.8709 31.4206 22.8187 31.7224 22.7902 31.9432C22.7758 32.0544 22.7672 32.1467 22.7619 32.2122C22.7608 32.2258 22.7599 32.2382 22.7591 32.2493L22.7531 32.2671V32.3482V32.792V33.292H23.2531H32.6906H33.1906M24.4282 29.4006L33.1906 33.292M33.1906 33.292V32.792M33.1906 33.292V32.792M33.1906 32.792V32.3357C33.1906 32.2976 33.1698 31.7255 32.9781 31.0995M33.1906 32.792L32.9781 31.0995M32.9781 31.0995C32.7944 30.4997 32.3954 29.6648 31.516 29.4007L32.9781 31.0995ZM39.9829 29.5267L39.9838 29.5269C40.7487 29.7576 41.1763 30.3933 41.4167 31.076C41.535 31.4121 41.5995 31.7387 41.6341 31.9897C41.6513 32.1144 41.6608 32.2185 41.666 32.2931C41.6711 32.3657 41.6718 32.4069 41.6719 32.4105L41.6719 32.4107V33.3982C41.6719 33.4596 41.627 33.5045 41.5656 33.5045H33.2906H22.6531H14.3719C14.3105 33.5045 14.2656 33.4596 14.2656 33.3982V32.4232C14.2656 32.4235 14.2656 32.4234 14.2656 32.4229C14.2657 32.4208 14.2658 32.4104 14.2666 32.3916C14.2675 32.3701 14.269 32.34 14.2717 32.3022C14.277 32.2265 14.2868 32.1217 14.3041 31.9963C14.3391 31.7442 14.404 31.417 14.5224 31.0807C14.7626 30.3983 15.1882 29.7652 15.9448 29.534C16.3392 29.4209 16.7895 29.2235 17.279 28.9755L17.2791 28.9757L17.2902 28.9697C17.3268 28.95 17.3654 28.93 17.4083 28.9077L17.4099 28.9069C17.451 28.8856 17.4961 28.8622 17.5402 28.8385L18.0304 28.5745L17.7154 28.1154C17.2564 27.4462 16.9781 26.5333 16.9781 25.6732C16.9781 24.9105 17.2103 24.3436 17.58 23.969C17.9491 23.5952 18.5066 23.3607 19.2594 23.3607C20.0095 23.3607 20.5672 23.5939 20.9369 23.9673C21.3072 24.3411 21.5406 24.9078 21.5406 25.6732C21.5406 26.5333 21.2623 27.4462 20.8033 28.1154L20.4786 28.5888L20.992 28.8455C21.032 28.8654 21.0709 28.8856 21.1136 28.9077L21.1149 28.9084C21.1552 28.9293 21.1989 28.952 21.2447 28.9749C21.7283 29.2262 22.1895 29.422 22.581 29.5343C22.7191 29.576 22.8506 29.638 22.9908 29.7188L23.3104 29.9033L23.5809 29.6521C23.7912 29.4568 24.0499 29.2975 24.3653 29.2022C24.805 29.0716 25.3034 28.8573 25.8187 28.5932L25.8261 28.5894L25.8334 28.5853C25.902 28.5473 25.9647 28.5147 26.0324 28.4796C26.0712 28.4595 26.1117 28.4385 26.1558 28.4151L26.6595 28.1485L26.3296 27.6838C25.812 26.9547 25.4969 25.9384 25.4969 24.9857C25.4969 24.1604 25.7478 23.5454 26.1507 23.1382C26.553 22.7316 27.1589 22.4795 27.9719 22.4795C28.7848 22.4795 29.3907 22.7316 29.793 23.1382C30.1959 23.5454 30.4469 24.1604 30.4469 24.9857C30.4469 25.9444 30.132 26.9545 29.6142 27.6838L29.2843 28.1485L29.7879 28.4151C29.8156 28.4298 29.8463 28.4463 29.8789 28.4638C29.9561 28.5054 30.0441 28.5527 30.1273 28.5943C30.6439 28.859 31.1469 29.0721 31.5775 29.2019C31.8933 29.2972 32.1523 29.4566 32.3629 29.6521L32.6333 29.9033L32.953 29.7188C33.0935 29.6378 33.2264 29.575 33.3605 29.5331C33.763 29.4147 34.2049 29.2253 34.6939 28.9743L34.6939 28.9744L34.7009 28.9707C34.7491 28.945 34.7851 28.9251 34.8167 28.9077C34.8615 28.883 34.8972 28.8634 34.9455 28.8392L35.4589 28.5825L35.1342 28.1092C34.6752 27.44 34.3969 26.527 34.3969 25.667C34.3969 24.9043 34.629 24.3374 34.9988 23.9628C35.3678 23.589 35.9253 23.3545 36.6781 23.3545C37.4282 23.3545 37.9859 23.5877 38.3557 23.961C38.7259 24.3349 38.9594 24.9015 38.9594 25.667C38.9594 26.527 38.6811 27.44 38.2221 28.1092L37.9071 28.5683L38.3973 28.8322L38.3999 28.8336C38.4789 28.8761 38.5649 28.9225 38.6583 28.9692C39.1373 29.2151 39.5963 29.4093 39.9829 29.5267ZM33.4245 29.7311L33.416 29.7336L33.4075 29.7364C33.3528 29.7546 33.3078 29.7748 33.2753 29.79C33.2571 29.7986 33.2461 29.8039 33.2375 29.8081C33.2266 29.8133 33.2194 29.8168 33.2063 29.8226L32.7382 30.0306L32.9575 30.4935C33.1567 30.914 33.2681 31.36 33.329 31.7162C33.3592 31.8926 33.3764 32.0432 33.3859 32.1521C33.3957 32.2644 33.3969 32.3258 33.3969 32.3232V32.792V33.292H33.8969H40.9594H41.4594V32.792V32.4232C41.4594 32.3819 41.4362 31.8607 41.2625 31.2926C41.0977 30.7535 40.7359 29.9751 39.9286 29.732L39.9255 29.7311C39.4409 29.5886 38.9253 29.344 38.5619 29.1593C38.3501 29.0503 38.1493 28.9408 37.9697 28.8417L37.7118 28.6994L37.4624 28.856C37.2145 29.0115 36.9555 29.092 36.6781 29.092C36.4055 29.092 36.1442 29.0081 35.8878 28.8522L35.6443 28.7042L35.3928 28.8383C35.3312 28.8712 35.2711 28.9038 35.2112 28.9363C35.0766 29.0093 34.9426 29.082 34.792 29.1573L34.792 29.1573L34.7879 29.1594C34.2667 29.426 33.8094 29.6179 33.4245 29.7311ZM22.7553 32.3028C22.7553 32.3033 22.7553 32.3032 22.7553 32.3028L22.7553 32.3028ZM16.0058 29.7311L16.0058 29.731L16.0012 29.7324C15.1999 29.9765 14.8406 30.756 14.6764 31.2946C14.503 31.8634 14.4781 32.3874 14.4781 32.4357V32.792V33.292H14.9781H22.0406H22.5406V32.792V32.3357C22.5406 32.3363 22.5418 32.2736 22.5516 32.1605C22.5612 32.0507 22.5783 31.8994 22.6085 31.7221C22.6695 31.3645 22.781 30.9164 22.9805 30.4924L23.1884 30.0506L22.7517 29.8323C22.7496 29.8312 22.7473 29.8301 22.745 29.8289C22.6981 29.8054 22.6206 29.7666 22.53 29.7364L22.5215 29.7336L22.513 29.7311C22.127 29.6175 21.6633 29.4254 21.1439 29.1596C20.9318 29.0506 20.7307 28.9409 20.5509 28.8417L20.2972 28.7017L20.0497 28.8522C19.7985 29.0049 19.5373 29.0857 19.2594 29.0857C18.9815 29.0857 18.7203 29.0049 18.4691 28.8522L18.2215 28.7017L17.9678 28.8417C17.7883 28.9407 17.5876 29.0502 17.376 29.1591C16.8354 29.4323 16.3907 29.6179 16.0058 29.7311ZM38.7469 25.667C38.7469 25.0583 38.6021 24.5085 38.2158 24.114C37.8275 23.7176 37.2826 23.567 36.6781 23.567C36.0737 23.567 35.5287 23.7176 35.1404 24.114C34.7541 24.5085 34.6094 25.0583 34.6094 25.667C34.6094 26.4196 34.8369 27.1835 35.175 27.7681C35.3446 28.0613 35.5525 28.3277 35.7926 28.5263C36.0303 28.723 36.3328 28.8795 36.6781 28.8795C37.0234 28.8795 37.326 28.723 37.5637 28.5263C37.8038 28.3277 38.0117 28.0613 38.1813 27.7681C38.5194 27.1835 38.7469 26.4196 38.7469 25.667ZM30.2344 24.9857C30.2344 24.3149 30.0664 23.7192 29.6482 23.2933C29.2284 22.8656 28.638 22.692 27.9719 22.692C27.3071 22.692 26.7164 22.8634 26.296 23.2905C25.877 23.7161 25.7094 24.3124 25.7094 24.9857C25.7094 25.8211 25.9564 26.6582 26.3314 27.2968C26.5193 27.6168 26.7495 27.9041 27.015 28.1166C27.2794 28.3282 27.6059 28.4857 27.9719 28.4857C28.3379 28.4857 28.6644 28.3282 28.9288 28.1166C29.1943 27.9041 29.4245 27.6168 29.6124 27.2968C29.9874 26.6582 30.2344 25.8211 30.2344 24.9857ZM21.3344 25.667C21.3344 25.0583 21.1896 24.5085 20.8033 24.114C20.415 23.7176 19.8701 23.567 19.2656 23.567C18.6612 23.567 18.1162 23.7176 17.7279 24.114C17.3416 24.5085 17.1969 25.0583 17.1969 25.667C17.1969 26.4196 17.4244 27.1835 17.7625 27.7681C17.9321 28.0613 18.14 28.3277 18.3801 28.5263C18.6178 28.723 18.9203 28.8795 19.2656 28.8795C19.6109 28.8795 19.9135 28.723 20.1512 28.5263C20.3913 28.3277 20.5992 28.0613 20.7688 27.7681C21.1069 27.1835 21.3344 26.4196 21.3344 25.667Z" fill="#1C75BA" stroke="#1C75BA"/>
<path d="M43.2535 19.4843L43.2542 19.4856C47.033 26.2716 45.8357 34.859 40.3378 40.3509C36.9907 43.692 32.494 45.4611 27.9348 45.4611C25.9171 45.4611 23.8942 45.1147 21.957 44.4041L20.8705 44.0057L21.325 45.0699L22.2937 47.3387L22.294 47.3393C22.3155 47.3895 22.2925 47.4518 22.2398 47.4756C22.2174 47.4846 22.2025 47.4861 22.1973 47.4861C22.1606 47.4861 22.1193 47.4627 22.1003 47.4196C22.1002 47.4194 22.1001 47.4191 22.1 47.4189L20.5213 43.7125C20.5212 43.7122 20.5211 43.7118 20.5209 43.7115C20.5117 43.6886 20.5104 43.658 20.5221 43.6287C20.5339 43.6055 20.5587 43.5816 20.5893 43.5699L24.4029 42.2654L24.4029 42.2655L24.4104 42.2628C24.4581 42.2456 24.5178 42.2725 24.5355 42.3254L24.5354 42.3255L24.5383 42.3337C24.5578 42.3891 24.53 42.444 24.4767 42.4617L24.4767 42.4617L24.473 42.463L22.0792 43.2817L20.7368 43.7409L22.0705 44.2248C28.3138 46.4905 35.4311 44.9594 40.1821 40.2084C45.6148 34.7756 46.7991 26.2949 43.0657 19.5872C43.0375 19.5354 43.0559 19.4712 43.1081 19.4423C43.16 19.4136 43.2246 19.432 43.2535 19.4843Z" fill="#1C75BA" stroke="#1C75BA"/>
<path d="M12.2535 36.7424L12.6903 36.4991C8.91154 29.7131 10.1088 21.132 15.6129 15.6401L15.6133 15.6397C20.4369 10.816 27.6628 9.27194 33.9943 11.587L35.0781 11.9833L34.626 10.9215L33.6573 8.64649L33.6568 8.64542C33.635 8.59461 33.6589 8.53137 33.7129 8.50821C33.7636 8.48649 33.8266 8.51016 33.85 8.56392C33.85 8.56406 33.8501 8.5642 33.8502 8.56434L35.428 12.269C35.4408 12.303 35.4393 12.3357 35.4285 12.3626C35.4143 12.3915 35.3924 12.4102 35.3655 12.4197C35.3653 12.4198 35.3651 12.4198 35.3649 12.4199L31.559 13.7218C31.5489 13.7245 31.5392 13.7267 31.5307 13.7281C31.5198 13.7299 31.5149 13.7299 31.516 13.7299C31.4742 13.7299 31.4309 13.7036 31.4129 13.6522L31.4125 13.651C31.3929 13.5956 31.4208 13.5407 31.4741 13.523L31.4774 13.5218L33.8587 12.7093L35.203 12.2507L33.8678 11.7661C27.6246 9.50054 20.5135 11.0252 15.7562 15.7826C10.3233 21.2154 9.13912 29.6902 12.8728 36.3981L12.8728 36.3981L12.8762 36.4039C12.9036 36.4517 12.8893 36.5111 12.8395 36.5406C12.8175 36.5517 12.7993 36.5549 12.7847 36.5549C12.7479 36.5549 12.7108 36.5355 12.6893 36.4973L12.2535 36.7424ZM12.2535 36.7424C12.366 36.9424 12.5722 37.0549 12.7847 37.0549C12.8847 37.0549 12.9847 37.0299 13.0785 36.9799L34.3097 8.36738C34.1785 8.06113 33.8222 7.91738 33.516 8.04863C33.2097 8.17988 33.066 8.53613 33.1972 8.84238L33.9006 10.4942C34.0467 10.5435 34.1924 10.5947 34.3377 10.6478L34.166 11.1174L33.7059 11.3133L33.5291 10.8981C27.1737 8.84273 20.0612 10.4847 15.2597 15.2861C9.59722 20.9361 8.36597 29.7611 12.2535 36.7424Z" fill="#1C75BA" stroke="#1C75BA"/>
</svg>
