<svg width="55" height="56" viewBox="0 0 55 56" fill="none" xmlns="http://www.w3.org/2000/svg">
<path d="M43.0304 13.694C43.8243 13.694 44.4667 13.0515 44.4667 12.2576C44.4667 11.4637 43.8243 10.8212 43.0304 10.8212C42.2364 10.8212 41.594 11.4637 41.594 12.2576C41.594 13.0515 42.2425 13.694 43.0304 13.694ZM43.0304 11.8455C43.2607 11.8455 43.4485 12.0333 43.4485 12.2637C43.4485 12.494 43.2607 12.6818 43.0304 12.6818C42.794 12.6818 42.6122 12.5 42.6122 12.2637C42.6122 12.0273 42.8001 11.8455 43.0304 11.8455Z" fill="#1C75BA"/>
<path d="M44.6242 8.5H15.097C13.9758 8.5 13.0606 9.41515 13.0606 10.5364V13.6455H11.0364C9.91515 13.6455 9 14.5606 9 15.6818V41.2152C9 42.3364 9.91515 43.2515 11.0364 43.2515H24.5697V46.197C24.5697 46.4758 24.8 46.7061 25.0788 46.7061H34.6424C34.9212 46.7061 35.1515 46.4758 35.1515 46.197V43.2515H40.5636C41.6848 43.2515 42.6 42.3364 42.6 41.2152V38.1061H44.6242C45.7455 38.1061 46.6606 37.1909 46.6606 36.0697V10.5364C46.6606 9.41515 45.7455 8.5 44.6242 8.5ZM14.0788 10.5364C14.0788 9.97273 14.5394 9.51818 15.097 9.51818H44.6242C45.1879 9.51818 45.6424 9.97879 45.6424 10.5364V15.003H26.3212L24.0485 12.6455C23.8727 12.4636 23.6303 12.3606 23.3818 12.3606H18.3758C17.8667 12.3606 17.4485 12.7788 17.4485 13.2879V15.003H14.0788V10.5364ZM11.0364 42.2394C10.4727 42.2394 10.0182 41.7788 10.0182 41.2212V15.6818C10.0182 15.1182 10.4788 14.6636 11.0364 14.6636H13.0606V36.0758C13.0606 37.197 13.9758 38.1121 15.097 38.1121H26.1515C26.3515 38.5 26.4424 38.9364 26.4061 39.3848H25.6182C25.0364 39.3848 24.5697 39.8576 24.5697 40.4333V42.2394H11.0364ZM29.3576 31.5788C29.4606 31.397 29.6485 31.2818 29.8606 31.2818C30.1758 31.2818 30.4303 31.5364 30.4303 31.8515C30.4303 32.0576 30.3212 32.2455 30.1455 32.3485C29.9515 32.4636 29.7212 32.4515 29.4848 32.3182C29.4545 32.3 29.4242 32.2758 29.4121 32.2455C29.2182 31.9364 29.297 31.6939 29.3576 31.5788ZM29.3515 30.3606C28.9818 30.4879 28.6667 30.7364 28.4727 31.0879C28.1818 31.6091 28.2182 32.2455 28.5576 32.7909C28.6667 32.9606 28.8121 33.1 28.9879 33.203C29.2667 33.3606 29.5697 33.4455 29.8667 33.4455C30.1455 33.4455 30.4182 33.3727 30.6606 33.2333C31.1455 32.9485 31.4485 32.4212 31.4485 31.8576C31.4485 31.1606 30.9939 30.5727 30.3697 30.3606V27.7424L34.8727 35.8697C34.8667 35.8758 34.8606 35.8879 34.8424 35.8939C33.2485 36.3061 32.2061 37.797 32.2909 39.3848H27.4364C27.5273 37.7909 26.4788 36.3 24.8545 35.8455L29.3515 27.7424V30.3606ZM34.1333 45.6879H25.5879L25.6182 40.397H34.103C34.1212 40.397 34.1333 40.4091 34.1333 40.4273V45.6879ZM41.5818 41.2152C41.5818 41.7788 41.1212 42.2333 40.5636 42.2333H35.1515V40.4273C35.1515 39.8455 34.6788 39.3788 34.103 39.3788H33.3152C33.2788 38.9303 33.3758 38.4939 33.5697 38.1061H41.5818V41.2152ZM44.6242 37.0939H34.5576C34.7212 37.003 34.897 36.9242 35.0909 36.8758C35.4121 36.7909 35.6727 36.5667 35.8061 36.2636C35.9333 35.9667 35.9152 35.6333 35.7576 35.3485L30.5455 25.9606C30.4121 25.7121 30.1515 25.5545 29.8667 25.5545C29.5758 25.5606 29.3152 25.7061 29.1758 25.9545L23.9576 35.3485C23.8 35.6333 23.7879 35.9727 23.9152 36.2697C24.0424 36.5727 24.303 36.7909 24.6242 36.8758C24.8182 36.9242 24.9879 37.003 25.1576 37.0939H15.097C14.5333 37.0939 14.0788 36.6333 14.0788 36.0758V16.0212H17.5333C18.0424 16.0212 18.4606 15.603 18.4606 15.0939V13.3788H23.3394L25.6121 15.7364C25.7879 15.9182 26.0303 16.0212 26.2788 16.0212H45.6424V36.0697C45.6424 36.6333 45.1879 37.0939 44.6242 37.0939Z" fill="#1C75BA"/>
<path d="M39.5633 13.694C40.3573 13.694 40.9997 13.0516 40.9997 12.2577C40.9997 11.4637 40.3573 10.8213 39.5633 10.8213C38.7694 10.8213 38.127 11.4637 38.127 12.2577C38.127 13.0516 38.7694 13.694 39.5633 13.694ZM39.5633 11.8455C39.7936 11.8455 39.9815 12.0334 39.9815 12.2637C39.9815 12.494 39.7936 12.6819 39.5633 12.6819C39.327 12.6819 39.1451 12.5001 39.1451 12.2637C39.1451 12.0273 39.333 11.8455 39.5633 11.8455Z" fill="#1C75BA"/>
<path d="M36.0907 13.694C36.8846 13.694 37.527 13.0516 37.527 12.2577C37.527 11.4637 36.8846 10.8213 36.0907 10.8213C35.2967 10.8213 34.6543 11.4637 34.6543 12.2577C34.6543 13.0516 35.2967 13.694 36.0907 13.694ZM36.0907 11.8455C36.321 11.8455 36.5088 12.0334 36.5088 12.2637C36.5088 12.494 36.321 12.6819 36.0907 12.6819C35.8543 12.6819 35.6725 12.5001 35.6725 12.2637C35.6725 12.0273 35.8604 11.8455 36.0907 11.8455Z" fill="#1C75BA"/>
<path d="M39.6735 20.4573C39.3765 20.7543 39.1886 21.1301 39.1159 21.5301H31.9947V20.7301C31.9947 20.1846 31.5523 19.7422 31.0068 19.7422H28.7098C28.1644 19.7422 27.722 20.1846 27.722 20.7301V21.5301H20.6068C20.5402 21.1361 20.3523 20.7604 20.0492 20.4513C19.2795 19.6937 17.9644 19.7058 17.2129 20.4573C16.8311 20.8392 16.625 21.3422 16.625 21.8755C16.625 22.4149 16.8371 22.924 17.2129 23.2937C17.5947 23.6876 18.1038 23.8876 18.6311 23.8876C18.9644 23.8876 19.3038 23.8089 19.625 23.6452C19.9705 23.4695 20.2553 23.1786 20.425 22.821C20.4674 22.7301 20.5038 22.6392 20.5341 22.5482H25.4735C22.7886 23.8573 20.7644 26.3179 20.0614 29.2876H19.2735C18.728 29.2876 18.2856 29.7301 18.2856 30.2755V32.5725C18.2856 33.1179 18.728 33.5604 19.2735 33.5604H21.5705C22.1159 33.5604 22.5583 33.1179 22.5583 32.5725V30.2755C22.5583 29.7301 22.1159 29.2876 21.5705 29.2876H21.1098C21.9583 26.0876 24.522 23.5786 27.7401 22.8028V23.021C27.7401 23.5664 28.1826 24.0089 28.728 24.0089H31.025C31.5705 24.0089 32.0129 23.5664 32.0129 23.021V22.8028C35.225 23.5786 37.7886 26.0876 38.6432 29.2876H38.225C37.6795 29.2876 37.2371 29.7301 37.2371 30.2755V32.5725C37.2371 33.1179 37.6795 33.5604 38.225 33.5604H40.522C41.0674 33.5604 41.5098 33.1179 41.5098 32.5725V30.2755C41.5098 29.7301 41.0674 29.2876 40.522 29.2876H39.6917C38.9826 26.3179 36.9583 23.8513 34.2795 22.5482H39.2311C39.328 22.827 39.4856 23.0816 39.6977 23.2937C40.0795 23.6876 40.5886 23.8876 41.1159 23.8876C41.4492 23.8876 41.7886 23.8089 42.1098 23.6452C42.4553 23.4695 42.7402 23.1786 42.9098 22.821C43.3038 21.9907 43.1644 21.0876 42.5402 20.4513C41.7462 19.6998 40.4311 19.7058 39.6735 20.4573ZM19.4977 22.3907C19.425 22.5361 19.3038 22.6634 19.1583 22.7361C18.6311 23.0028 18.1765 22.8331 17.928 22.5725C17.7402 22.3907 17.6371 22.1422 17.6371 21.8755C17.6371 21.6149 17.7402 21.3664 17.928 21.1725C18.1159 20.9846 18.3644 20.8816 18.6311 20.8816C18.8917 20.8816 19.1462 20.9846 19.328 21.1664C19.6432 21.4937 19.7038 21.9482 19.4977 22.3907ZM21.5583 32.5422L19.2917 32.5725L19.2614 30.3058H21.528L21.5583 32.5422ZM40.5038 32.5422L38.2371 32.5725L38.2068 30.3058H40.4735L40.5038 32.5422ZM28.7462 23.027L28.7341 22.2634C28.7462 22.2089 28.7462 22.1543 28.7402 22.0937V22.0876C28.7402 22.0695 28.7523 22.0573 28.7523 22.0392C28.7523 22.0089 28.7402 21.9846 28.7341 21.9604L28.7159 20.7664H30.9826L31.0008 21.9604C30.9947 21.9907 30.9826 22.0149 30.9826 22.0452C30.9826 22.0634 30.9886 22.0755 30.9947 22.0937V22.0998C30.9826 22.1786 30.9886 22.2513 31.0068 22.3179L31.0189 23.0028L28.7462 23.027ZM41.9644 22.3907C41.8917 22.5361 41.7705 22.6634 41.625 22.7361C41.0977 23.0028 40.6432 22.8331 40.3947 22.5725C40.2068 22.3907 40.1038 22.1422 40.1038 21.8755C40.1038 21.6149 40.2068 21.3664 40.3947 21.1725C40.5826 20.9846 40.8311 20.8816 41.0977 20.8816C41.3583 20.8816 41.6129 20.9846 41.7947 21.1664C42.1098 21.4937 42.1705 21.9482 41.9644 22.3907Z" fill="#1C75BA"/>
</svg>
